<svg width="18" height="18" viewBox="0 0 18 18" fill="none" xmlns="http://www.w3.org/2000/svg">
<g clip-path="url(#clip0_12_464)">
<path d="M15.9784 1.68574L11.7137 1.68576V0.564697C11.7137 0.253916 11.4754 0.00219727 11.1811 0.00219727C10.8869 0.00219727 10.6485 0.253916 10.6485 0.564697V1.68548H6.38762V0.564697C6.38762 0.253916 6.14927 0.00219727 5.85501 0.00219727C5.56074 0.00219727 5.32239 0.253916 5.32239 0.564697V1.68548H1.06522C0.476954 1.68548 0 2.1892 0 2.81048V16.873C0 17.4942 0.476954 17.998 1.06522 17.998H15.9784C16.5666 17.998 17.0436 17.4942 17.0436 16.873V2.81048C17.0436 2.18946 16.5666 1.68574 15.9784 1.68574ZM15.9784 16.873H1.06522V2.81048H5.32239V3.3772C5.32239 3.68796 5.56074 3.9397 5.85501 3.9397C6.14927 3.9397 6.38762 3.68796 6.38762 3.3772V2.81076H10.6485V3.37748C10.6485 3.68826 10.8869 3.93998 11.1811 3.93998C11.4754 3.93998 11.7137 3.68826 11.7137 3.37748V2.81076H15.9784V16.873ZM12.2501 8.99824H13.3153C13.6093 8.99824 13.8479 8.74624 13.8479 8.43574V7.31074C13.8479 7.00024 13.6093 6.74824 13.3153 6.74824H12.2501C11.9561 6.74824 11.7175 7.00024 11.7175 7.31074V8.43574C11.7175 8.74624 11.9561 8.99824 12.2501 8.99824ZM12.2501 13.498H13.3153C13.6093 13.498 13.8479 13.2462 13.8479 12.9355V11.8105C13.8479 11.5 13.6093 11.248 13.3153 11.248H12.2501C11.9561 11.248 11.7175 11.5 11.7175 11.8105V12.9355C11.7175 13.2465 11.9561 13.498 12.2501 13.498ZM9.05441 11.248H7.98918C7.69518 11.248 7.45657 11.5 7.45657 11.8105V12.9355C7.45657 13.2462 7.69518 13.498 7.98918 13.498H9.05441C9.34841 13.498 9.58702 13.2462 9.58702 12.9355V11.8105C9.58702 11.5002 9.34841 11.248 9.05441 11.248ZM9.05441 6.74824H7.98918C7.69518 6.74824 7.45657 7.00024 7.45657 7.31074V8.43574C7.45657 8.74624 7.69518 8.99824 7.98918 8.99824H9.05441C9.34841 8.99824 9.58702 8.74624 9.58702 8.43574V7.31074C9.58702 6.99996 9.34841 6.74824 9.05441 6.74824ZM4.79351 6.74824H3.72829C3.43428 6.74824 3.19567 7.00024 3.19567 7.31074V8.43574C3.19567 8.74624 3.43428 8.99824 3.72829 8.99824H4.79351C5.08751 8.99824 5.32612 8.74624 5.32612 8.43574V7.31074C5.32612 6.99996 5.08751 6.74824 4.79351 6.74824ZM4.79351 11.248H3.72829C3.43428 11.248 3.19567 11.5 3.19567 11.8105V12.9355C3.19567 13.2462 3.43428 13.498 3.72829 13.498H4.79351C5.08751 13.498 5.32612 13.2462 5.32612 12.9355V11.8105C5.32612 11.5002 5.08751 11.248 4.79351 11.248Z" fill="white"/>
</g>
<defs>
<clipPath id="clip0_12_464">
<rect width="17.0436" height="18" fill="white"/>
</clipPath>
</defs>
</svg>
