<svg width="49" height="29" viewBox="0 0 49 29" fill="none" xmlns="http://www.w3.org/2000/svg">
<rect x="1.33844" y="0.5" width="47" height="28" rx="14" fill="#A259FF" stroke="#A259FF"/>
<path d="M24.378 15.0215H16.3262V14.1279H24.378V15.0215ZM23.4503 13.4395H17.3175V12.5654H23.4503V13.4395ZM23.3966 11.2031H18.3868V13.0049H17.3175V10.3193H23.3966V11.2031ZM20.335 15.6318C20.9698 15.6318 21.5167 15.6937 21.9757 15.8174C22.4346 15.9411 22.7846 16.1234 23.0255 16.3643C23.2696 16.6051 23.3917 16.8965 23.3917 17.2383C23.3917 17.5801 23.2696 17.8714 23.0255 18.1123C22.7846 18.3564 22.4346 18.5404 21.9757 18.6641C21.5199 18.791 20.9731 18.8545 20.335 18.8545C19.697 18.8545 19.1469 18.791 18.6846 18.6641C18.2257 18.5404 17.8725 18.3564 17.6251 18.1123C17.3809 17.8714 17.2589 17.5801 17.2589 17.2383C17.2589 16.8965 17.3809 16.6051 17.6251 16.3643C17.8725 16.1234 18.2257 15.9411 18.6846 15.8174C19.1436 15.6937 19.6938 15.6318 20.335 15.6318ZM20.335 16.4619C19.9086 16.4619 19.5489 16.4928 19.2559 16.5547C18.963 16.6133 18.7416 16.7012 18.5919 16.8184C18.4421 16.9323 18.3673 17.0723 18.3673 17.2383C18.3673 17.4108 18.4421 17.5557 18.5919 17.6729C18.7416 17.7868 18.9613 17.8747 19.2511 17.9365C19.544 17.9951 19.9053 18.0244 20.335 18.0244C20.7615 18.0244 21.1212 17.9951 21.4141 17.9365C21.7071 17.8747 21.9285 17.7868 22.0782 17.6729C22.2279 17.5557 22.3028 17.4108 22.3028 17.2383C22.3028 17.0723 22.2279 16.9323 22.0782 16.8184C21.9285 16.7012 21.7055 16.6133 21.4093 16.5547C21.1163 16.4928 20.7582 16.4619 20.335 16.4619ZM33.0255 15.6904H24.9591V14.8164H33.0255V15.6904ZM32.0294 12.5361H27.0587V13.5762H25.9796V11.7451H30.9356V11.0859H25.9552V10.2314H32.0294V12.5361ZM32.2003 14.084H25.9796V13.2393H32.2003V14.084ZM29.5245 15.2852H28.4503V13.6445H29.5245V15.2852ZM32.0782 18.8105H30.9796V17.1113H25.8575V16.2471H32.0782V18.8105Z" fill="white"/>
</svg>
