<svg width="7" height="7" viewBox="0 0 7 7" fill="none" xmlns="http://www.w3.org/2000/svg">
<path d="M0.136371 0.136371C0.17949 0.0931435 0.230713 0.0588468 0.287107 0.0354459C0.343501 0.012045 0.403958 0 0.465014 0C0.52607 0 0.586527 0.012045 0.642921 0.0354459C0.699315 0.0588468 0.750538 0.0931435 0.793657 0.136371L3.25012 2.59376L5.70659 0.136371C5.74974 0.0932134 5.80098 0.0589786 5.85737 0.0356216C5.91376 0.0122647 5.97419 0.000243032 6.03523 0.000243032C6.09626 0.000243032 6.1567 0.0122647 6.21309 0.0356216C6.26948 0.0589786 6.32071 0.0932134 6.36387 0.136371C6.40703 0.179529 6.44126 0.230765 6.46462 0.287154C6.48798 0.343542 6.5 0.40398 6.5 0.465014C6.5 0.526049 6.48798 0.586486 6.46462 0.642874C6.44126 0.699263 6.40703 0.750499 6.36387 0.793657L3.90648 3.25012L6.36387 5.70659C6.40703 5.74974 6.44126 5.80098 6.46462 5.85737C6.48798 5.91376 6.5 5.97419 6.5 6.03523C6.5 6.09626 6.48798 6.1567 6.46462 6.21309C6.44126 6.26948 6.40703 6.32071 6.36387 6.36387C6.32071 6.40703 6.26948 6.44126 6.21309 6.46462C6.1567 6.48798 6.09626 6.5 6.03523 6.5C5.97419 6.5 5.91376 6.48798 5.85737 6.46462C5.80098 6.44126 5.74974 6.40703 5.70659 6.36387L3.25012 3.90648L0.793657 6.36387C0.750499 6.40703 0.699263 6.44126 0.642874 6.46462C0.586486 6.48798 0.526049 6.5 0.465014 6.5C0.40398 6.5 0.343542 6.48798 0.287154 6.46462C0.230765 6.44126 0.179529 6.40703 0.136371 6.36387C0.0932134 6.32071 0.0589786 6.26948 0.0356216 6.21309C0.0122647 6.1567 0.000243032 6.09626 0.000243032 6.03523C0.000243032 5.97419 0.0122647 5.91376 0.0356216 5.85737C0.0589786 5.80098 0.0932134 5.74974 0.136371 5.70659L2.59376 3.25012L0.136371 0.793657C0.0931435 0.750538 0.0588468 0.699315 0.0354459 0.642921C0.012045 0.586527 0 0.52607 0 0.465014C0 0.403958 0.012045 0.343501 0.0354459 0.287107C0.0588468 0.230713 0.0931435 0.17949 0.136371 0.136371Z" fill="white"/>
</svg>
