<svg width="85" height="72" viewBox="0 0 85 72" fill="none" xmlns="http://www.w3.org/2000/svg">
<rect x="0.5" y="0.5" width="70.3207" height="70.3207" rx="16.5" fill="#A259FF" stroke="#A259FF"/>
<path d="M39.1514 55.9087H31.0962V52.519H39.1514V55.9087ZM32.6895 54.6963H37.5645V53.7251H32.6895V54.6963ZM39.856 46.5205H30.3726V45.3081H39.856V46.5205ZM35.1396 46.8252C36.4092 46.8252 37.3719 46.9627 38.0278 47.2378C38.688 47.5129 39.0181 47.9233 39.0181 48.4692C39.0181 49.0109 38.6859 49.4214 38.0215 49.7007C37.3613 49.98 36.4007 50.1196 35.1396 50.1196C33.887 50.1196 32.9243 49.98 32.2515 49.7007C31.5828 49.4214 31.2485 49.0109 31.2485 48.4692C31.2485 47.9276 31.5828 47.5192 32.2515 47.2441C32.9243 46.9648 33.887 46.8252 35.1396 46.8252ZM35.1396 47.9106C34.6191 47.9106 34.2065 47.9297 33.9019 47.9678C33.5972 48.0059 33.3665 48.0651 33.21 48.1455C33.0576 48.2259 32.9814 48.3338 32.9814 48.4692C32.9814 48.5962 33.0597 48.702 33.2163 48.7866C33.3729 48.867 33.6077 48.9284 33.9209 48.9707C34.234 49.0088 34.6403 49.0299 35.1396 49.0342C35.6475 49.0299 36.0558 49.0088 36.3647 48.9707C36.6779 48.9284 36.9106 48.867 37.063 48.7866C37.2153 48.702 37.2915 48.5962 37.2915 48.4692C37.2915 48.3338 37.2153 48.2259 37.063 48.1455C36.9106 48.0651 36.6821 48.0059 36.3774 47.9678C36.0728 47.9297 35.6602 47.9106 35.1396 47.9106ZM35.9458 46.1777H34.3208V44.3813H35.9458V46.1777ZM40.4146 51.9351H29.8774V50.6719H40.4146V51.9351ZM35.9458 51.3574H34.3208V49.707H35.9458V51.3574Z" fill="white"/>
<path d="M49.4496 19.7507L36.1864 11.7376C35.9442 11.5912 35.6596 11.5131 35.3685 11.5132C35.0779 11.5134 34.7939 11.5914 34.5521 11.7376L21.2889 19.7507C21.0259 19.9097 20.8262 20.1411 20.7194 20.4108C20.6126 20.6805 20.6044 20.9742 20.6959 21.2484C20.7874 21.5227 20.9738 21.763 21.2277 21.9339C21.4815 22.1048 21.7892 22.1972 22.1054 22.1974H23.579V36.8882C23.579 37.2424 23.7343 37.5821 24.0107 37.8325C24.287 38.083 24.6619 38.2237 25.0527 38.2237H45.6843C46.0751 38.2237 46.45 38.083 46.7264 37.8325C47.0027 37.5821 47.158 37.2424 47.158 36.8882V22.1974H48.6317C48.9481 22.1977 49.2563 22.1058 49.5105 21.9351C49.7648 21.7644 49.9517 21.5241 50.0436 21.2497C50.1355 20.9753 50.1275 20.6814 50.0208 20.4114C49.9141 20.1415 49.7143 19.9098 49.451 19.7507H49.4496ZM44.2106 35.5527H26.5264V19.7934L35.3685 14.4513L44.2106 19.7934V35.5527Z" fill="white"/>
</svg>
