<svg width="55" height="57" viewBox="0 0 55 57" fill="none" xmlns="http://www.w3.org/2000/svg">
<g clip-path="url(#clip0_572_436)">
<path d="M1.375 27.042H6.875M27.0417 2.29199V6.41699M46.2713 27.042H51.7917M7.81204 7.81236L12.7019 11.4587M46.2713 7.81236L42.1667 11.4587M20.131 42.0651H33.9523M18.0278 39.0605C15.5053 37.1687 13.642 34.5311 12.7019 31.5214C11.7617 28.5117 11.7924 25.2825 12.7895 22.2913C13.7866 19.3 15.6996 16.6982 18.2575 14.8546C20.8154 13.0109 23.8886 12.0188 27.0417 12.0188C30.1948 12.0188 33.2679 13.0109 35.8259 14.8546C38.3838 16.6982 40.2968 19.3 41.2939 22.2913C42.291 25.2825 42.3216 28.5117 41.3815 31.5214C40.4413 34.5311 38.578 37.1687 36.0556 39.0605C34.8825 40.2218 33.9992 41.6428 33.4772 43.2088C32.9552 44.7747 32.8092 46.4415 33.0509 48.0744C33.0509 49.6682 32.4178 51.1966 31.2909 52.3236C30.1639 53.4505 28.6354 54.0837 27.0417 54.0837C25.4479 54.0837 23.9194 53.4505 22.7925 52.3236C21.6655 51.1966 21.0324 49.6682 21.0324 48.0744C21.2741 46.4415 21.1281 44.7747 20.6061 43.2088C20.0842 41.6428 19.2009 40.2218 18.0278 39.0605Z" stroke="#9747FF" stroke-width="3" stroke-linecap="round" stroke-linejoin="round"/>
</g>
<defs>
<clipPath id="clip0_572_436">
<rect width="55" height="56.8333" fill="white"/>
</clipPath>
</defs>
</svg>
