<svg width="87" height="25" viewBox="0 0 87 25" fill="none" xmlns="http://www.w3.org/2000/svg">
<rect x="0.5" y="0.5" width="86" height="24" rx="9.5" fill="#A259FF" stroke="#A259FF"/>
<path d="M35.6367 16.8838H34.5381V8.04102H35.6367V16.8838ZM30.8809 8.68555C31.3236 8.68555 31.7191 8.81413 32.0674 9.07129C32.4157 9.3252 32.6875 9.68815 32.8828 10.1602C33.0781 10.6289 33.1758 11.1758 33.1758 11.8008C33.1758 12.429 33.0781 12.9792 32.8828 13.4512C32.6875 13.9199 32.4157 14.2829 32.0674 14.54C31.7191 14.7972 31.3236 14.9258 30.8809 14.9258C30.4349 14.9258 30.0378 14.7972 29.6895 14.54C29.3411 14.2829 29.0677 13.9199 28.8691 13.4512C28.6738 12.9792 28.5762 12.429 28.5762 11.8008C28.5762 11.1758 28.6738 10.6289 28.8691 10.1602C29.0677 9.68815 29.3411 9.3252 29.6895 9.07129C30.0378 8.81413 30.4349 8.68555 30.8809 8.68555ZM30.8809 9.66211C30.6335 9.65885 30.4137 9.74349 30.2217 9.91602C30.0329 10.0853 29.8864 10.3311 29.7822 10.6533C29.6781 10.9756 29.626 11.3581 29.626 11.8008C29.626 12.2435 29.6781 12.6276 29.7822 12.9531C29.8864 13.2754 30.0329 13.5212 30.2217 13.6904C30.4137 13.8564 30.6335 13.9395 30.8809 13.9395C31.1283 13.9395 31.3464 13.8564 31.5352 13.6904C31.724 13.5212 31.8704 13.2754 31.9746 12.9531C32.0788 12.6276 32.1309 12.2435 32.1309 11.8008C32.1309 11.3581 32.0788 10.9756 31.9746 10.6533C31.8704 10.3311 31.724 10.0853 31.5352 9.91602C31.3496 9.74349 31.1315 9.65885 30.8809 9.66211ZM41.6035 14.7256H37.4043V8.87109H41.6035V14.7256ZM38.4785 13.8613H40.5439V9.7207H38.4785V13.8613ZM44.2793 16.8838H43.1807V8.04102H44.2793V16.8838ZM48.6885 10.541C48.6885 11.2051 48.5843 11.8464 48.376 12.4648C48.1709 13.0801 47.8779 13.6286 47.4971 14.1104C47.1162 14.5889 46.6719 14.9486 46.1641 15.1895L45.5342 14.335C45.9867 14.1234 46.3854 13.8158 46.7305 13.4121C47.0755 13.0085 47.3408 12.5576 47.5264 12.0596C47.7119 11.5583 47.8047 11.0521 47.8047 10.541V9.37891H48.6885V10.541ZM48.9082 10.541C48.9082 11.0326 48.9993 11.5143 49.1816 11.9863C49.3672 12.4583 49.6309 12.8831 49.9727 13.2607C50.3177 13.6351 50.7197 13.9199 51.1787 14.1152L50.5879 14.9697C50.0671 14.7386 49.6146 14.3984 49.2305 13.9492C48.8464 13.5 48.5534 12.9824 48.3516 12.3965C48.1497 11.8073 48.0488 11.1888 48.0488 10.541V9.37891H48.9082V10.541ZM50.8418 9.80371H45.8662V8.91504H50.8418V9.80371ZM52.9219 16.8594H51.8232V8.04102H52.9219V16.8594ZM63.2881 10.8779H61.1543V9.98926H63.2881V10.8779ZM59.5967 9.59375C59.5967 10.1862 59.5023 10.738 59.3135 11.249C59.1247 11.7568 58.848 12.2012 58.4834 12.582C58.1188 12.9596 57.6745 13.2477 57.1504 13.4463L56.5693 12.582C57.0316 12.4225 57.4238 12.1914 57.7461 11.8887C58.0684 11.5827 58.3109 11.2327 58.4736 10.8389C58.6396 10.445 58.7227 10.0299 58.7227 9.59375V8.58789H59.5967V9.59375ZM59.8115 9.6084C59.8115 10.0055 59.8896 10.3864 60.0459 10.751C60.2054 11.1156 60.4414 11.4411 60.7539 11.7275C61.0664 12.014 61.4424 12.2354 61.8818 12.3916L61.2861 13.2314C60.7913 13.0426 60.3682 12.7692 60.0166 12.4111C59.6683 12.0498 59.403 11.6299 59.2207 11.1514C59.0384 10.6729 58.9473 10.1585 58.9473 9.6084V8.58789H59.8115V9.6084ZM63.9961 14.5986H62.9121V8.05078H63.9961V14.5986ZM64.1865 16.7031H58.1758V15.8145H64.1865V16.7031ZM59.2793 16.2734H58.1758V13.8906H59.2793V16.2734ZM66.1689 12.1475C66.8949 12.1442 67.4857 12.1279 67.9414 12.0986C68.3971 12.0693 68.8545 12.014 69.3135 11.9326L69.4209 12.8115C68.9294 12.8994 68.4476 12.9596 67.9756 12.9922C67.5068 13.0215 66.9046 13.0361 66.1689 13.0361H65.583V12.1475H66.1689ZM69.0498 9.53027H66.623V12.6309H65.583V8.64648H69.0498V9.53027ZM68.957 11.2148H66.3057V10.3848H68.957V11.2148ZM72.7949 13.4219H71.7598V8.05078H72.7949V13.4219ZM72.0625 11.127H70.5488V10.2578H72.0625V11.127ZM70.8369 13.3633H69.8311V8.21191H70.8369V13.3633ZM72.7949 16.8594H71.7207V14.6914H66.75V13.8174H72.7949V16.8594Z" fill="white"/>
<path d="M22.1875 8H10.8125C10.597 8 10.3903 8.06813 10.238 8.18939C10.0856 8.31066 10 8.47513 10 8.64662V16.4061C10 16.5776 10.0856 16.7421 10.238 16.8633C10.3903 16.9846 10.597 17.0527 10.8125 17.0527H22.1875C22.403 17.0527 22.6097 16.9846 22.762 16.8633C22.9144 16.7421 23 16.5776 23 16.4061V8.64662C23 8.47513 22.9144 8.31066 22.762 8.18939C22.6097 8.06813 22.403 8 22.1875 8ZM10.8125 16.4061V8.64662H22.1875V16.4061H10.8125Z" fill="white"/>
<path d="M12.8113 11.2333C13.0523 11.2333 13.288 11.1764 13.4884 11.0699C13.6888 10.9633 13.845 10.8118 13.9373 10.6346C14.0295 10.4573 14.0536 10.2623 14.0066 10.0742C13.9596 9.88602 13.8435 9.71319 13.6731 9.57755C13.5026 9.4419 13.2855 9.34952 13.049 9.31209C12.8126 9.27467 12.5676 9.29388 12.3449 9.36729C12.1222 9.4407 11.9318 9.56502 11.7979 9.72453C11.664 9.88403 11.5925 10.0716 11.5925 10.2634C11.5925 10.5206 11.7209 10.7673 11.9495 10.9492C12.1781 11.1311 12.488 11.2333 12.8113 11.2333ZM12.8113 9.74609C12.94 9.74545 13.0661 9.77525 13.1735 9.8317C13.2809 9.88815 13.3649 9.96872 13.4147 10.0632C13.4645 10.1576 13.478 10.2618 13.4533 10.3623C13.4287 10.4629 13.3671 10.5554 13.2764 10.628C13.1857 10.7007 13.0698 10.7503 12.9437 10.7705C12.8175 10.7907 12.6866 10.7807 12.5675 10.7416C12.4485 10.7026 12.3468 10.6363 12.2752 10.5511C12.2036 10.466 12.1653 10.3658 12.1653 10.2634C12.1664 10.1273 12.2348 9.99705 12.3557 9.90083C12.4766 9.80461 12.6403 9.75018 12.8113 9.74933V9.74609Z" fill="white"/>
<path d="M18.4419 11.676L16.2482 13.4219L14.6232 12.1287C14.547 12.0685 14.4441 12.0347 14.3367 12.0347C14.2294 12.0347 14.1265 12.0685 14.0503 12.1287L11.5925 14.1106V15.0256L14.351 12.8303L15.6875 13.8778L14.1641 15.0902H15.2813L18.7141 12.3582L21.375 14.4662V13.5545L19.0147 11.676C18.9386 11.6158 18.8356 11.582 18.7283 11.582C18.621 11.582 18.518 11.6158 18.4419 11.676Z" fill="white"/>
</svg>
