<svg width="21" height="21" viewBox="0 0 21 21" fill="none" xmlns="http://www.w3.org/2000/svg">
<path d="M0.5 10C0.5 4.75329 4.75329 0.5 10 0.5H20.5V11C20.5 16.2467 16.2467 20.5 11 20.5H10C4.75329 20.5 0.5 16.2467 0.5 11V10Z" fill="#EFE7F8"/>
<path d="M0.5 10C0.5 4.75329 4.75329 0.5 10 0.5H20.5V11C20.5 16.2467 16.2467 20.5 11 20.5H10C4.75329 20.5 0.5 16.2467 0.5 11V10Z" stroke="#A259FF"/>
<g clip-path="url(#clip0_296_379)">
<path d="M6.83342 14.9998C6.58133 14.9998 6.36561 14.9102 6.18625 14.7308C6.00689 14.5514 5.91705 14.3356 5.91675 14.0832C5.91644 13.8308 6.00628 13.6151 6.18625 13.436C6.36622 13.2569 6.58194 13.1671 6.83342 13.1665H14.1667C14.4188 13.1665 14.6347 13.2563 14.8144 13.436C14.994 13.6157 15.0837 13.8314 15.0834 14.0832C15.0831 14.3349 14.9934 14.5508 14.8144 14.7308C14.6353 14.9108 14.4194 15.0004 14.1667 14.9998H6.83342ZM7.75008 11.3332H8.39175L11.9667 7.76963L11.6345 7.43734L11.3136 7.1165L7.75008 10.6915V11.3332ZM6.83342 11.7915V10.4967C6.83342 10.4356 6.84487 10.3765 6.86779 10.3193C6.89071 10.2622 6.92508 10.2106 6.97092 10.1644L11.9667 5.18005C12.0508 5.09602 12.1482 5.03109 12.2592 4.98525C12.3701 4.93942 12.4865 4.9165 12.6084 4.9165C12.7303 4.9165 12.8487 4.93942 12.9636 4.98525C13.0785 5.03109 13.1816 5.09984 13.273 5.1915L13.9032 5.83317C13.9949 5.9172 14.0616 6.0165 14.1035 6.13109C14.1454 6.24567 14.1664 6.36407 14.1667 6.4863C14.1667 6.60088 14.1457 6.71363 14.1035 6.82455C14.0613 6.93546 13.9946 7.0366 13.9032 7.12796L8.91883 12.1123C8.873 12.1582 8.82151 12.1925 8.76437 12.2155C8.70724 12.2384 8.64796 12.2498 8.58654 12.2498H7.29175C7.16189 12.2498 7.05311 12.2058 6.96542 12.1178C6.87772 12.0298 6.83372 11.9211 6.83342 11.7915ZM11.9667 7.76963L11.6345 7.43734L11.3136 7.1165L11.9667 7.76963Z" fill="#AD4EF9"/>
</g>
<defs>
<clipPath id="clip0_296_379">
<rect width="11" height="11" fill="white" transform="translate(5 4)"/>
</clipPath>
</defs>
</svg>
