<svg width="76" height="24" viewBox="0 0 76 24" fill="none" xmlns="http://www.w3.org/2000/svg">
<rect y="1" width="76" height="22" rx="8" fill="#6F4F98"/>
<g clip-path="url(#clip0_599_227)">
<path d="M12.7479 11.697V15.9912H14.4144L14.4985 16.002C16.0457 16.3956 17.0709 16.6794 17.5818 16.8552C18.2605 17.0886 18.5135 17.1456 18.9739 17.1792C19.3182 17.205 19.7092 17.0604 19.8874 16.8624C19.9859 16.7532 20.0596 16.5288 20.0887 16.1808C20.0948 16.1078 20.1187 16.038 20.158 15.9785C20.1973 15.9191 20.2505 15.8723 20.312 15.843C20.449 15.7782 20.5628 15.6726 20.658 15.519C20.746 15.3786 20.8032 15.117 20.8136 14.7384C20.8155 14.6688 20.8336 14.6009 20.8662 14.541C20.8988 14.4812 20.9449 14.4314 21.0001 14.3964C21.3202 14.1942 21.4786 13.9662 21.5116 13.6986C21.5479 13.4028 21.4599 13.0698 21.2294 12.6906C21.1754 12.6017 21.1552 12.4932 21.1733 12.3884C21.1914 12.2835 21.2463 12.1904 21.3262 12.129C21.5468 11.9598 21.6678 11.7246 21.698 11.391C21.7464 10.8594 21.4357 10.4664 20.7322 10.3878C20.1057 10.3202 19.4732 10.3778 18.8655 10.5576C18.7966 10.5773 18.724 10.575 18.6562 10.5512C18.5884 10.5273 18.5282 10.4828 18.4828 10.423C18.4374 10.3631 18.4086 10.2903 18.3998 10.2132C18.3911 10.136 18.4026 10.0578 18.4332 9.98761C18.7082 9.35281 18.8611 8.82901 18.8969 8.42341C18.9436 7.88521 18.8298 7.49521 18.5636 7.17361C18.3617 6.93001 18.0389 6.79081 17.9179 6.81961C17.7584 6.85681 17.6544 6.95761 17.5191 7.31041C17.4394 7.51921 17.4009 7.69681 17.3349 8.11141C17.2716 8.50501 17.237 8.68261 17.1649 8.91541C16.9477 9.62101 16.4147 10.3524 15.6992 10.857C15.1977 11.2102 14.6542 11.4868 14.0838 11.679C14.0482 11.691 14.0111 11.6971 13.9738 11.697H12.7479ZM12.7248 16.809C12.5471 16.8144 12.3876 16.7712 12.254 16.6692C12.0835 16.539 12.0032 16.3338 12.0015 16.0974L12.0032 11.7036C11.9845 11.4696 12.0477 11.2548 12.1973 11.0952C12.3376 10.9452 12.5207 10.8744 12.7143 10.8792H13.9161C14.4022 10.7102 14.8657 10.4718 15.2944 10.17C15.8708 9.76321 16.2954 9.18001 16.4576 8.65441C16.5132 8.47321 16.5429 8.32321 16.599 7.97041C16.6749 7.49701 16.7222 7.27681 16.8311 6.99361C17.0566 6.40441 17.3525 6.11641 17.7606 6.01981C18.1621 5.92501 18.7467 6.17761 19.1163 6.62401C19.5261 7.11841 19.707 7.73701 19.6399 8.50141C19.6113 8.83021 19.5277 9.19801 19.3902 9.60781C19.8598 9.53316 20.336 9.52187 20.8081 9.57421C21.912 9.69721 22.5318 10.4814 22.4416 11.4726C22.402 11.8998 22.2601 12.2628 22.0187 12.5478C22.2216 12.9744 22.3025 13.3962 22.2519 13.8078C22.1936 14.2818 21.9516 14.6766 21.549 14.9832C21.5176 15.399 21.4302 15.7308 21.2751 15.9792C21.1529 16.1799 20.9934 16.3504 20.807 16.4796C20.7476 16.89 20.6228 17.211 20.4187 17.4366C20.0805 17.8122 19.476 18.036 18.9238 17.9952C18.3997 17.9568 18.0895 17.8872 17.358 17.6352C16.8756 17.469 15.8768 17.193 14.3715 16.809H12.7248ZM13.6603 11.5104C13.6602 11.4567 13.6698 11.4035 13.6885 11.3539C13.7072 11.3043 13.7348 11.2591 13.7695 11.2211C13.8042 11.1831 13.8455 11.153 13.891 11.1324C13.9364 11.1118 13.9851 11.1012 14.0343 11.1012C14.0835 11.1014 14.1321 11.1121 14.1774 11.1327C14.2227 11.1534 14.2639 11.1836 14.2985 11.2216C14.3331 11.2596 14.3605 11.3046 14.3792 11.3542C14.3979 11.4037 14.4074 11.4568 14.4072 11.5104V16.1172C14.4073 16.1708 14.3977 16.2239 14.379 16.2734C14.3603 16.3229 14.3328 16.3679 14.2981 16.4059C14.2634 16.4438 14.2222 16.4739 14.1769 16.4945C14.1315 16.5151 14.0829 16.5257 14.0338 16.5258C13.9847 16.5257 13.9361 16.5151 13.8907 16.4945C13.8454 16.4739 13.8042 16.4438 13.7695 16.4059C13.7348 16.3679 13.7073 16.3229 13.6886 16.2734C13.6699 16.2239 13.6603 16.1708 13.6603 16.1172V11.5104Z" fill="white"/>
<path d="M14.5 16V11.5L16.5 10L17.7693 7.29655L19 10L21.5 11L21 14.5L19.5 17L14.5 16Z" fill="white"/>
<path d="M18 7L17.7693 7.29655M17.7693 7.29655L19 10L21.5 11L21 14.5L19.5 17L14.5 16V11.5L16.5 10L17.7693 7.29655ZM18 6.5L19 8V8.5" stroke="white"/>
</g>
<path d="M32.7607 11.9961H31.8477V10.6875H32.7607V11.9961ZM32.502 8.89551C32.502 9.31217 32.3506 9.6849 32.0479 10.0137C31.7451 10.3424 31.3285 10.6094 30.7979 10.8145C30.2705 11.0163 29.6764 11.1449 29.0156 11.2002L28.7178 10.5117C29.2744 10.4694 29.779 10.3717 30.2314 10.2188C30.6872 10.0658 31.0436 9.8737 31.3008 9.64258C31.5612 9.4082 31.6914 9.15918 31.6914 8.89551V8.63672H32.502V8.89551ZM32.9268 8.89551C32.9268 9.16243 33.0553 9.41146 33.3125 9.64258C33.5697 9.8737 33.9245 10.0658 34.377 10.2188C34.8327 10.3717 35.3405 10.4694 35.9004 10.5117L35.6025 11.2002C34.945 11.1449 34.3525 11.0163 33.8252 10.8145C33.3011 10.6094 32.8861 10.3441 32.5801 10.0186C32.2773 9.68978 32.126 9.31543 32.126 8.89551V8.63672H32.9268V8.89551ZM35.5879 9.04688H29.0498V8.3291H35.5879V9.04688ZM35.5635 14.1787H29.0596V13.4658H35.5635V14.1787ZM36.3203 12.3965H28.3125V11.6396H36.3203V12.3965ZM32.3018 14.5547C32.8682 14.5547 33.3499 14.5986 33.7471 14.6865C34.1442 14.7712 34.4469 14.9014 34.6553 15.0771C34.8636 15.2497 34.9678 15.4596 34.9678 15.707C34.9678 15.9577 34.8636 16.1693 34.6553 16.3418C34.4469 16.5143 34.1442 16.6445 33.7471 16.7324C33.3499 16.8236 32.8682 16.8691 32.3018 16.8691C31.4489 16.8691 30.793 16.7699 30.334 16.5713C29.8783 16.376 29.6504 16.0879 29.6504 15.707C29.6504 15.4531 29.7529 15.2415 29.958 15.0723C30.1631 14.8997 30.4626 14.7712 30.8564 14.6865C31.2536 14.5986 31.7354 14.5547 32.3018 14.5547ZM32.3018 15.1895C31.9242 15.1895 31.61 15.209 31.3594 15.248C31.1087 15.2839 30.9183 15.3392 30.7881 15.4141C30.6579 15.4889 30.5928 15.5866 30.5928 15.707C30.5928 15.821 30.6595 15.9186 30.793 16C30.9264 16.0814 31.1201 16.14 31.374 16.1758C31.6312 16.2148 31.9404 16.2344 32.3018 16.2344C32.6729 16.2344 32.9854 16.2148 33.2393 16.1758C33.4964 16.14 33.6901 16.0814 33.8203 16C33.9505 15.9186 34.0156 15.821 34.0156 15.707C34.0156 15.5866 33.9505 15.4889 33.8203 15.4141C33.6901 15.3392 33.5013 15.2839 33.2539 15.248C33.0065 15.209 32.6891 15.1895 32.3018 15.1895ZM32.7705 13.9248H31.8428V12.6992H32.7705V13.9248ZM39.3135 8.73438C39.7497 8.73438 40.1354 8.86133 40.4707 9.11523C40.8092 9.36914 41.0745 9.72721 41.2666 10.1895C41.4619 10.6517 41.5596 11.1904 41.5596 11.8057C41.5596 12.4242 41.4619 12.9645 41.2666 13.4268C41.0745 13.889 40.8092 14.2471 40.4707 14.501C40.1322 14.7516 39.7464 14.877 39.3135 14.877C38.8805 14.877 38.4932 14.7516 38.1514 14.501C37.8128 14.2471 37.5475 13.889 37.3555 13.4268C37.1667 12.9645 37.0723 12.4242 37.0723 11.8057C37.0723 11.1904 37.1667 10.6517 37.3555 10.1895C37.5475 9.72721 37.8128 9.36914 38.1514 9.11523C38.4932 8.86133 38.8805 8.73438 39.3135 8.73438ZM39.3135 9.56445C39.0465 9.56445 38.8105 9.6556 38.6055 9.83789C38.4004 10.0202 38.2409 10.2806 38.127 10.6191C38.013 10.9544 37.9561 11.3499 37.9561 11.8057C37.9561 12.2581 38.013 12.6536 38.127 12.9922C38.2409 13.3307 38.402 13.5911 38.6104 13.7734C38.8187 13.9525 39.0531 14.042 39.3135 14.042C39.5804 14.042 39.8164 13.9525 40.0215 13.7734C40.2266 13.5911 40.3844 13.3307 40.4951 12.9922C40.609 12.6536 40.666 12.2581 40.666 11.8057C40.666 11.3499 40.609 10.9544 40.4951 10.6191C40.3844 10.2806 40.2266 10.0202 40.0215 9.83789C39.8164 9.6556 39.5804 9.56445 39.3135 9.56445ZM43.7812 16.8252H42.8584V8.0752H43.7812V16.8252ZM45.1924 12.2939H43.5713V11.5029H45.1924V12.2939ZM48.4395 15.1357H47.5264V12.5723H48.4395V15.1357ZM51.7012 15.1357H50.7686V12.5723H51.7012V15.1357ZM53.6152 15.7363H45.6074V14.9697H53.6152V15.7363ZM49.5967 8.58301C50.2217 8.58301 50.7783 8.67904 51.2666 8.87109C51.7549 9.0599 52.1357 9.32845 52.4092 9.67676C52.6859 10.0218 52.8242 10.4189 52.8242 10.8682C52.8242 11.3206 52.6859 11.7194 52.4092 12.0645C52.1357 12.4062 51.7549 12.6732 51.2666 12.8652C50.7783 13.054 50.2217 13.1484 49.5967 13.1484C48.9749 13.1484 48.4183 13.054 47.9268 12.8652C47.4385 12.6732 47.056 12.4062 46.7793 12.0645C46.5026 11.7194 46.3643 11.3206 46.3643 10.8682C46.3643 10.4189 46.5026 10.0218 46.7793 9.67676C47.056 9.32845 47.4385 9.0599 47.9268 8.87109C48.4183 8.67904 48.9749 8.58301 49.5967 8.58301ZM49.5967 9.33496C49.141 9.33171 48.7373 9.39355 48.3857 9.52051C48.0374 9.64421 47.764 9.82324 47.5654 10.0576C47.3701 10.2887 47.2725 10.5589 47.2725 10.8682C47.2725 11.1774 47.3701 11.4492 47.5654 11.6836C47.764 11.918 48.0391 12.1003 48.3906 12.2305C48.7422 12.3607 49.1442 12.4258 49.5967 12.4258C50.0459 12.4258 50.4463 12.3607 50.7979 12.2305C51.1494 12.1003 51.4245 11.918 51.623 11.6836C51.8216 11.4492 51.9209 11.1774 51.9209 10.8682C51.9209 10.5589 51.8216 10.2887 51.623 10.0576C51.4277 9.82324 51.1543 9.64421 50.8027 9.52051C50.4512 9.39355 50.0492 9.33171 49.5967 9.33496Z" fill="white"/>
<defs>
<clipPath id="clip0_599_227">
<rect width="11" height="12" fill="white" transform="translate(12 6)"/>
</clipPath>
</defs>
</svg>
