<svg width="6" height="12" viewBox="0 0 6 12" fill="none" xmlns="http://www.w3.org/2000/svg">
<path d="M0.156866 0.930564L4.76787 5.61556C4.86899 5.71779 4.92572 5.85577 4.92572 5.99956C4.92572 6.14336 4.86899 6.28134 4.76787 6.38356L0.157866 11.0686C0.0567908 11.1714 0.000154495 11.3099 0.000154495 11.4541C0.000154495 11.5983 0.0567908 11.7367 0.157866 11.8396C0.207243 11.8902 0.266259 11.9305 0.331436 11.9579C0.396613 11.9854 0.466632 11.9996 0.537367 11.9996C0.608101 11.9996 0.67812 11.9854 0.743297 11.9579C0.808474 11.9305 0.867489 11.8902 0.916866 11.8396L5.52687 7.15556C5.82979 6.84704 5.99951 6.43194 5.99951 5.99956C5.99951 5.56719 5.82979 5.15209 5.52687 4.84356L0.916866 0.159564C0.867474 0.108763 0.808396 0.0683803 0.743127 0.0408056C0.677857 0.0132308 0.607721 -0.000976562 0.536866 -0.000976562C0.466011 -0.000976562 0.395876 0.0132308 0.330606 0.0408056C0.265337 0.0683803 0.206259 0.108763 0.156866 0.159564C0.0557904 0.26242 -0.000845909 0.400858 -0.000845909 0.545064C-0.000845909 0.689271 0.0557904 0.827709 0.156866 0.930564Z" fill="#6F4F98"/>
</svg>
