<svg width="70" height="22" viewBox="0 0 70 22" fill="none" xmlns="http://www.w3.org/2000/svg">
<rect width="69.9057" height="22" rx="8" fill="#6F4F98"/>
<path d="M29.6533 8.24707C29.6533 8.87533 29.4954 9.46452 29.1797 10.0146C28.8672 10.5648 28.4342 11.0319 27.8809 11.416C27.3307 11.8001 26.7074 12.0654 26.0107 12.2119L25.542 11.3086C26.1377 11.1947 26.6764 10.9831 27.1582 10.6738C27.6432 10.3646 28.0208 9.99674 28.291 9.57031C28.5645 9.14388 28.7012 8.7028 28.7012 8.24707V7.60254H29.6533V8.24707ZM29.8486 8.24707C29.8486 8.7028 29.9854 9.14551 30.2588 9.5752C30.5355 10.0016 30.9163 10.3711 31.4014 10.6836C31.8896 10.9928 32.4333 11.2012 33.0322 11.3086L32.5488 12.2119C31.8587 12.0654 31.2386 11.8018 30.6885 11.4209C30.1383 11.04 29.7054 10.5762 29.3896 10.0293C29.0771 9.47917 28.9209 8.88509 28.9209 8.24707V7.60254H29.8486V8.24707ZM33.3643 14.7412H25.2979V13.8477H33.3643V14.7412ZM40.4785 8.74023H34.873V7.85645H40.4785V8.74023ZM41.9775 14.7412H33.9404V13.8525H41.9775V14.7412ZM41.0889 8.91113C41.0889 9.47428 41.084 9.95117 41.0742 10.3418C41.0645 10.7324 41.0303 11.1735 40.9717 11.665C40.9163 12.1566 40.8252 12.6953 40.6982 13.2812L39.6143 13.1836C39.7412 12.6432 39.834 12.1322 39.8926 11.6504C39.9544 11.1686 39.9919 10.7357 40.0049 10.3516C40.0212 9.96419 40.0293 9.48405 40.0293 8.91113V7.85645H41.0889V8.91113ZM34.7559 11.377L34.6191 10.5029L40.2686 10.2881V11.0938L34.7559 11.377ZM50.127 11.9434H49.0918V7.05078H50.127V11.9434ZM49.4336 9.91699H47.9199V9.0625H49.4336V9.91699ZM48.1689 11.875H47.1631V7.19727H48.1689V11.875ZM45.249 13.1494H49.0527V12.3145H50.127V15.7568H44.1699V12.3145H45.249V13.1494ZM49.0527 14.8828V13.999H45.249V14.8828H49.0527ZM43.5498 10.8057C44.2822 10.8024 44.873 10.7861 45.3223 10.7568C45.7715 10.7275 46.2321 10.6657 46.7041 10.5713L46.8115 11.4502C46.3037 11.5348 45.8073 11.5951 45.3223 11.6309C44.8372 11.6634 44.2464 11.6797 43.5498 11.6797H42.9541V10.8057H43.5498ZM46.2988 9.95605H44.0039V11.543H42.9541V9.15039H45.2539V8.38867H42.9346V7.52441H46.2988V9.95605Z" fill="white"/>
<g clip-path="url(#clip0_135_84)">
<path fill-rule="evenodd" clip-rule="evenodd" d="M9.91824 7.5C9.91824 7.10218 10.1026 6.72064 10.4308 6.43934C10.759 6.15804 11.2041 6 11.6682 6H17.5016C17.9657 6 18.4108 6.15804 18.739 6.43934C19.0672 6.72064 19.2516 7.10218 19.2516 7.5V15.514C19.2516 16.124 18.4466 16.479 17.8679 16.1245L14.5849 14.1145L11.3019 16.1245C10.7227 16.4795 9.91824 16.1245 9.91824 15.5145V7.5ZM11.6682 7C11.5135 7 11.3652 7.05268 11.2558 7.14645C11.1464 7.24021 11.0849 7.36739 11.0849 7.5V15.0285L14.0762 13.197C14.2247 13.1061 14.4025 13.0572 14.5849 13.0572C14.7673 13.0572 14.9452 13.1061 15.0936 13.197L18.0849 15.0285V7.5C18.0849 7.36739 18.0235 7.24021 17.9141 7.14645C17.8047 7.05268 17.6563 7 17.5016 7H11.6682Z" fill="white"/>
<path d="M18.55 15.9991C18.4399 15.9993 18.3336 15.9676 18.251 15.9098L14.5 13.2629L10.749 15.9098C10.6841 15.9556 10.6038 15.9855 10.518 15.9959C10.4321 16.0063 10.3443 15.9968 10.2651 15.9685C10.1859 15.9402 10.1188 15.8943 10.0717 15.8363C10.0247 15.7784 9.99978 15.7109 10 15.642V7.42844C10.0005 7.04972 10.1903 6.68663 10.5278 6.41884C10.8652 6.15104 11.3228 6.00041 11.8 6H17.2C17.6772 6.00041 18.1348 6.15104 18.4722 6.41884C18.8097 6.68663 18.9995 7.04972 19 7.42844V15.642C19 15.7367 18.9526 15.8275 18.8682 15.8945C18.7838 15.9614 18.6693 15.9991 18.55 15.9991Z" fill="white"/>
</g>
<defs>
<clipPath id="clip0_135_84">
<rect width="14" height="12" fill="white" transform="translate(9.5849 5)"/>
</clipPath>
</defs>
</svg>
