<svg width="17" height="16" viewBox="0 0 17 16" fill="none" xmlns="http://www.w3.org/2000/svg">
<path d="M16.8 14.6154L12.0277 9.84231C12.7968 8.78544 13.2105 7.5117 13.2093 6.20462C13.2093 2.78346 10.4258 0 7.00466 0C3.58351 0 0.800049 2.78346 0.800049 6.20462C0.800049 9.62577 3.58351 12.4092 7.00466 12.4092C8.31175 12.4105 9.58548 11.9968 10.6424 11.2277L15.4154 16L16.8 14.6154ZM7.00466 10.4496C6.16497 10.4497 5.34412 10.2008 4.64591 9.7343C3.9477 9.26784 3.4035 8.60481 3.08213 7.82905C2.76076 7.05329 2.67665 6.19965 2.84045 5.37609C3.00425 4.55253 3.40859 3.79604 4.00234 3.20229C4.59609 2.60854 5.35258 2.2042 6.17614 2.0404C6.9997 1.8766 7.85334 1.96071 8.6291 2.28208C9.40485 2.60345 10.0679 3.14765 10.5343 3.84586C11.0008 4.54407 11.2497 5.36493 11.2497 6.20462C11.2483 7.33005 10.8007 8.40902 10.0049 9.20482C9.20907 10.0006 8.1301 10.4483 7.00466 10.4496Z" fill="white"/>
</svg>
