<svg width="73" height="33" viewBox="0 0 73 33" fill="none" xmlns="http://www.w3.org/2000/svg">
<rect x="0.5" y="0.5" width="72" height="32" rx="16" fill="black" stroke="#A259FF"/>
<path d="M20.5058 10.0665L19.4221 10.6498L20.5058 11.2331L21.0985 12.2996L21.6911 11.2331L22.7748 10.6498L21.6911 10.0665L21.0985 9L20.5058 10.0665ZM16.3836 10.6745C15.3897 10.8729 14.4622 11.3133 13.6857 11.9553C12.9092 12.5973 12.3085 13.4206 11.9385 14.3498C11.5684 15.2791 11.4408 16.2848 11.5673 17.2751C11.6937 18.2654 12.0702 19.2087 12.6624 20.019C13.2546 20.8292 14.0436 21.4806 14.9573 21.9135C15.8711 22.3465 16.8805 22.5473 17.8934 22.4975C18.9063 22.4478 19.8903 22.1491 20.7558 21.6288C21.6212 21.1085 22.3404 20.3831 22.8477 19.5188C21.0455 19.505 19.3219 18.7908 18.0525 17.5317C16.7832 16.2726 16.0709 14.5708 16.071 12.7971C16.071 12.0651 16.1704 11.3504 16.3836 10.6745ZM10 16.5314C10 12.4064 13.3975 9.06274 17.5887 9.06274H18.9046L18.2459 10.183C17.8065 10.9299 17.5887 11.8187 17.5887 12.7971C17.5886 13.569 17.7622 14.3314 18.097 15.0295C18.4318 15.7276 18.9196 16.3441 19.5253 16.8346C20.1309 17.3252 20.8394 17.6776 21.5999 17.8667C22.3604 18.0557 23.154 18.0767 23.9237 17.928L25.2002 17.6838L24.7881 18.8982C23.7826 21.8617 20.9406 24 17.5887 24C13.3975 24 10 20.6563 10 16.5314ZM24.0391 12.3609L24.7327 13.6081L26 14.2908L24.7327 14.9734L24.0391 16.2207L23.3455 14.9734L22.0782 14.2908L23.3455 13.6081L24.0391 12.3609Z" fill="#A259FF"/>
<rect x="43" y="5" width="23" height="23" rx="11.5" fill="#A259FF"/>
</svg>
