<svg width="36" height="36" viewBox="0 0 36 36" fill="none" xmlns="http://www.w3.org/2000/svg">
<path d="M31 0H5C2.23858 0 0 2.23858 0 5V31C0 33.7614 2.23858 36 5 36H31C33.7614 36 36 33.7614 36 31V5C36 2.23858 33.7614 0 31 0Z" fill="#2F2143"/>
<path d="M16 17.8571V12.1429C16 11.3571 16.6429 10.7143 17.4286 10.7143H23.8571C24.6429 10.7143 25.2857 11.3571 25.2857 12.1429V16.4286H22.8357L21.9214 15.1857C21.9125 15.1709 21.9 15.1587 21.885 15.1502C21.8699 15.1417 21.853 15.1372 21.8357 15.1372C21.8185 15.1372 21.8015 15.1417 21.7865 15.1502C21.7715 15.1587 21.7589 15.1709 21.75 15.1857L20.3286 17.1429C20.2857 17.1857 20.2 17.1929 20.1571 17.1429L19.1357 15.8929C19.1255 15.8811 19.1129 15.8716 19.0987 15.8651C19.0846 15.8586 19.0692 15.8553 19.0536 15.8553C19.038 15.8553 19.0226 15.8586 19.0084 15.8651C18.9942 15.8716 18.9816 15.8811 18.9714 15.8929L17.4643 17.7929C17.4071 17.8571 17.4571 17.9643 17.5429 17.9643H22.0714V19.2857H17.4286C16.6357 19.2857 16 18.65 16 17.8571ZM13.8571 24.2857V23.5714H12.4286V24.2857H11V10H12.4286V10.7143H13.8571V10H15.5643C14.9571 10.5286 14.5714 11.2857 14.5714 12.1429V17.8571C14.5714 19.4357 15.85 20.7143 17.4286 20.7143H20.7857C20.05 21.3071 19.5714 22.2 19.5714 23.2143C19.5714 23.5929 19.65 23.95 19.7714 24.2857H13.8571ZM12.4286 13.5714H13.8571V12.1429H12.4286V13.5714ZM12.4286 16.4286H13.8571V15H12.4286V16.4286ZM12.4286 19.2857H13.8571V17.8571H12.4286V19.2857ZM13.8571 22.1429V20.7143H12.4286V22.1429H13.8571ZM26 17.8571V19.2857H24.5714V23.2143C24.5714 23.6879 24.3833 24.1421 24.0484 24.477C23.7135 24.8119 23.2593 25 22.7857 25C22.3121 25 21.8579 24.8119 21.523 24.477C21.1881 24.1421 21 23.6879 21 23.2143C21.0002 22.9179 21.0741 22.6261 21.2152 22.3654C21.3562 22.1047 21.56 21.8832 21.808 21.7209C22.0561 21.5586 22.3406 21.4606 22.636 21.4358C22.9314 21.4109 23.2283 21.46 23.5 21.5786V17.8571H26Z" fill="#A259FF"/>
</svg>
