<svg width="217" height="199" viewBox="0 0 217 199" fill="none" xmlns="http://www.w3.org/2000/svg">
<rect width="216.207" height="198.964" rx="10" fill="#281D36"/>
<path d="M98.4542 100.487V79.7691C98.4542 76.9204 100.955 74.5897 104.013 74.5897H129.025C132.082 74.5897 134.584 76.9204 134.584 79.7691V95.3072H125.051L121.494 90.8011C121.459 90.7475 121.41 90.7031 121.352 90.6723C121.293 90.6415 121.227 90.6253 121.16 90.6253C121.093 90.6253 121.027 90.6415 120.969 90.6723C120.91 90.7031 120.861 90.7475 120.827 90.8011L115.296 97.8969C115.129 98.0522 114.796 98.0781 114.629 97.8969L110.655 93.3649C110.615 93.3222 110.566 93.2879 110.511 93.2644C110.456 93.2408 110.396 93.2287 110.335 93.2287C110.275 93.2287 110.215 93.2408 110.159 93.2644C110.104 93.2879 110.055 93.3222 110.016 93.3649L104.152 100.253C103.929 100.487 104.124 100.875 104.457 100.875H122.077V105.666H104.013C100.928 105.666 98.4542 103.361 98.4542 100.487ZM90.1167 123.794V121.204H84.5584V123.794H79V72H84.5584V74.5897H90.1167V72H96.7589C94.3966 73.9164 92.8959 76.6614 92.8959 79.7691V100.487C92.8959 106.21 97.8706 110.845 104.013 110.845H117.075C114.212 112.995 112.35 116.232 112.35 119.909C112.35 121.282 112.656 122.577 113.128 123.794H90.1167ZM84.5584 84.9484H90.1167V79.7691H84.5584V84.9484ZM84.5584 95.3072H90.1167V90.1278H84.5584V95.3072ZM84.5584 105.666H90.1167V100.487H84.5584V105.666ZM90.1167 116.025V110.845H84.5584V116.025H90.1167ZM137.363 100.487V105.666H131.804V119.909C131.804 121.626 131.072 123.273 129.769 124.487C128.466 125.701 126.699 126.383 124.856 126.383C123.014 126.383 121.246 125.701 119.943 124.487C118.64 123.273 117.908 121.626 117.908 119.909C117.909 118.834 118.197 117.777 118.746 116.832C119.294 115.886 120.087 115.083 121.052 114.495C122.017 113.906 123.125 113.551 124.274 113.461C125.423 113.371 126.579 113.549 127.636 113.979V100.487H137.363Z" fill="#A259FF"/>
</svg>
