
<svg width="24" height="23" viewBox="0 0 24 23" fill="none" xmlns="http://www.w3.org/2000/svg">
<path d="M23.5 11.5C23.5 17.5553 18.3715 22.5 12 22.5C5.62846 22.5 0.5 17.5553 0.5 11.5C0.5 5.44471 5.62846 0.5 12 0.5C18.3715 0.5 23.5 5.44471 23.5 11.5Z" fill="#2FD520" stroke="white"/>
<path fill-rule="evenodd" clip-rule="evenodd" d="M18.4663 7.19448C18.642 7.37028 18.7408 7.6087 18.7408 7.85729C18.7408 8.10588 18.642 8.3443 18.4663 8.5201L11.4394 15.547C11.3465 15.6399 11.2363 15.7135 11.1149 15.7638C10.9936 15.8141 10.8635 15.84 10.7322 15.84C10.6009 15.84 10.4708 15.8141 10.3495 15.7638C10.2281 15.7135 10.1179 15.6399 10.025 15.547L6.53377 12.0564C6.44423 11.9699 6.3728 11.8664 6.32367 11.752C6.27454 11.6377 6.24868 11.5146 6.24759 11.3902C6.24651 11.2657 6.27023 11.1422 6.31737 11.027C6.36451 10.9118 6.43412 10.8071 6.52215 10.7191C6.61017 10.6311 6.71484 10.5615 6.83006 10.5143C6.94527 10.4672 7.06872 10.4435 7.19321 10.4446C7.31769 10.4456 7.4407 10.4715 7.55508 10.5206C7.66946 10.5698 7.77291 10.6412 7.85939 10.7307L10.7319 13.6032L17.14 7.19448C17.2271 7.10736 17.3305 7.03825 17.4442 6.9911C17.558 6.94395 17.68 6.91968 17.8031 6.91968C17.9263 6.91968 18.0483 6.94395 18.162 6.9911C18.2758 7.03825 18.3792 7.10736 18.4663 7.19448Z" fill="white"/>
</svg>
