<svg width="164" height="193" viewBox="0 0 164 193" fill="none" xmlns="http://www.w3.org/2000/svg">
<path d="M98.8278 68.4004L98.6246 66.1221L96.5926 66.8454C93.1101 68.1374 89.3912 68.5339 85.7382 68.0026C81.8997 67.3665 77.9708 67.9318 74.4267 69.63C72.5479 70.4843 70.8991 71.8269 69.6303 73.5355C68.3615 75.2441 67.5131 77.2644 67.1623 79.4126C66.7074 82.1877 66.935 85.0413 67.8227 87.6943C68.3943 86.3166 69.0622 84.9868 69.8208 83.7162C71.5416 81.0126 73.926 78.8668 76.7127 77.5139C79.3974 76.205 82.3319 75.5857 85.281 75.7057C82.4735 76.1641 79.7862 77.2418 77.3901 78.8701C76.2343 79.6456 75.1759 80.5753 74.2405 81.6367C73.3458 82.6976 72.557 83.8551 71.8867 85.0904C70.6278 87.6726 69.732 90.4388 69.2282 93.2998C68.6851 96.1701 68.3904 99.0876 68.3476 102.016H71.7343C71.8935 99.3896 72.2274 96.7792 72.7334 94.2039C75.0828 95.5587 77.7175 96.2496 80.3873 96.2111C82.8773 96.2092 85.3417 95.6743 87.6348 94.6379C100.521 88.7612 98.8278 69.2141 98.8278 68.4004Z" fill="url(#paint0_linear_970_791)"/>
<path d="M3.26611 154L160.733 153.999" stroke="url(#paint1_linear_970_791)" stroke-width="4" stroke-linecap="round" stroke-linejoin="round"/>
<path d="M17.208 41.3691V128.998M43.8472 41.3691V63.2764V85.1836V128.998M124.357 41.3691V128.998M147.326 41.3691V128.998" stroke="url(#paint2_linear_970_791)" stroke-width="6" stroke-linecap="round"/>
<path d="M3 129.246H161V151.153H3V129.246Z" stroke="url(#paint3_linear_970_791)" stroke-width="6" stroke-linejoin="round"/>
<path d="M3 129.246H161V151.153H3V129.246Z" stroke="url(#paint4_linear_970_791)" stroke-width="6" stroke-linejoin="round"/>
<path d="M7.73584 18.9338L82.0888 3L156.442 18.9338V39.512H7.73584V18.9338Z" stroke="#613599" stroke-width="6" stroke-linejoin="round"/>
<path d="M19.5127 187L25.6162 169.324H30.3281L36.4438 187H32.501L28.0454 173.316H27.8989L23.4312 187H19.5127ZM32.6719 180.054V182.923H23.2358V180.054H32.6719ZM38.4458 169.324H45.355C46.6896 169.324 47.8289 169.56 48.7729 170.032C49.7251 170.496 50.4494 171.163 50.9458 172.034C51.4422 172.905 51.6904 173.922 51.6904 175.086C51.6904 176.242 51.4382 177.247 50.9336 178.101C50.4372 178.947 49.7048 179.598 48.7363 180.054C47.7679 180.502 46.6123 180.726 45.2695 180.726H40.5942V177.735H44.6958C45.4282 177.735 46.0304 177.637 46.5024 177.442C46.9744 177.238 47.3285 176.941 47.5645 176.551C47.8005 176.16 47.9185 175.672 47.9185 175.086C47.9185 174.484 47.8005 173.979 47.5645 173.572C47.3285 173.165 46.9704 172.86 46.4902 172.657C46.0101 172.445 45.4079 172.339 44.6836 172.339H42.1079V187H38.4458V169.324ZM52.3252 187H48.248L43.9634 178.968H47.9307L52.3252 187ZM53.5337 169.324H68.0112V172.352H62.5913V187H58.9658V172.352H53.5337V169.324ZM71.356 184.852C70.9897 184.852 70.6479 184.758 70.3306 184.571C70.0132 184.375 69.765 184.123 69.5859 183.814C69.4069 183.497 69.3174 183.155 69.3174 182.789C69.3174 182.431 69.4069 182.097 69.5859 181.788C69.765 181.47 70.0132 181.222 70.3306 181.043C70.6479 180.864 70.9897 180.774 71.356 180.774C71.7222 180.774 72.0599 180.864 72.3691 181.043C72.6865 181.222 72.9388 181.47 73.126 181.788C73.3132 182.097 73.4067 182.431 73.4067 182.789C73.4067 183.155 73.3132 183.497 73.126 183.814C72.9388 184.123 72.6865 184.375 72.3691 184.571C72.0599 184.758 71.7222 184.852 71.356 184.852ZM71.356 175.55C70.9897 175.55 70.6479 175.456 70.3306 175.269C70.0132 175.074 69.765 174.821 69.5859 174.512C69.4069 174.195 69.3174 173.853 69.3174 173.487C69.3174 173.129 69.4069 172.795 69.5859 172.486C69.765 172.168 70.0132 171.92 70.3306 171.741C70.6479 171.562 70.9897 171.473 71.356 171.473C71.7222 171.473 72.0599 171.562 72.3691 171.741C72.6865 171.92 72.9388 172.168 73.126 172.486C73.3132 172.795 73.4067 173.129 73.4067 173.487C73.4067 173.853 73.3132 174.195 73.126 174.512C72.9388 174.821 72.6865 175.074 72.3691 175.269C72.0599 175.456 71.7222 175.55 71.356 175.55ZM82.1714 169.324H85.8335V176.648H93.4995V169.324H97.1616V187H93.4995V179.664H85.8335V187H82.1714V169.324ZM100.165 169.324H112.03V172.352H103.827V176.648H111.407V179.664H103.827V183.973H112.054V187H100.165V169.324ZM113.897 187L120.001 169.324H124.713L130.829 187H126.886L122.43 173.316H122.284L117.816 187H113.897ZM127.057 180.054V182.923H117.621V180.054H127.057ZM132.831 169.324H136.493V183.973H144.098V187H132.831V169.324Z" fill="url(#paint5_linear_970_791)"/>
<defs>
<linearGradient id="paint0_linear_970_791" x1="82.9176" y1="66.1221" x2="82.9176" y2="102.016" gradientUnits="userSpaceOnUse">
<stop stop-color="#A259FF"/>
<stop offset="1" stop-color="#613599"/>
</linearGradient>
<linearGradient id="paint1_linear_970_791" x1="81.9997" y1="153.999" x2="81.9997" y2="154.999" gradientUnits="userSpaceOnUse">
<stop stop-color="#A259FF"/>
<stop offset="1" stop-color="#613599"/>
</linearGradient>
<linearGradient id="paint2_linear_970_791" x1="82.2668" y1="41.3691" x2="82.2668" y2="128.998" gradientUnits="userSpaceOnUse">
<stop stop-color="#A259FF"/>
<stop offset="1" stop-color="#613599"/>
</linearGradient>
<linearGradient id="paint3_linear_970_791" x1="82" y1="129.246" x2="82" y2="151.153" gradientUnits="userSpaceOnUse">
<stop stop-color="#A259FF"/>
<stop offset="1" stop-color="#613599"/>
</linearGradient>
<linearGradient id="paint4_linear_970_791" x1="82" y1="129.246" x2="82" y2="151.153" gradientUnits="userSpaceOnUse">
<stop stop-color="#A259FF"/>
<stop offset="1" stop-color="#613599"/>
</linearGradient>
<linearGradient id="paint5_linear_970_791" x1="82" y1="163" x2="82" y2="193" gradientUnits="userSpaceOnUse">
<stop stop-color="#A259FF"/>
<stop offset="1" stop-color="#613599"/>
</linearGradient>
</defs>
</svg>
