<svg width="236" height="214" viewBox="0 0 236 214" fill="none" xmlns="http://www.w3.org/2000/svg">
<rect width="236" height="214" rx="10" fill="white"/>
<path d="M105.235 93.5462V71.3308C105.235 68.2762 107.965 65.7769 111.302 65.7769H138.605C141.942 65.7769 144.672 68.2762 144.672 71.3308V87.9923H134.267L130.384 83.1605C130.346 83.103 130.293 83.0554 130.229 83.0224C130.165 82.9893 130.093 82.972 130.02 82.972C129.946 82.972 129.874 82.9893 129.811 83.0224C129.747 83.0554 129.693 83.103 129.656 83.1605L123.619 90.7693C123.437 90.9359 123.073 90.9637 122.891 90.7693L118.553 85.9096C118.509 85.8638 118.456 85.827 118.396 85.8018C118.335 85.7766 118.27 85.7636 118.204 85.7636C118.138 85.7636 118.072 85.7766 118.012 85.8018C117.952 85.827 117.898 85.8638 117.855 85.9096L111.454 93.2963C111.211 93.5462 111.424 93.9627 111.788 93.9627H131.021V99.1001H111.302C107.935 99.1001 105.235 96.6286 105.235 93.5462ZM96.1344 118.539V115.762H90.0672V118.539H84V63H90.0672V65.7769H96.1344V63H103.385C100.806 65.0549 99.168 67.9985 99.168 71.3308V93.5462C99.168 99.6832 104.598 104.654 111.302 104.654H125.56C122.436 106.959 120.403 110.43 120.403 114.373C120.403 115.845 120.737 117.233 121.253 118.539H96.1344ZM90.0672 76.8846H96.1344V71.3308H90.0672V76.8846ZM90.0672 87.9923H96.1344V82.4385H90.0672V87.9923ZM90.0672 99.1001H96.1344V93.5462H90.0672V99.1001ZM96.1344 110.208V104.654H90.0672V110.208H96.1344ZM147.706 93.5462V99.1001H141.638V114.373C141.638 116.214 140.839 117.98 139.417 119.282C137.995 120.584 136.066 121.315 134.054 121.315C132.043 121.315 130.114 120.584 128.692 119.282C127.269 117.98 126.47 116.214 126.47 114.373C126.471 113.221 126.785 112.087 127.384 111.073C127.983 110.059 128.849 109.198 129.902 108.567C130.956 107.936 132.164 107.555 133.419 107.459C134.673 107.362 135.934 107.553 137.088 108.014V93.5462H147.706Z" fill="#DBBEFC"/>
<path d="M70.0879 139.02H68.9688V128.49H70.0879V139.02ZM64.4629 129.281C64.9863 129.281 65.4531 129.434 65.8633 129.738C66.2734 130.043 66.5938 130.473 66.8242 131.027C67.0547 131.582 67.1699 132.229 67.1699 132.967C67.1699 133.709 67.0547 134.357 66.8242 134.912C66.5938 135.467 66.2734 135.896 65.8633 136.201C65.4531 136.502 64.9863 136.652 64.4629 136.652C63.9395 136.652 63.4707 136.502 63.0566 136.201C62.6465 135.896 62.3262 135.467 62.0957 134.912C61.8652 134.357 61.75 133.709 61.75 132.967C61.75 132.229 61.8652 131.582 62.0957 131.027C62.3262 130.473 62.6465 130.043 63.0566 129.738C63.4707 129.434 63.9395 129.281 64.4629 129.281ZM64.4629 130.277C64.1426 130.277 63.8574 130.387 63.6074 130.605C63.3574 130.824 63.1641 131.137 63.0273 131.543C62.8945 131.945 62.8281 132.42 62.8281 132.967C62.8281 133.51 62.8945 133.984 63.0273 134.391C63.1641 134.797 63.3574 135.109 63.6074 135.328C63.8574 135.543 64.1426 135.65 64.4629 135.65C64.7832 135.65 65.0664 135.543 65.3125 135.328C65.5625 135.109 65.7559 134.797 65.8926 134.391C66.0293 133.984 66.0977 133.51 66.0977 132.967C66.0977 132.42 66.0293 131.945 65.8926 131.543C65.7559 131.137 65.5645 130.824 65.3184 130.605C65.0723 130.387 64.7871 130.277 64.4629 130.277ZM77.2715 136.4H72.3438V129.504H77.2715V136.4ZM73.4395 135.51H76.1816V130.383H73.4395V135.51ZM80.459 139.02H79.3398V128.49H80.459V139.02ZM85.7793 131.59C85.7793 132.344 85.6484 133.082 85.3867 133.805C85.125 134.523 84.7656 135.164 84.3086 135.727C83.8516 136.285 83.334 136.705 82.7559 136.986L82.0996 136.113C82.6191 135.863 83.0898 135.498 83.5117 135.018C83.9336 134.533 84.2637 133.992 84.502 133.395C84.7441 132.793 84.8652 132.191 84.8652 131.59V130.031H85.7793V131.59ZM85.9902 131.59C85.9902 132.168 86.1074 132.742 86.3418 133.312C86.5801 133.883 86.9102 134.391 87.332 134.836C87.7578 135.281 88.2363 135.619 88.7676 135.85L88.1523 136.723C87.5586 136.457 87.0293 136.062 86.5645 135.539C86.1035 135.016 85.7441 134.412 85.4863 133.729C85.2324 133.045 85.1055 132.332 85.1055 131.59V130.031H85.9902V131.59ZM88.3926 130.471H82.4688V129.557H88.3926V130.471ZM90.8301 138.99H89.7109V128.49H90.8301V138.99ZM102.098 134.168H92.4883V133.312H102.098V134.168ZM100.914 137.215H94.75V138.352H93.6367V136.477H99.8125V135.703H93.625V134.895H100.914V137.215ZM101.242 138.867H93.6367V138.082H101.242V138.867ZM100.885 131.039H94.8262V132.1H93.7246V130.301H99.7715V129.551H93.6953V128.766H100.885V131.039ZM101.072 132.621H93.7246V131.842H101.072V132.621ZM111.127 139.014H110.031V135.17H111.127V139.014ZM115.375 135.744H105.801V134.824H115.375V135.744ZM111.004 130.588C111.004 131.178 110.816 131.719 110.441 132.211C110.07 132.699 109.564 133.107 108.924 133.436C108.283 133.76 107.566 133.98 106.773 134.098L106.363 133.213C107.035 133.127 107.65 132.951 108.209 132.686C108.768 132.42 109.211 132.104 109.539 131.736C109.867 131.369 110.031 130.986 110.031 130.588V130.312H111.004V130.588ZM111.139 130.588C111.139 130.979 111.301 131.359 111.625 131.73C111.949 132.102 112.391 132.42 112.949 132.686C113.508 132.951 114.121 133.127 114.789 133.213L114.385 134.098C113.6 133.988 112.885 133.766 112.24 133.43C111.6 133.094 111.094 132.682 110.723 132.193C110.352 131.701 110.166 131.166 110.166 130.588V130.312H111.139V130.588ZM114.467 130.658H106.715V129.768H114.467V130.658ZM111.127 130.072H110.031V128.496H111.127V130.072ZM124.352 138.984H123.244V128.49H124.352V138.984ZM125.98 133.611H124.064V132.686H125.98V133.611ZM121.604 129.604C121.604 130.654 121.439 131.637 121.111 132.551C120.787 133.461 120.268 134.301 119.553 135.07C118.842 135.836 117.926 136.496 116.805 137.051L116.184 136.184C117.148 135.699 117.951 135.141 118.592 134.508C119.232 133.871 119.713 133.162 120.033 132.381C120.354 131.596 120.514 130.734 120.514 129.797V129.604H121.604ZM121.076 130.529H116.699V129.604H121.076V130.529ZM131.729 131.133H126.52V130.236H131.729V131.133ZM129.133 131.76C129.574 131.76 129.967 131.863 130.311 132.07C130.658 132.273 130.93 132.559 131.125 132.926C131.32 133.293 131.418 133.713 131.418 134.186C131.418 134.654 131.32 135.074 131.125 135.445C130.93 135.812 130.658 136.102 130.311 136.312C129.967 136.523 129.574 136.629 129.133 136.629C128.695 136.629 128.303 136.523 127.955 136.312C127.611 136.102 127.342 135.811 127.146 135.439C126.955 135.068 126.859 134.65 126.859 134.186C126.859 133.721 126.955 133.303 127.146 132.932C127.342 132.561 127.611 132.273 127.955 132.07C128.303 131.863 128.695 131.76 129.133 131.76ZM129.133 132.691C128.887 132.691 128.664 132.756 128.465 132.885C128.27 133.01 128.117 133.186 128.008 133.412C127.898 133.635 127.844 133.893 127.844 134.186C127.844 134.475 127.898 134.732 128.008 134.959C128.121 135.186 128.275 135.359 128.471 135.48C128.666 135.602 128.887 135.662 129.133 135.662C129.383 135.662 129.605 135.602 129.801 135.48C130 135.359 130.156 135.186 130.27 134.959C130.383 134.732 130.439 134.475 130.439 134.186C130.439 133.893 130.383 133.635 130.27 133.412C130.156 133.186 130 133.01 129.801 132.885C129.605 132.756 129.383 132.691 129.133 132.691ZM135.531 138.99H134.471V128.49H135.531V138.99ZM134.822 133.775H132.9V132.867H134.822V133.775ZM133.264 138.498H132.215V128.736H133.264V138.498ZM129.689 130.793H128.588V128.801H129.689V130.793ZM149.453 137.689H139.844V136.775H149.453V137.689ZM145.17 137.033H144.08V134.326H145.17V137.033ZM142.059 131.021H147.215V129.211H148.311V134.619H140.939V129.211H142.059V131.021ZM147.215 133.717V131.918H142.059V133.717H147.215ZM156.355 133.113H154.387V132.182H156.355V133.113ZM153.209 131.408C153.209 132.162 153.113 132.891 152.922 133.594C152.734 134.297 152.457 134.926 152.09 135.48C151.723 136.031 151.281 136.465 150.766 136.781L150.068 135.949C150.549 135.66 150.961 135.275 151.305 134.795C151.648 134.311 151.906 133.777 152.078 133.195C152.254 132.613 152.342 132.018 152.342 131.408V129.451H153.209V131.408ZM153.414 131.361C153.414 131.943 153.494 132.512 153.654 133.066C153.814 133.617 154.053 134.123 154.369 134.584C154.689 135.045 155.074 135.414 155.523 135.691L154.902 136.547C154.395 136.242 153.967 135.818 153.619 135.275C153.271 134.729 153.01 134.121 152.834 133.453C152.662 132.785 152.576 132.088 152.576 131.361V129.451H153.414V131.361ZM159.25 138.99H158.178V128.49H159.25V138.99ZM157.07 138.475H156.021V128.689H157.07V138.475ZM163.984 136.963H162.889V133.887H163.984V136.963ZM167.898 136.963H166.779V133.887H167.898V136.963ZM170.195 137.684H160.586V136.764H170.195V137.684ZM165.373 129.1C166.123 129.1 166.791 129.215 167.377 129.445C167.963 129.672 168.42 129.994 168.748 130.412C169.08 130.826 169.246 131.303 169.246 131.842C169.246 132.385 169.08 132.863 168.748 133.277C168.42 133.688 167.963 134.008 167.377 134.238C166.791 134.465 166.123 134.578 165.373 134.578C164.627 134.578 163.959 134.465 163.369 134.238C162.783 134.008 162.324 133.688 161.992 133.277C161.66 132.863 161.494 132.385 161.494 131.842C161.494 131.303 161.66 130.826 161.992 130.412C162.324 129.994 162.783 129.672 163.369 129.445C163.959 129.215 164.627 129.1 165.373 129.1ZM165.373 130.002C164.826 129.998 164.342 130.072 163.92 130.225C163.502 130.373 163.174 130.588 162.936 130.869C162.701 131.146 162.584 131.471 162.584 131.842C162.584 132.213 162.701 132.539 162.936 132.82C163.174 133.102 163.504 133.32 163.926 133.477C164.348 133.633 164.83 133.711 165.373 133.711C165.912 133.711 166.393 133.633 166.814 133.477C167.236 133.32 167.566 133.102 167.805 132.82C168.043 132.539 168.162 132.213 168.162 131.842C168.162 131.471 168.043 131.146 167.805 130.869C167.57 130.588 167.242 130.373 166.82 130.225C166.398 130.072 165.916 129.998 165.373 130.002ZM172.152 138.082C172.004 138.082 171.865 138.043 171.736 137.965C171.607 137.887 171.506 137.785 171.432 137.66C171.361 137.531 171.326 137.393 171.326 137.244C171.326 137.1 171.361 136.963 171.432 136.834C171.506 136.705 171.607 136.605 171.736 136.535C171.865 136.461 172.004 136.424 172.152 136.424C172.297 136.424 172.434 136.461 172.562 136.535C172.691 136.605 172.793 136.705 172.867 136.834C172.941 136.963 172.979 137.1 172.979 137.244C172.979 137.393 172.941 137.531 172.867 137.66C172.793 137.785 172.691 137.887 172.562 137.965C172.434 138.043 172.297 138.082 172.152 138.082Z" fill="#9C9C9C"/>
</svg>
