<svg width="18" height="19" viewBox="0 0 18 19" fill="none" xmlns="http://www.w3.org/2000/svg">
<path d="M15.9784 1.72261L11.7137 1.72263V0.601562C11.7137 0.290781 11.4754 0.0390625 11.1811 0.0390625C10.8869 0.0390625 10.6485 0.290781 10.6485 0.601562V1.72234H6.38762V0.601562C6.38762 0.290781 6.14927 0.0390625 5.85501 0.0390625C5.56074 0.0390625 5.32239 0.290781 5.32239 0.601562V1.72234H1.06522C0.476954 1.72234 0 2.22606 0 2.84734V16.9098C0 17.5311 0.476954 18.0348 1.06522 18.0348H15.9784C16.5666 18.0348 17.0436 17.5311 17.0436 16.9098V2.84734C17.0436 2.22633 16.5666 1.72261 15.9784 1.72261ZM15.9784 16.9098H1.06522V2.84734H5.32239V3.41406C5.32239 3.72483 5.56074 3.97656 5.85501 3.97656C6.14927 3.97656 6.38762 3.72483 6.38762 3.41406V2.84763H10.6485V3.41434C10.6485 3.72512 10.8869 3.97684 11.1811 3.97684C11.4754 3.97684 11.7137 3.72512 11.7137 3.41434V2.84763H15.9784V16.9098ZM12.2501 9.03511H13.3153C13.6093 9.03511 13.8479 8.78311 13.8479 8.47261V7.34761C13.8479 7.03711 13.6093 6.78511 13.3153 6.78511H12.2501C11.9561 6.78511 11.7175 7.03711 11.7175 7.34761V8.47261C11.7175 8.78311 11.9561 9.03511 12.2501 9.03511ZM12.2501 13.5348H13.3153C13.6093 13.5348 13.8479 13.2831 13.8479 12.9723V11.8473C13.8479 11.5368 13.6093 11.2848 13.3153 11.2848H12.2501C11.9561 11.2848 11.7175 11.5368 11.7175 11.8473V12.9723C11.7175 13.2834 11.9561 13.5348 12.2501 13.5348ZM9.05441 11.2848H7.98918C7.69518 11.2848 7.45657 11.5368 7.45657 11.8473V12.9723C7.45657 13.2831 7.69518 13.5348 7.98918 13.5348H9.05441C9.34841 13.5348 9.58702 13.2831 9.58702 12.9723V11.8473C9.58702 11.5371 9.34841 11.2848 9.05441 11.2848ZM9.05441 6.78511H7.98918C7.69518 6.78511 7.45657 7.03711 7.45657 7.34761V8.47261C7.45657 8.78311 7.69518 9.03511 7.98918 9.03511H9.05441C9.34841 9.03511 9.58702 8.78311 9.58702 8.47261V7.34761C9.58702 7.03683 9.34841 6.78511 9.05441 6.78511ZM4.79351 6.78511H3.72829C3.43428 6.78511 3.19567 7.03711 3.19567 7.34761V8.47261C3.19567 8.78311 3.43428 9.03511 3.72829 9.03511H4.79351C5.08751 9.03511 5.32612 8.78311 5.32612 8.47261V7.34761C5.32612 7.03683 5.08751 6.78511 4.79351 6.78511ZM4.79351 11.2848H3.72829C3.43428 11.2848 3.19567 11.5368 3.19567 11.8473V12.9723C3.19567 13.2831 3.43428 13.5348 3.72829 13.5348H4.79351C5.08751 13.5348 5.32612 13.2831 5.32612 12.9723V11.8473C5.32612 11.5371 5.08751 11.2848 4.79351 11.2848Z" fill="#3D3A3A"/>
</svg>
