<svg width="8" height="7" viewBox="0 0 8 7" fill="none" xmlns="http://www.w3.org/2000/svg">
<path d="M1.07485 0.136371C1.11797 0.0931435 1.16919 0.0588468 1.22558 0.0354459C1.28198 0.012045 1.34243 0 1.40349 0C1.46455 0 1.525 0.012045 1.5814 0.0354459C1.63779 0.0588468 1.68901 0.0931435 1.73213 0.136371L4.1886 2.59376L6.64506 0.136371C6.68822 0.0932134 6.73946 0.0589786 6.79585 0.0356216C6.85223 0.0122647 6.91267 0.000243032 6.97371 0.000243032C7.03474 0.000243032 7.09518 0.0122647 7.15157 0.0356216C7.20795 0.0589786 7.25919 0.0932134 7.30235 0.136371C7.34551 0.179529 7.37974 0.230765 7.4031 0.287154C7.42646 0.343542 7.43848 0.40398 7.43848 0.465014C7.43848 0.526049 7.42646 0.586486 7.4031 0.642875C7.37974 0.699263 7.34551 0.750499 7.30235 0.793657L4.84496 3.25012L7.30235 5.70659C7.34551 5.74974 7.37974 5.80098 7.4031 5.85737C7.42646 5.91376 7.43848 5.97419 7.43848 6.03523C7.43848 6.09626 7.42646 6.1567 7.4031 6.21309C7.37974 6.26948 7.34551 6.32071 7.30235 6.36387C7.25919 6.40703 7.20795 6.44126 7.15157 6.46462C7.09518 6.48798 7.03474 6.5 6.97371 6.5C6.91267 6.5 6.85223 6.48798 6.79585 6.46462C6.73946 6.44126 6.68822 6.40703 6.64506 6.36387L4.1886 3.90648L1.73213 6.36387C1.68898 6.40703 1.63774 6.44126 1.58135 6.46462C1.52496 6.48798 1.46453 6.5 1.40349 6.5C1.34246 6.5 1.28202 6.48798 1.22563 6.46462C1.16924 6.44126 1.11801 6.40703 1.07485 6.36387C1.03169 6.32071 0.997455 6.26948 0.974098 6.21309C0.950741 6.1567 0.93872 6.09626 0.93872 6.03523C0.93872 5.97419 0.950741 5.91376 0.974098 5.85737C0.997455 5.80098 1.03169 5.74974 1.07485 5.70659L3.53224 3.25012L1.07485 0.793657C1.03162 0.750538 0.997323 0.699315 0.973922 0.642921C0.950522 0.586527 0.938477 0.52607 0.938477 0.465014C0.938477 0.403958 0.950522 0.343501 0.973922 0.287107C0.997323 0.230713 1.03162 0.17949 1.07485 0.136371Z" fill="#3D3A3A"/>
</svg>
