<svg width="73" height="33" viewBox="0 0 73 33" fill="none" xmlns="http://www.w3.org/2000/svg">
<rect x="0.5" y="0.5" width="72" height="32" rx="16" fill="white" stroke="#A259FF"/>
<rect x="7" y="5" width="23" height="23" rx="11.5" fill="#A259FF"/>
<path d="M63.15 15.8192H62.317C61.847 15.8192 61.467 16.1243 61.467 16.5C61.467 16.8749 61.847 17.1791 62.317 17.1791H63.15C63.6192 17.1791 64 16.8757 64 16.5C64 16.1251 63.6183 15.8192 63.15 15.8192ZM55.5 11.825C54.8855 11.8231 54.2768 11.9427 53.7087 12.177C53.1406 12.4112 52.6245 12.7555 52.19 13.19C51.7555 13.6245 51.4112 14.1406 51.177 14.7087C50.9427 15.2768 50.8231 15.8855 50.825 16.5C50.825 19.0934 52.9066 21.175 55.5 21.175C58.0925 21.175 60.175 19.0934 60.175 16.5C60.175 13.9066 58.0917 11.825 55.5 11.825ZM55.5 19.9C53.6206 19.9 52.1 18.3777 52.1 16.5C52.1 14.6206 53.6206 13.1 55.5 13.1C56.4017 13.1 57.2665 13.4582 57.9042 14.0958C58.5418 14.7335 58.9 15.5983 58.9 16.5C58.9 17.4017 58.5418 18.2665 57.9042 18.9042C57.2665 19.5418 56.4017 19.9 55.5 19.9ZM49.55 16.5C49.55 16.1251 49.1684 15.8192 48.7 15.8192H47.85C47.38 15.8192 47 16.1243 47 16.5C47 16.8749 47.38 17.1791 47.85 17.1791H48.7C49.1684 17.1791 49.55 16.8749 49.55 16.5ZM55.5 10.55C55.8749 10.55 56.1791 10.1701 56.1791 9.7V8.85C56.1791 8.37995 55.8749 8 55.5 8C55.1243 8 54.8192 8.37995 54.8192 8.85V9.7C54.8192 10.1701 55.1243 10.55 55.5 10.55ZM55.5 22.45C55.1243 22.45 54.8192 22.83 54.8192 23.3V24.15C54.8192 24.62 55.1243 25 55.5 25C55.8749 25 56.1791 24.62 56.1791 24.15V23.3C56.1791 22.83 55.8749 22.45 55.5 22.45ZM61.7603 11.2011C62.0926 10.8688 62.1461 10.3843 61.8809 10.1191C61.6157 9.85385 61.1304 9.90825 60.7998 10.2406L60.2048 10.8348C59.8724 11.1671 59.8189 11.6516 60.0841 11.9168C60.3493 12.182 60.8346 12.1276 61.1661 11.7953L61.7603 11.2011ZM49.8339 21.2031L49.2389 21.7989C48.9066 22.1312 48.853 22.614 49.1182 22.8792C49.3834 23.1444 49.8687 23.0918 50.1994 22.7594L50.7944 22.1653C51.1268 21.8329 51.1803 21.3484 50.9151 21.0823C50.6499 20.8163 50.1646 20.8724 49.8339 21.2031ZM50.2003 10.2398C49.8688 9.9074 49.3834 9.853 49.1182 10.1182C48.853 10.3834 48.9074 10.8688 49.238 11.2011L49.8331 11.7953C50.1654 12.1276 50.6491 12.182 50.9143 11.9168C51.1795 11.6516 51.1259 11.1663 50.7944 10.8348L50.2003 10.2398ZM60.2039 22.1661L60.7989 22.7603C61.1312 23.0926 61.6149 23.1453 61.8801 22.8818C62.1453 22.6166 62.0918 22.1313 61.7594 21.7998L61.1653 21.2056C60.8329 20.8733 60.3484 20.8189 60.0823 21.0841C59.8163 21.3493 59.8716 21.8338 60.2039 22.1661Z" fill="#A259FF"/>
</svg>
