<svg width="359" height="130" viewBox="0 0 359 130" fill="none" xmlns="http://www.w3.org/2000/svg">
<path d="M0 15C0 6.71573 6.71573 0 15 0H344C352.284 0 359 6.71573 359 15V115C359 123.284 352.284 130 344 130H15C6.71573 130 0 123.284 0 115V15Z" fill="url(#paint0_linear_183_64)" fill-opacity="0.5"/>
<path d="M37.5465 23.2234C37.8312 23.4343 38 23.7717 38 24.1268V35.938C38 37.4918 36.4883 38.7502 34.625 38.7502C32.7617 38.7502 31.25 37.4918 31.25 35.938C31.25 34.3843 32.7617 33.1258 34.625 33.1258C35.0188 33.1258 35.3984 33.1821 35.75 33.2875V28.1693L26.75 30.869V38.1878C26.75 39.7415 25.2383 41 23.375 41C21.5117 41 20 39.7415 20 38.1878C20 36.6341 21.5117 35.3756 23.375 35.3756C23.7687 35.3756 24.1484 35.4318 24.5 35.5373V27.5014C24.5 27.0058 24.827 26.5664 25.3016 26.4222L36.5516 23.0476C36.8926 22.9457 37.2617 23.0089 37.5465 23.2234Z" fill="#A259FF"/>
<defs>
<linearGradient id="paint0_linear_183_64" x1="182.245" y1="-4.62222" x2="182.245" y2="125.378" gradientUnits="userSpaceOnUse">
<stop stop-color="#343434"/>
<stop offset="0.25" stop-color="#4E4E4E"/>
<stop offset="0.5" stop-color="#676767"/>
<stop offset="1" stop-color="#9A9A9A"/>
</linearGradient>
</defs>
</svg>
