<svg width="20" height="19" viewBox="0 0 20 19" fill="none" xmlns="http://www.w3.org/2000/svg">
<g id="wpf:past">
<path id="Vector" d="M9.51141 0L5.85321 2.19231L9.51141 4.38462V2.92308C13.1367 2.92308 16.0962 5.87904 16.0962 9.5C16.0962 13.121 13.1367 16.0769 9.51141 16.0769C5.88614 16.0769 2.92666 13.121 2.92666 9.5C2.92666 7.70742 3.57269 6.16038 4.75575 4.978L3.72707 3.95127C2.2755 5.40038 1.46338 7.34642 1.46338 9.5C1.46338 13.9175 5.08865 17.5385 9.51141 17.5385C13.9342 17.5385 17.5594 13.9175 17.5594 9.5C17.5594 5.0825 13.9342 1.46154 9.51141 1.46154V0ZM7.97936 4.79604L6.65363 5.43546L8.50541 9.08931C8.44933 9.21924 8.4183 9.35857 8.41395 9.5V9.54604L6.0588 11.8969L7.11163 12.9492L9.46678 10.5969H9.51141C9.80247 10.5969 10.0816 10.4814 10.2874 10.2758C10.4932 10.0703 10.6089 9.79145 10.6089 9.50073C10.6089 8.9965 10.273 8.57777 9.80846 8.44988L7.97936 4.79604Z" fill="white"/>
</g>
</svg>
