<svg width="11" height="11" viewBox="0 0 11 11" fill="none" xmlns="http://www.w3.org/2000/svg">
<g id="icon-edit" clip-path="url(#clip0_296_404)">
<path id="Vector" d="M1.83317 10.9998C1.58109 10.9998 1.36537 10.9102 1.186 10.7308C1.00664 10.5514 0.91681 10.3356 0.916505 10.0832C0.916199 9.83078 1.00603 9.61506 1.186 9.436C1.36598 9.25695 1.5817 9.16712 1.83317 9.1665H9.1665C9.41859 9.1665 9.63446 9.25634 9.81413 9.436C9.9938 9.61567 10.0835 9.83139 10.0832 10.0832C10.0829 10.3349 9.99319 10.5508 9.81413 10.7308C9.63507 10.9108 9.4192 11.0004 9.1665 10.9998H1.83317ZM2.74984 7.33317H3.3915L6.9665 3.76963L6.63421 3.43734L6.31338 3.1165L2.74984 6.6915V7.33317ZM1.83317 7.7915V6.49671C1.83317 6.4356 1.84463 6.37648 1.86755 6.31934C1.89046 6.2622 1.92484 6.21056 1.97067 6.16442L6.9665 1.18005C7.05053 1.09602 7.148 1.03109 7.25892 0.985254C7.36984 0.939421 7.48625 0.916504 7.60817 0.916504C7.73009 0.916504 7.84849 0.939421 7.96338 0.985254C8.07827 1.03109 8.18139 1.09984 8.27275 1.1915L8.90296 1.83317C8.99463 1.9172 9.06139 2.0165 9.10325 2.13109C9.14511 2.24567 9.1662 2.36407 9.1665 2.4863C9.1665 2.60088 9.14542 2.71363 9.10325 2.82455C9.06109 2.93546 8.99432 3.0366 8.90296 3.12796L3.91859 8.11234C3.87275 8.15817 3.82127 8.19255 3.76413 8.21546C3.70699 8.23838 3.64771 8.24984 3.5863 8.24984H2.2915C2.16164 8.24984 2.05287 8.20584 1.96517 8.11784C1.87748 8.02984 1.83348 7.92106 1.83317 7.7915ZM6.9665 3.76963L6.63421 3.43734L6.31338 3.1165L6.9665 3.76963Z" fill="#AD4EF9"/>
</g>
<defs>
<clipPath id="clip0_296_404">
<rect width="11" height="11" fill="white"/>
</clipPath>
</defs>
</svg>