<svg width="55" height="57" viewBox="0 0 55 57" fill="none" xmlns="http://www.w3.org/2000/svg">
<g id="hugeicons:idea-01" clip-path="url(#clip0_196_127)">
<path id="Vector" d="M1.375 27.0415H6.875M27.0417 2.2915V6.4165M46.2713 27.0415H51.7917M7.81204 7.81187L12.7019 11.4582M46.2713 7.81187L42.1667 11.4582M20.131 42.0647H33.9523M18.0278 39.06C15.5053 37.1682 13.642 34.5306 12.7019 31.5209C11.7617 28.5112 11.7924 25.2821 12.7895 22.2908C13.7866 19.2995 15.6996 16.6977 18.2575 14.8541C20.8154 13.0104 23.8886 12.0184 27.0417 12.0184C30.1948 12.0184 33.2679 13.0104 35.8259 14.8541C38.3838 16.6977 40.2968 19.2995 41.2939 22.2908C42.291 25.2821 42.3216 28.5112 41.3815 31.5209C40.4413 34.5306 38.578 37.1682 36.0556 39.06C34.8825 40.2213 33.9992 41.6423 33.4772 43.2083C32.9552 44.7742 32.8092 46.4411 33.0509 48.0739C33.0509 49.6677 32.4178 51.1961 31.2909 52.3231C30.1639 53.4501 28.6354 54.0832 27.0417 54.0832C25.4479 54.0832 23.9194 53.4501 22.7925 52.3231C21.6655 51.1961 21.0324 49.6677 21.0324 48.0739C21.2741 46.4411 21.1281 44.7742 20.6061 43.2083C20.0842 41.6423 19.2009 40.2213 18.0278 39.06Z" stroke="#9747FF" stroke-width="3" stroke-linecap="round" stroke-linejoin="round"/>
</g>
<defs>
<clipPath id="clip0_196_127">
<rect width="55" height="56.8333" fill="white"/>
</clipPath>
</defs>
</svg>