<svg width="153" height="27" viewBox="0 0 153 27" fill="none" xmlns="http://www.w3.org/2000/svg">
<rect x="0.5" y="0.5" width="141" height="24" rx="9.5" fill="black" stroke="#A259FF"/>
<path d="M49.7129 18.0137H48.6172V14.1699H49.7129V18.0137ZM53.9609 14.7441H44.3867V13.8242H53.9609V14.7441ZM49.5898 9.58789C49.5898 10.1777 49.4023 10.7188 49.0273 11.2109C48.6562 11.6992 48.1504 12.1074 47.5098 12.4355C46.8691 12.7598 46.1523 12.9805 45.3594 13.0977L44.9492 12.2129C45.6211 12.127 46.2363 11.9512 46.7949 11.6855C47.3535 11.4199 47.7969 11.1035 48.125 10.7363C48.4531 10.3691 48.6172 9.98633 48.6172 9.58789V9.3125H49.5898V9.58789ZM49.7246 9.58789C49.7246 9.97852 49.8867 10.3594 50.2109 10.7305C50.5352 11.1016 50.9766 11.4199 51.5352 11.6855C52.0938 11.9512 52.707 12.127 53.375 12.2129L52.9707 13.0977C52.1855 12.9883 51.4707 12.7656 50.8262 12.4297C50.1855 12.0938 49.6797 11.6816 49.3086 11.1934C48.9375 10.7012 48.752 10.166 48.752 9.58789V9.3125H49.7246V9.58789ZM53.0527 9.6582H45.3008V8.76758H53.0527V9.6582ZM49.7129 9.07227H48.6172V7.49609H49.7129V9.07227ZM58.25 9.99219C58.25 10.625 58.1309 11.2148 57.8926 11.7617C57.6543 12.3047 57.3145 12.7773 56.873 13.1797C56.4316 13.582 55.9082 13.8848 55.3027 14.0879L54.7578 13.2207C55.2812 13.0488 55.7383 12.7988 56.1289 12.4707C56.5234 12.1426 56.8223 11.7656 57.0254 11.3398C57.2324 10.9102 57.3359 10.4609 57.3359 9.99219V9.48828H58.25V9.99219ZM58.4316 9.99219C58.4316 10.4336 58.5371 10.8555 58.748 11.2578C58.9629 11.6562 59.2656 12.0098 59.6562 12.3184C60.0508 12.627 60.5117 12.8652 61.0391 13.0332L60.4941 13.9121C59.8926 13.7246 59.3691 13.4375 58.9238 13.0508C58.4785 12.6641 58.1348 12.209 57.8926 11.6855C57.6504 11.1582 57.5293 10.5938 57.5293 9.99219V9.48828H58.4316V9.99219ZM60.7227 9.74023H55.0508V8.84961H60.7227V9.74023ZM58.4551 9.19531H57.3359V7.56055H58.4551V9.19531ZM62.9727 11.5859H60.3652V10.6836H62.9727V11.5859ZM63.5117 15.3242H62.3984V7.50195H63.5117V15.3242ZM63.793 17.7852H56.6914V16.8652H63.793V17.7852ZM57.8105 17.3926H56.6914V14.6328H57.8105V17.3926ZM73.1211 8.83789H66.3301V7.94141H73.1211V8.83789ZM74.7383 12.2363H65.1289V11.3516H74.7383V12.2363ZM73.5195 8.62695C73.5195 9.16211 73.5039 9.6543 73.4727 10.1035C73.4414 10.5488 73.3633 11.0527 73.2383 11.6152L72.1426 11.498C72.2598 10.9473 72.334 10.4609 72.3652 10.0391C72.3965 9.61328 72.4121 9.14258 72.4121 8.62695V7.94141H73.5195V8.62695ZM73.5312 15.9336H67.3789V17.2871H66.2656V15.0723H72.4238V14.0645H66.2539V13.1914H73.5312V15.9336ZM73.8008 17.8848H66.2656V17H73.8008V17.8848ZM81.8867 9.37695C81.8867 10.0176 81.7676 10.6211 81.5293 11.1875C81.2949 11.75 80.957 12.2383 80.5156 12.6523C80.0742 13.0664 79.5508 13.3809 78.9453 13.5957L78.3535 12.7344C78.8887 12.5469 79.3535 12.2812 79.748 11.9375C80.1465 11.5938 80.4531 11.2012 80.668 10.7598C80.8828 10.3145 80.9902 9.85352 80.9902 9.37695V8.57422H81.8867V9.37695ZM82.0918 9.37695C82.0918 9.82617 82.1934 10.2598 82.3965 10.6777C82.5996 11.0918 82.8906 11.4609 83.2695 11.7852C83.6523 12.1094 84.1055 12.3613 84.6289 12.541L84.0664 13.4023C83.4727 13.1953 82.959 12.8926 82.5254 12.4941C82.0918 12.0918 81.7598 11.625 81.5293 11.0938C81.3027 10.5586 81.1895 9.98633 81.1895 9.37695V8.57422H82.0918V9.37695ZM84.3652 9.08984H78.6758V8.19336H84.3652V9.08984ZM86.6797 13.8242H85.5723V7.49023H86.6797V13.8242ZM88.209 11.1289H86.3691V10.1914H88.209V11.1289ZM86.6797 17.9902H85.5723V15.2422H79.7422V14.3457H86.6797V17.9902ZM92.3281 9.11914C92.3281 9.80273 92.209 10.4395 91.9707 11.0293C91.7363 11.6152 91.3965 12.127 90.9512 12.5645C90.5059 12.998 89.9766 13.3301 89.3633 13.5605L88.7598 12.6582C89.3105 12.4707 89.7871 12.1992 90.1895 11.8438C90.5918 11.4883 90.8984 11.0762 91.1094 10.6074C91.3203 10.1387 91.4258 9.64258 91.4258 9.11914V8.07617H92.3281V9.11914ZM92.5332 9.06641C92.5332 9.55469 92.6328 10.0195 92.832 10.4609C93.0352 10.9023 93.3281 11.2891 93.7109 11.6211C94.0938 11.9492 94.5469 12.1992 95.0703 12.3711L94.4551 13.2383C93.8691 13.0234 93.3652 12.7129 92.9434 12.3066C92.5215 11.9004 92.1953 11.4219 91.9648 10.8711C91.7383 10.3164 91.625 9.71484 91.625 9.06641V8.07617H92.5332V9.06641ZM97.5547 13.6895H96.4414V7.49023H97.5547V13.6895ZM94.0332 13.9883C94.7715 13.9883 95.4062 14.0664 95.9375 14.2227C96.4727 14.375 96.8809 14.6035 97.1621 14.9082C97.4473 15.209 97.5898 15.5703 97.5898 15.9922C97.5898 16.4062 97.4473 16.7617 97.1621 17.0586C96.8809 17.3594 96.4727 17.5879 95.9375 17.7441C95.4062 17.9004 94.7715 17.9785 94.0332 17.9785C93.3027 17.9785 92.6719 17.9004 92.1406 17.7441C91.6094 17.5879 91.2012 17.3594 90.916 17.0586C90.6309 16.7617 90.4883 16.4062 90.4883 15.9922C90.4883 15.5703 90.6309 15.209 90.916 14.9082C91.2012 14.6035 91.6094 14.375 92.1406 14.2227C92.6719 14.0664 93.3027 13.9883 94.0332 13.9883ZM94.0332 14.8555C93.5293 14.8555 93.0918 14.9004 92.7207 14.9902C92.3535 15.0762 92.0723 15.2051 91.877 15.377C91.6855 15.5449 91.5898 15.75 91.5898 15.9922C91.5898 16.2188 91.6855 16.416 91.877 16.584C92.0723 16.748 92.3535 16.875 92.7207 16.9648C93.0918 17.0547 93.5293 17.0996 94.0332 17.0996C94.5488 17.0996 94.9883 17.0547 95.3516 16.9648C95.7188 16.875 95.998 16.748 96.1895 16.584C96.3848 16.416 96.4824 16.2188 96.4824 15.9922C96.4824 15.75 96.3848 15.5449 96.1895 15.377C95.998 15.2051 95.7188 15.0762 95.3516 14.9902C94.9883 14.9004 94.5488 14.8555 94.0332 14.8555ZM96.6406 10.5488H94.2266V9.63477H96.6406V10.5488ZM107.352 17.9902H106.25V7.49023H107.352V17.9902ZM109.045 12.6699H107.1V11.75H109.045V12.6699ZM105.336 10.0449H99.1133V9.13672H105.336V10.0449ZM102.271 10.8242C102.771 10.8242 103.219 10.9277 103.613 11.1348C104.012 11.3418 104.322 11.6309 104.545 12.002C104.771 12.373 104.885 12.793 104.885 13.2617C104.885 13.7344 104.771 14.1562 104.545 14.5273C104.322 14.8984 104.012 15.1875 103.613 15.3945C103.219 15.6016 102.771 15.7051 102.271 15.7051C101.768 15.7051 101.318 15.6016 100.924 15.3945C100.529 15.1875 100.219 14.8984 99.9922 14.5273C99.7695 14.1562 99.6582 13.7344 99.6582 13.2617C99.6582 12.793 99.7695 12.373 99.9922 12.002C100.219 11.6309 100.529 11.3418 100.924 11.1348C101.318 10.9277 101.768 10.8242 102.271 10.8242ZM102.271 11.7441C101.975 11.7441 101.709 11.8086 101.475 11.9375C101.24 12.0625 101.055 12.2402 100.918 12.4707C100.785 12.7012 100.719 12.9648 100.719 13.2617C100.719 13.5625 100.785 13.8262 100.918 14.0527C101.055 14.2793 101.24 14.457 101.475 14.5859C101.709 14.7109 101.975 14.7734 102.271 14.7734C102.568 14.7734 102.834 14.7109 103.068 14.5859C103.303 14.457 103.486 14.2793 103.619 14.0527C103.752 13.8262 103.818 13.5625 103.818 13.2617C103.818 12.9648 103.752 12.7012 103.619 12.4707C103.486 12.2402 103.303 12.0625 103.068 11.9375C102.834 11.8086 102.568 11.7441 102.271 11.7441ZM102.816 9.52344H101.709V7.63086H102.816V9.52344ZM118.273 17.9902H117.148V7.49023H118.273V17.9902ZM115.156 8.62109C115.156 9.69141 114.99 10.6816 114.658 11.5918C114.33 12.498 113.803 13.334 113.076 14.0996C112.35 14.8613 111.404 15.5215 110.24 16.0801L109.643 15.1777C110.654 14.7012 111.484 14.1465 112.133 13.5137C112.785 12.8809 113.268 12.1738 113.58 11.3926C113.893 10.6113 114.049 9.74805 114.049 8.80273V8.62109H115.156ZM114.529 9.51172H110.152V8.62109H114.529V9.51172Z" fill="#A259FF"/>
<g filter="url(#filter0_d_812_148)">
<path d="M28.718 15.4005L29.8626 15.0703L36.7546 8.09624C36.8089 8.04053 36.8392 7.96568 36.8388 7.88785C36.8385 7.81002 36.8075 7.73545 36.7526 7.68026L36.3399 7.26299C36.3132 7.23558 36.2813 7.21376 36.2462 7.19881C36.211 7.18385 36.1731 7.17605 36.1349 7.17587C36.0967 7.17569 36.0588 7.18313 36.0234 7.19775C35.9881 7.21237 35.956 7.23389 35.9291 7.26104L29.0553 14.2169L28.718 15.4005ZM37.1569 6.43624L37.5697 6.85416C38.1391 7.43068 38.1443 8.36077 37.5801 8.93144L30.4782 16.1187L28.0316 16.8233C27.8822 16.8651 27.7224 16.8459 27.5871 16.77C27.4518 16.6941 27.3522 16.5676 27.3101 16.4184C27.2788 16.311 27.2783 16.197 27.3088 16.0895L28.0205 13.5936L35.1036 6.42519C35.2383 6.28958 35.3986 6.18214 35.5753 6.10914C35.7519 6.03615 35.9413 5.99905 36.1324 6.00002C36.3236 6.00099 36.5126 6.04 36.6885 6.11478C36.8644 6.18956 37.0236 6.29927 37.1569 6.43624ZM29.6696 7.18564C29.992 7.18564 30.2533 7.45018 30.2533 7.77646C30.2538 7.85359 30.2391 7.93006 30.21 8.00151C30.181 8.07295 30.1381 8.13797 30.0839 8.19284C30.0297 8.24771 29.9652 8.29136 29.8941 8.32129C29.823 8.35122 29.7467 8.36685 29.6696 8.36727H27.3348C26.69 8.36727 26.1674 8.89634 26.1674 9.54825V16.6367C26.1674 17.2893 26.69 17.8184 27.3348 17.8184H34.3392C34.984 17.8184 35.5072 17.2893 35.5072 16.6367V14.2741C35.5072 13.9478 35.7685 13.6833 36.0909 13.6833C36.4133 13.6833 36.6746 13.9478 36.6746 14.2748V16.6367C36.6746 17.9419 35.6288 19 34.3392 19H27.3348C26.0452 19 25 17.9419 25 16.6367V9.54825C25 8.24378 26.0452 7.18564 27.3348 7.18564H29.6696Z" fill="#A259FF"/>
</g>
<defs>
<filter id="filter0_d_812_148" x="21" y="6" width="21" height="21" filterUnits="userSpaceOnUse" color-interpolation-filters="sRGB">
<feFlood flood-opacity="0" result="BackgroundImageFix"/>
<feColorMatrix in="SourceAlpha" type="matrix" values="0 0 0 0 0 0 0 0 0 0 0 0 0 0 0 0 0 0 127 0" result="hardAlpha"/>
<feOffset dy="4"/>
<feGaussianBlur stdDeviation="2"/>
<feComposite in2="hardAlpha" operator="out"/>
<feColorMatrix type="matrix" values="0 0 0 0 0 0 0 0 0 0 0 0 0 0 0 0 0 0 0.25 0"/>
<feBlend mode="normal" in2="BackgroundImageFix" result="effect1_dropShadow_812_148"/>
<feBlend mode="normal" in="SourceGraphic" in2="effect1_dropShadow_812_148" result="shape"/>
</filter>
</defs>
</svg>
