<svg width="64" height="22" viewBox="0 0 64 22" fill="none" xmlns="http://www.w3.org/2000/svg">
<rect width="63.0874" height="22" rx="8" fill="#6F4F98"/>
<path d="M24.2676 12.5635C24.9121 12.5635 25.4671 12.6286 25.9326 12.7588C26.4014 12.8857 26.7627 13.0745 27.0166 13.3252C27.2738 13.5726 27.4023 13.8688 27.4023 14.2139C27.4023 14.5524 27.2738 14.8438 27.0166 15.0879C26.7627 15.3353 26.3997 15.5241 25.9277 15.6543C25.459 15.7878 24.9056 15.8545 24.2676 15.8545C23.6393 15.8545 23.0892 15.7878 22.6172 15.6543C22.1484 15.5241 21.7855 15.3353 21.5283 15.0879C21.2744 14.8438 21.1475 14.5524 21.1475 14.2139C21.1475 13.8721 21.2744 13.5758 21.5283 13.3252C21.7855 13.0745 22.1484 12.8857 22.6172 12.7588C23.0859 12.6286 23.6361 12.5635 24.2676 12.5635ZM24.2676 13.374C23.8444 13.374 23.4798 13.4066 23.1738 13.4717C22.8678 13.5368 22.6335 13.6328 22.4707 13.7598C22.3112 13.8867 22.2314 14.0381 22.2314 14.2139C22.2314 14.3864 22.3112 14.5329 22.4707 14.6533C22.6335 14.7738 22.8678 14.8665 23.1738 14.9316C23.4798 14.9935 23.8444 15.0244 24.2676 15.0244C24.7005 15.0244 25.0684 14.9935 25.3711 14.9316C25.6771 14.8665 25.9115 14.7738 26.0742 14.6533C26.2402 14.5296 26.3232 14.3831 26.3232 14.2139C26.3232 14.0381 26.2402 13.8867 26.0742 13.7598C25.9115 13.6328 25.6771 13.5368 25.3711 13.4717C25.0684 13.4066 24.7005 13.374 24.2676 13.374ZM26.8896 8.32031H21.2305V7.46094H26.8896V8.32031ZM28.3252 11.9189H20.3076V11.04H28.3252V11.9189ZM24.4873 11.2891H23.4131V9.44336H24.4873V11.2891ZM27.3535 8.18848C27.3535 8.66374 27.3389 9.07389 27.3096 9.41895C27.2835 9.764 27.2135 10.1383 27.0996 10.542L26.0303 10.4346C26.1344 10.0244 26.1979 9.66146 26.2207 9.3457C26.2467 9.02995 26.2614 8.64421 26.2646 8.18848V7.46094H27.3535V8.18848ZM31.9678 15.8594H30.8545V12.5684H31.9678V15.8594ZM35.0244 15.8594H33.9258V12.5684H35.0244V15.8594ZM36.9971 12.8711H28.9307V11.9922H36.9971V12.8711ZM32.9395 7.3584C33.5645 7.3584 34.1162 7.43815 34.5947 7.59766C35.0765 7.75716 35.4508 7.98665 35.7178 8.28613C35.9847 8.58236 36.1182 8.92904 36.1182 9.32617C36.1182 9.71354 35.9847 10.0537 35.7178 10.3467C35.4508 10.6364 35.0765 10.861 34.5947 11.0205C34.1162 11.1768 33.5645 11.2565 32.9395 11.2598C32.3145 11.2565 31.7627 11.1768 31.2842 11.0205C30.8089 10.861 30.4378 10.6364 30.1709 10.3467C29.904 10.0537 29.7705 9.71354 29.7705 9.32617C29.7705 8.92904 29.9023 8.58236 30.166 8.28613C30.4297 7.98665 30.8024 7.75716 31.2842 7.59766C31.766 7.43815 32.3177 7.3584 32.9395 7.3584ZM32.9395 8.22754C32.526 8.22754 32.1647 8.27148 31.8555 8.35938C31.5462 8.44727 31.3086 8.57422 31.1426 8.74023C30.9766 8.90299 30.8936 9.09831 30.8936 9.32617C30.8936 9.54753 30.9766 9.73958 31.1426 9.90234C31.3086 10.0618 31.5462 10.1839 31.8555 10.2686C32.1647 10.3532 32.526 10.3955 32.9395 10.3955C33.3561 10.3955 33.7191 10.3532 34.0283 10.2686C34.3408 10.1839 34.5801 10.0618 34.7461 9.90234C34.9154 9.73958 35 9.54753 35 9.32617C35 9.09831 34.9154 8.90299 34.7461 8.74023C34.5801 8.57422 34.3408 8.44727 34.0283 8.35938C33.7191 8.27148 33.3561 8.22754 32.9395 8.22754ZM44.4922 15.8594H43.418V7.04102H44.4922V15.8594ZM45.8545 11.4551H44.248V10.5615H45.8545V11.4551ZM42.7344 9.26758H37.5342V8.39355H42.7344V9.26758ZM40.1611 9.83887C40.5876 9.83887 40.9684 9.92839 41.3037 10.1074C41.6423 10.2832 41.9076 10.529 42.0996 10.8447C42.2917 11.1605 42.3877 11.5186 42.3877 11.9189C42.3877 12.3161 42.2917 12.6742 42.0996 12.9932C41.9076 13.3089 41.6423 13.5547 41.3037 13.7305C40.9684 13.9062 40.5876 13.9941 40.1611 13.9941C39.738 13.9941 39.3571 13.9062 39.0186 13.7305C38.68 13.5547 38.4147 13.3089 38.2227 12.9932C38.0339 12.6742 37.9395 12.3161 37.9395 11.9189C37.9395 11.5186 38.0339 11.1605 38.2227 10.8447C38.4147 10.529 38.68 10.2832 39.0186 10.1074C39.3571 9.92839 39.738 9.83887 40.1611 9.83887ZM40.1611 10.7324C39.9365 10.7324 39.7331 10.7812 39.5508 10.8789C39.3717 10.9766 39.2301 11.1149 39.126 11.2939C39.0251 11.473 38.9746 11.6813 38.9746 11.9189C38.9746 12.1533 39.0251 12.36 39.126 12.5391C39.2301 12.7181 39.3717 12.8564 39.5508 12.9541C39.7331 13.0485 39.9365 13.0957 40.1611 13.0957C40.3923 13.0957 40.5973 13.0485 40.7764 12.9541C40.9554 12.8564 41.0954 12.7181 41.1963 12.5391C41.2972 12.36 41.3477 12.1533 41.3477 11.9189C41.3477 11.6813 41.2972 11.473 41.1963 11.2939C41.0954 11.1149 40.9554 10.9766 40.7764 10.8789C40.5973 10.7812 40.3923 10.7324 40.1611 10.7324ZM40.6982 8.74512H39.6191V7.16797H40.6982V8.74512ZM53.5938 15.8594H52.4951V7.04102H53.5938V15.8594ZM50.9619 7.97852C50.9619 8.89974 50.8285 9.74447 50.5615 10.5127C50.2979 11.2777 49.8633 11.9824 49.2578 12.627C48.6523 13.2682 47.8499 13.8265 46.8506 14.3018L46.2744 13.4326C47.124 13.029 47.8141 12.57 48.3447 12.0557C48.8753 11.5413 49.2643 10.9635 49.5117 10.3223C49.7591 9.68099 49.8828 8.96159 49.8828 8.16406V7.97852H50.9619ZM50.3711 8.83789H46.7236V7.97852H50.3711V8.83789Z" fill="white"/>
<path fill-rule="evenodd" clip-rule="evenodd" d="M11.8485 8.49985C11.8485 7.67185 12.5544 7 13.424 7C13.6305 6.99953 13.835 7.03795 14.026 7.11307C14.2169 7.18819 14.3905 7.29853 14.5368 7.43781C14.6832 7.57708 14.7994 7.74256 14.8789 7.92478C14.9583 8.10701 14.9995 8.30242 15 8.49985C15 9.3283 14.2941 10.0002 13.424 10.0002C13.2153 10.0004 13.0087 9.96098 12.8161 9.88419C12.6235 9.8074 12.4488 9.69477 12.3021 9.55285L10.1209 10.9731C10.1817 11.2624 10.1519 11.5625 10.0353 11.8357L12.4268 13.3387C12.7085 13.119 13.061 12.9993 13.4245 12.9998C13.6309 12.9994 13.8355 13.0379 14.0264 13.1131C14.2173 13.1883 14.3909 13.2987 14.5372 13.438C14.6835 13.5773 14.7996 13.7428 14.8791 13.925C14.9585 14.1073 14.9996 14.3027 15 14.5001C15 15.3281 14.2941 16 13.424 16C13.0071 16.0008 12.6069 15.8433 12.3115 15.562C12.016 15.2808 11.8495 14.8988 11.8485 14.5001C11.8481 14.2898 11.8945 14.0818 11.9845 13.8899L9.61176 12.4C9.32443 12.6389 8.95629 12.7702 8.57553 12.7694C8.36904 12.7699 8.16448 12.7315 7.97354 12.6563C7.78259 12.5812 7.609 12.4708 7.46269 12.3315C7.31637 12.1921 7.2002 12.0266 7.12081 11.8443C7.04142 11.6621 7.00037 11.4666 7 11.2692C7.00043 11.0717 7.04153 10.8763 7.12095 10.6941C7.20037 10.5119 7.31655 10.3464 7.46285 10.2071C7.60916 10.0679 7.78273 9.9575 7.97365 9.88238C8.16456 9.80725 8.36908 9.76883 8.57553 9.7693C9.07624 9.7693 9.52141 9.99115 9.80988 10.3368L11.9242 8.9602C11.8739 8.81149 11.8484 8.65615 11.8485 8.49985Z" fill="white"/>
</svg>
