<svg width="22" height="21" viewBox="0 0 22 21" fill="none" xmlns="http://www.w3.org/2000/svg">
<path d="M20.7187 9.2335C20.4303 7.15942 19.4681 5.23766 17.9801 3.76422C16.4922 2.29077 14.5611 1.34737 12.4843 1.07933C10.6297 0.838758 8.74527 1.14817 7.06495 1.96916C5.38464 2.79014 3.98243 4.08655 3.03242 5.69743M1.85962 11.5909C2.1323 13.5535 3.00889 15.3827 4.36784 16.8248C5.72678 18.2669 7.50075 19.2504 9.44377 19.639C11.3868 20.0276 13.4026 19.802 15.2116 18.9936C17.0207 18.1851 18.5334 16.8337 19.54 15.127" stroke="white" stroke-width="2" stroke-linecap="round" stroke-linejoin="round"/>
<path d="M18.3613 15.1271C18.3613 15.4397 18.4855 15.7395 18.7065 15.9606C18.9276 16.1816 19.2274 16.3058 19.54 16.3058C19.8526 16.3058 20.1524 16.1816 20.3734 15.9606C20.5945 15.7395 20.7187 15.4397 20.7187 15.1271C20.7187 14.8145 20.5945 14.5147 20.3734 14.2937C20.1524 14.0726 19.8526 13.9484 19.54 13.9484C19.2274 13.9484 18.9276 14.0726 18.7065 14.2937C18.4855 14.5147 18.3613 14.8145 18.3613 15.1271ZM1.85962 5.69761C1.85962 6.01022 1.9838 6.31002 2.20485 6.53107C2.4259 6.75212 2.7257 6.8763 3.03831 6.8763C3.35092 6.8763 3.65072 6.75212 3.87177 6.53107C4.09282 6.31002 4.217 6.01022 4.217 5.69761C4.217 5.385 4.09282 5.0852 3.87177 4.86415C3.65072 4.6431 3.35092 4.51892 3.03831 4.51892C2.7257 4.51892 2.4259 4.6431 2.20485 4.86415C1.9838 5.0852 1.85962 5.385 1.85962 5.69761ZM7.75307 10.4124C7.75307 11.3502 8.12562 12.2496 8.78876 12.9127C9.4519 13.5759 10.3513 13.9484 11.2891 13.9484C12.227 13.9484 13.1264 13.5759 13.7895 12.9127C14.4527 12.2496 14.8252 11.3502 14.8252 10.4124C14.8252 9.47455 14.4527 8.57513 13.7895 7.91199C13.1264 7.24885 12.227 6.8763 11.2891 6.8763C10.3513 6.8763 9.4519 7.24885 8.78876 7.91199C8.12562 8.57513 7.75307 9.47455 7.75307 10.4124Z" stroke="white" stroke-width="2" stroke-linecap="round" stroke-linejoin="round"/>
</svg>
