<svg width="201" height="159" viewBox="0 0 201 159" fill="none" xmlns="http://www.w3.org/2000/svg">
<path d="M110.689 44.5803L110.554 43.1318L109.203 43.5917C106.889 44.4131 104.417 44.6652 101.989 44.3274C99.4381 43.923 96.8269 44.2824 94.4715 45.3621C93.2228 45.9052 92.1269 46.7587 91.2837 47.845C90.4404 48.9313 89.8765 50.2157 89.6434 51.5814C89.3411 53.3457 89.4923 55.16 90.0823 56.8466C90.4622 55.9707 90.9061 55.1253 91.4103 54.3175C92.554 52.5986 94.1386 51.2345 95.9908 50.3743C97.7751 49.5422 99.7254 49.1485 101.685 49.2247C99.8195 49.5162 98.0334 50.2013 96.441 51.2366C95.6728 51.7296 94.9694 52.3206 94.3477 52.9955C93.7531 53.67 93.2288 54.4058 92.7833 55.1912C91.9466 56.8328 91.3512 58.5915 91.0164 60.4104C90.6555 62.2352 90.4596 64.0901 90.4312 65.9515H92.682C92.7878 64.2821 93.0097 62.6225 93.346 60.9852C94.9075 61.8465 96.6586 62.2858 98.433 62.2613C100.088 62.2601 101.726 61.92 103.25 61.2611C111.814 57.5249 110.689 45.0977 110.689 44.5803Z" fill="url(#paint0_linear_807_144)"/>
<path d="M47.1771 99L151.833 98.9992" stroke="url(#paint1_linear_807_144)" stroke-width="4" stroke-linecap="round" stroke-linejoin="round"/>
<path d="M56.4426 27.3936V83.1046M74.1475 27.3936V41.3213V55.2491V83.1046M127.656 27.3936V83.1046M142.921 27.3936V83.1046" stroke="url(#paint2_linear_807_144)" stroke-width="6" stroke-linecap="round"/>
<path d="M47 83.2627H152.01V97.1905H47V83.2627Z" stroke="url(#paint3_linear_807_144)" stroke-width="6" stroke-linejoin="round"/>
<path d="M50.1476 13.1301L99.564 3L148.98 13.1301V26.2129H50.1476V13.1301Z" stroke="#613599" stroke-width="6" stroke-linejoin="round"/>
<path d="M46.8994 128L50.5225 118.102H51.8213L55.4443 128H54.1455L51.2061 119.701H51.124L48.1846 128H46.8994ZM53.708 124.131V125.211H48.6357V124.131H53.708ZM58.0146 128H56.7842V118.102H58.0146V128ZM73.1494 123.871H72.083V116.967H73.1494V123.871ZM73.1494 128.943H65.2471V124.568H73.1494V128.943ZM66.2998 128.068H72.0967V125.443H66.2998V128.068ZM67.2295 118.635C67.2295 119.373 67.0837 120.07 66.792 120.727C66.5003 121.383 66.0924 121.955 65.5684 122.442C65.0443 122.93 64.4404 123.301 63.7568 123.557L63.21 122.709C63.8206 122.49 64.363 122.176 64.8369 121.766C65.3109 121.355 65.6777 120.877 65.9375 120.33C66.1973 119.783 66.3271 119.218 66.3271 118.635V117.445H67.2295V118.635ZM67.4209 118.635C67.4209 119.191 67.5531 119.726 67.8174 120.241C68.0817 120.756 68.4486 121.21 68.918 121.602C69.3874 121.993 69.9183 122.294 70.5107 122.504L69.9639 123.324C69.2985 123.087 68.7038 122.739 68.1797 122.278C67.6556 121.818 67.2477 121.276 66.9561 120.651C66.6644 120.027 66.5186 119.355 66.5186 118.635V117.445H67.4209V118.635ZM85.249 129.135H84.1826V116.953H85.249V129.135ZM76.9365 125.279C78.0576 125.279 79.0921 125.247 80.04 125.184C80.988 125.12 81.9769 125.006 83.0068 124.842L83.1162 125.744C82.068 125.908 81.0632 126.022 80.1016 126.086C79.14 126.15 78.085 126.182 76.9365 126.182H75.9248V125.279H76.9365ZM81.5576 122.408H77.0186V125.621H75.9248V121.533H80.4775V118.977H75.8975V118.088H81.5576V122.408ZM101.942 124.268H90.8135V123.393H101.942V124.268ZM96.9932 126.646H95.9268V123.816H96.9932V126.646ZM100.698 128.848H92.2354V127.945H100.698V128.848ZM93.3018 128.287H92.2354V125.525H93.3018V128.287ZM93.3701 118.908H99.3857V117.35H100.452V122.203H92.3037V117.35H93.3701V118.908ZM99.3857 121.328V119.729H93.3701V121.328H99.3857ZM112.155 120.412H109.216V119.51H112.155V120.412ZM106.892 118.867C106.892 119.633 106.753 120.348 106.475 121.014C106.197 121.679 105.805 122.258 105.299 122.75C104.793 123.242 104.203 123.62 103.528 123.885L102.94 122.996C103.551 122.777 104.089 122.463 104.554 122.053C105.019 121.643 105.379 121.162 105.634 120.61C105.889 120.059 106.017 119.478 106.017 118.867V117.582H106.892V118.867ZM107.069 118.908C107.069 119.455 107.197 119.986 107.452 120.501C107.707 121.016 108.063 121.467 108.519 121.854C108.974 122.242 109.494 122.536 110.077 122.736L109.489 123.598C108.842 123.352 108.27 122.996 107.773 122.531C107.277 122.066 106.892 121.522 106.618 120.897C106.345 120.273 106.208 119.61 106.208 118.908V117.582H107.069V118.908ZM113.003 129.107H111.923V125.676H104.827V124.814H113.003V129.107ZM113.003 124.145H111.923V116.953H113.003V124.145ZM120.563 117.172C121.466 117.172 122.238 117.252 122.881 117.411C123.523 117.571 124.013 117.808 124.351 118.122C124.688 118.437 124.856 118.817 124.856 119.264C124.856 119.719 124.688 120.104 124.351 120.419C124.013 120.733 123.523 120.973 122.881 121.137C122.238 121.301 121.466 121.387 120.563 121.396C119.661 121.387 118.889 121.301 118.246 121.137C117.604 120.973 117.111 120.733 116.77 120.419C116.428 120.104 116.257 119.719 116.257 119.264C116.257 118.817 116.428 118.437 116.77 118.122C117.111 117.808 117.604 117.571 118.246 117.411C118.889 117.252 119.661 117.172 120.563 117.172ZM120.563 117.979C119.898 117.979 119.326 118.029 118.848 118.129C118.369 118.229 118.005 118.377 117.754 118.573C117.503 118.769 117.378 118.999 117.378 119.264C117.378 119.546 117.501 119.785 117.747 119.981C117.993 120.177 118.355 120.326 118.834 120.426C119.312 120.526 119.889 120.576 120.563 120.576C121.238 120.576 121.814 120.526 122.293 120.426C122.771 120.326 123.136 120.175 123.387 119.975C123.637 119.774 123.763 119.537 123.763 119.264C123.763 118.999 123.635 118.771 123.38 118.58C123.125 118.389 122.758 118.241 122.279 118.136C121.801 118.031 121.229 117.979 120.563 117.979ZM126.101 123.092H115.026V122.217H126.101V123.092ZM124.679 126.865H117.46V128.342H116.394V126.072H123.626V124.965H116.366V124.145H124.679V126.865ZM125.048 128.971H116.394V128.123H125.048V128.971ZM141.714 124.281H130.626V123.406H141.714V124.281ZM136.696 123.775H135.63V121.807H136.696V123.775ZM140.401 122.203H132.103V121.342H140.401V122.203ZM140.333 118.184H133.183V121.793H132.103V117.309H140.333V118.184ZM140.005 120.139H132.854V119.318H140.005V120.139ZM136.177 125.197C137.07 125.188 137.826 125.259 138.446 125.409C139.066 125.56 139.54 125.781 139.868 126.072C140.196 126.364 140.36 126.719 140.36 127.139C140.36 127.558 140.196 127.911 139.868 128.198C139.54 128.485 139.066 128.704 138.446 128.854C137.826 129.005 137.07 129.08 136.177 129.08C135.284 129.08 134.522 129.005 133.894 128.854C133.265 128.704 132.788 128.485 132.465 128.198C132.141 127.911 131.979 127.558 131.979 127.139C131.979 126.71 132.144 126.353 132.472 126.065C132.8 125.778 133.276 125.56 133.9 125.409C134.525 125.259 135.284 125.188 136.177 125.197ZM136.177 126.004C135.511 126.004 134.946 126.047 134.481 126.134C134.017 126.22 133.663 126.348 133.422 126.517C133.18 126.685 133.06 126.893 133.06 127.139C133.06 127.385 133.178 127.59 133.415 127.754C133.652 127.918 134.005 128.041 134.475 128.123C134.944 128.205 135.511 128.246 136.177 128.246C136.842 128.246 137.405 128.205 137.865 128.123C138.326 128.041 138.676 127.918 138.918 127.754C139.16 127.59 139.28 127.385 139.28 127.139C139.28 126.893 139.16 126.685 138.918 126.517C138.676 126.348 138.323 126.22 137.858 126.134C137.394 126.047 136.833 126.004 136.177 126.004ZM148.81 119.934H142.712V119.059H148.81V119.934ZM145.761 120.754C146.271 120.754 146.725 120.87 147.121 121.103C147.518 121.335 147.83 121.661 148.058 122.08C148.285 122.499 148.399 122.978 148.399 123.516C148.399 124.053 148.285 124.532 148.058 124.951C147.83 125.37 147.518 125.701 147.121 125.942C146.725 126.184 146.271 126.305 145.761 126.305C145.259 126.305 144.811 126.184 144.414 125.942C144.018 125.701 143.708 125.368 143.484 124.944C143.261 124.521 143.149 124.044 143.149 123.516C143.149 122.987 143.261 122.511 143.484 122.087C143.708 121.663 144.018 121.335 144.414 121.103C144.811 120.87 145.259 120.754 145.761 120.754ZM145.761 121.656C145.451 121.656 145.168 121.738 144.913 121.902C144.658 122.066 144.46 122.287 144.318 122.565C144.177 122.843 144.106 123.16 144.106 123.516C144.106 123.871 144.179 124.19 144.325 124.473C144.471 124.755 144.669 124.974 144.92 125.129C145.171 125.284 145.451 125.361 145.761 125.361C146.08 125.361 146.367 125.284 146.622 125.129C146.877 124.974 147.078 124.755 147.224 124.473C147.369 124.19 147.442 123.871 147.442 123.516C147.442 123.16 147.369 122.843 147.224 122.565C147.078 122.287 146.877 122.066 146.622 121.902C146.367 121.738 146.08 121.656 145.761 121.656ZM153.089 129.107H152.063V116.953H153.089V129.107ZM152.405 122.969H150.081V122.08H152.405V122.969ZM150.45 128.506H149.438V117.254H150.45V128.506ZM146.308 119.592H145.241V117.322H146.308V119.592ZM10.6992 153.107H9.61914V140.953H10.6992V153.107ZM7.10352 142.279C7.10352 143.482 6.90527 144.608 6.50879 145.656C6.1123 146.704 5.49023 147.668 4.64258 148.548C3.79492 149.427 2.71029 150.186 1.38867 150.824L0.800781 149.949C1.97656 149.393 2.95182 148.739 3.72656 147.987C4.5013 147.235 5.08008 146.395 5.46289 145.465C5.8457 144.535 6.03711 143.528 6.03711 142.443V142.279H7.10352ZM6.47461 143.154H1.36133V142.279H6.47461V143.154ZM23.8652 148.541H12.7363V147.652H23.8652V148.541ZM22.4297 144.207H15.252V145.861H14.1855V143.4H21.3496V142.143H14.1445V141.268H22.4297V144.207ZM22.6895 146.367H14.1855V145.506H22.6895V146.367ZM18.8203 148.09H17.7676V145.943H18.8203V148.09ZM22.498 152.998H21.418V150.346H13.9805V149.471H22.498V152.998ZM39.4785 147.953H28.3633V147.064H39.4785V147.953ZM34.4199 147.461H33.3672V145.191H34.4199V147.461ZM34.2695 141.719C34.2695 142.411 34.0439 143.045 33.5928 143.619C33.1416 144.193 32.5469 144.672 31.8086 145.055C31.0703 145.438 30.2819 145.702 29.4434 145.848L29.0332 144.986C29.7624 144.886 30.4596 144.676 31.125 144.357C31.7904 144.038 32.3281 143.646 32.7383 143.182C33.1484 142.717 33.3535 142.229 33.3535 141.719V141.145H34.2695V141.719ZM34.4336 141.719C34.4336 142.229 34.641 142.717 35.0557 143.182C35.4704 143.646 36.0127 144.038 36.6826 144.357C37.3525 144.676 38.0475 144.886 38.7676 144.986L38.3301 145.848C37.5007 145.702 36.7191 145.438 35.9854 145.055C35.2516 144.672 34.6592 144.191 34.208 143.612C33.7568 143.034 33.5312 142.402 33.5312 141.719V141.145H34.4336V141.719ZM38.0703 153.107H36.9902V150.004H29.5938V149.143H38.0703V153.107ZM48.1602 143.564C48.1602 144.285 48.0143 144.966 47.7227 145.608C47.431 146.251 47.0254 146.809 46.5059 147.283C45.9863 147.757 45.3893 148.117 44.7148 148.363L44.1543 147.502C44.7559 147.283 45.2936 146.973 45.7676 146.572C46.2415 146.171 46.6107 145.711 46.875 145.191C47.1393 144.672 47.2715 144.13 47.2715 143.564V142.293H48.1602V143.564ZM48.3516 143.564C48.3516 144.102 48.4837 144.617 48.748 145.109C49.0124 145.602 49.3815 146.035 49.8555 146.408C50.3294 146.782 50.8672 147.064 51.4688 147.256L50.9219 148.117C50.2474 147.889 49.6481 147.55 49.124 147.099C48.5999 146.647 48.1921 146.119 47.9004 145.513C47.6087 144.907 47.4629 144.257 47.4629 143.564V142.293H48.3516V143.564ZM51.1543 142.854H44.4277V141.979H51.1543V142.854ZM54.0117 149.881H52.9453V140.967H54.0117V149.881ZM54.3945 152.848H46.1641V151.945H54.3945V152.848ZM47.2305 152.342H46.1641V149.033H47.2305V152.342ZM65.4004 145.014H62.625V144.125H65.4004V145.014ZM66.1523 148.199H65.0723V140.953H66.1523V148.199ZM62.1191 148.582C62.9668 148.582 63.696 148.671 64.3066 148.849C64.9173 149.026 65.3844 149.284 65.708 149.621C66.0316 149.958 66.1934 150.364 66.1934 150.838C66.1934 151.312 66.0316 151.717 65.708 152.055C65.3844 152.392 64.9173 152.649 64.3066 152.827C63.696 153.005 62.9668 153.098 62.1191 153.107C61.2806 153.098 60.556 153.005 59.9453 152.827C59.3346 152.649 58.8652 152.392 58.5371 152.055C58.209 151.717 58.0449 151.312 58.0449 150.838C58.0449 150.364 58.209 149.958 58.5371 149.621C58.8652 149.284 59.3346 149.026 59.9453 148.849C60.556 148.671 61.2806 148.582 62.1191 148.582ZM62.1191 149.416C61.5085 149.416 60.9753 149.473 60.5195 149.587C60.0638 149.701 59.7152 149.865 59.4736 150.079C59.2321 150.293 59.1113 150.546 59.1113 150.838C59.1113 151.12 59.2321 151.369 59.4736 151.583C59.7152 151.797 60.0638 151.961 60.5195 152.075C60.9753 152.189 61.5085 152.246 62.1191 152.246C62.7389 152.246 63.2744 152.189 63.7256 152.075C64.1768 151.961 64.5231 151.797 64.7646 151.583C65.0062 151.369 65.127 151.12 65.127 150.838C65.127 150.546 65.0062 150.293 64.7646 150.079C64.5231 149.865 64.1768 149.701 63.7256 149.587C63.2744 149.473 62.7389 149.416 62.1191 149.416ZM60.1094 143.195C60.1094 143.924 59.9635 144.615 59.6719 145.267C59.3802 145.918 58.9769 146.488 58.4619 146.976C57.9469 147.463 57.3568 147.835 56.6914 148.09L56.1309 147.229C56.7324 147.01 57.2679 146.693 57.7373 146.278C58.2067 145.864 58.5713 145.387 58.8311 144.85C59.0908 144.312 59.2207 143.76 59.2207 143.195V142.184H60.1094V143.195ZM60.3008 143.182C60.3008 143.701 60.4261 144.207 60.6768 144.699C60.9274 145.191 61.2806 145.627 61.7363 146.005C62.1921 146.383 62.7116 146.677 63.2949 146.887L62.7344 147.748C62.0781 147.511 61.5016 147.162 61.0049 146.702C60.5081 146.242 60.1208 145.706 59.8428 145.096C59.5648 144.485 59.4258 143.847 59.4258 143.182V142.184H60.3008V143.182ZM63.0215 142.744H56.4727V141.842H63.0215V142.744ZM77.6777 150.072H76.6113V140.967H77.6777V150.072ZM79.5098 145.875H77.3359V144.973H79.5098V145.875ZM75.4492 143.332H68.2031V142.457H75.4492V143.332ZM71.8262 144.002C72.4004 144.002 72.9085 144.095 73.3506 144.282C73.7926 144.469 74.1367 144.733 74.3828 145.075C74.6289 145.417 74.752 145.816 74.752 146.271C74.752 146.718 74.6289 147.11 74.3828 147.447C74.1367 147.785 73.7926 148.047 73.3506 148.233C72.9085 148.42 72.4004 148.514 71.8262 148.514C71.252 148.514 70.7415 148.42 70.2949 148.233C69.8483 148.047 69.5042 147.785 69.2627 147.447C69.0212 147.11 68.9004 146.718 68.9004 146.271C68.9004 145.816 69.0212 145.417 69.2627 145.075C69.5042 144.733 69.8483 144.469 70.2949 144.282C70.7415 144.095 71.252 144.002 71.8262 144.002ZM71.8262 144.85C71.4525 144.85 71.1198 144.907 70.8281 145.021C70.5365 145.134 70.3132 145.301 70.1582 145.52C70.0033 145.738 69.9258 145.989 69.9258 146.271C69.9258 146.554 70.0033 146.8 70.1582 147.01C70.3132 147.219 70.5365 147.381 70.8281 147.495C71.1198 147.609 71.4525 147.666 71.8262 147.666C72.1999 147.666 72.5326 147.609 72.8242 147.495C73.1159 147.381 73.3415 147.219 73.501 147.01C73.6605 146.8 73.7402 146.554 73.7402 146.271C73.7402 145.989 73.6605 145.738 73.501 145.52C73.3415 145.301 73.1159 145.134 72.8242 145.021C72.5326 144.907 72.1999 144.85 71.8262 144.85ZM72.3594 142.908H71.293V140.967H72.3594V142.908ZM78.2383 152.848H70.0762V151.945H78.2383V152.848ZM71.1289 152.314H70.0762V149.348H71.1289V152.314ZM117.17 147.447H106.041V146.6H117.17V147.447ZM115.775 151.002H108.475V152.451H107.395V150.264H114.709V149.225H107.381V148.418H115.775V151.002ZM116.172 152.943H107.395V152.164H116.172V152.943ZM115.734 143.838H108.557V145.178H107.49V143.1H114.654V142.102H107.449V141.322H115.734V143.838ZM115.953 145.684H107.49V144.904H115.953V145.684ZM123.24 143.223H126.781V141.473H127.848V146.764H122.188V141.473H123.24V143.223ZM126.781 145.889V144.057H123.24V145.889H126.781ZM131.17 147.242H130.104V140.953H131.17V147.242ZM133.002 144.494H130.691V143.592H133.002V144.494ZM131.17 150.756H124.498V152.588H123.445V149.936H130.104V148.678H123.418V147.816H131.17V150.756ZM131.621 152.971H123.445V152.096H131.621V152.971ZM143.844 150.031H142.764V140.967H143.844V150.031ZM140.18 141.91C140.18 142.931 139.945 143.877 139.476 144.747C139.006 145.618 138.341 146.374 137.479 147.017C136.618 147.659 135.609 148.167 134.451 148.541L133.973 147.68C134.993 147.342 135.884 146.91 136.646 146.381C137.407 145.852 137.994 145.244 138.409 144.556C138.824 143.868 139.031 143.132 139.031 142.348V141.91H140.18ZM139.688 142.799H134.574V141.91H139.688V142.799ZM142.928 144.357H139.619V143.482H142.928V144.357ZM142.887 147.092H139.496V146.203H142.887V147.092ZM144.158 152.848H136.105V151.945H144.158V152.848ZM137.199 152.479H136.105V149.129H137.199V152.479ZM151.938 143.934H145.84V143.059H151.938V143.934ZM148.889 144.754C149.399 144.754 149.853 144.87 150.249 145.103C150.646 145.335 150.958 145.661 151.186 146.08C151.413 146.499 151.527 146.978 151.527 147.516C151.527 148.053 151.413 148.532 151.186 148.951C150.958 149.37 150.646 149.701 150.249 149.942C149.853 150.184 149.399 150.305 148.889 150.305C148.387 150.305 147.938 150.184 147.542 149.942C147.146 149.701 146.836 149.368 146.612 148.944C146.389 148.521 146.277 148.044 146.277 147.516C146.277 146.987 146.389 146.511 146.612 146.087C146.836 145.663 147.146 145.335 147.542 145.103C147.938 144.87 148.387 144.754 148.889 144.754ZM148.889 145.656C148.579 145.656 148.296 145.738 148.041 145.902C147.786 146.066 147.588 146.287 147.446 146.565C147.305 146.843 147.234 147.16 147.234 147.516C147.234 147.871 147.307 148.19 147.453 148.473C147.599 148.755 147.797 148.974 148.048 149.129C148.299 149.284 148.579 149.361 148.889 149.361C149.208 149.361 149.495 149.284 149.75 149.129C150.005 148.974 150.206 148.755 150.352 148.473C150.497 148.19 150.57 147.871 150.57 147.516C150.57 147.16 150.497 146.843 150.352 146.565C150.206 146.287 150.005 146.066 149.75 145.902C149.495 145.738 149.208 145.656 148.889 145.656ZM156.217 153.107H155.191V140.953H156.217V153.107ZM155.533 146.969H153.209V146.08H155.533V146.969ZM153.578 152.506H152.566V141.254H153.578V152.506ZM149.436 143.592H148.369V141.322H149.436V143.592ZM172.609 151.549H161.48V150.66H172.609V151.549ZM167.537 150.934H166.484V147.721H167.537V150.934ZM163.873 144.016H170.189V141.814H171.242V148.035H162.793V141.814H163.873V144.016ZM170.189 147.16V144.891H163.873V147.16H170.189ZM180.799 146.23H178.406V145.314H180.799V146.23ZM176.998 144.453C176.998 145.283 176.882 146.094 176.649 146.887C176.417 147.68 176.084 148.388 175.651 149.013C175.218 149.637 174.71 150.127 174.127 150.482L173.443 149.676C173.99 149.357 174.469 148.919 174.879 148.363C175.289 147.807 175.604 147.19 175.822 146.511C176.041 145.832 176.15 145.146 176.15 144.453V142.102H176.998V144.453ZM177.189 144.412C177.189 145.059 177.292 145.706 177.497 146.354C177.702 147.001 177.998 147.591 178.386 148.124C178.773 148.657 179.227 149.079 179.746 149.389L179.131 150.223C178.557 149.876 178.062 149.396 177.647 148.78C177.233 148.165 176.916 147.479 176.697 146.723C176.479 145.966 176.369 145.196 176.369 144.412V142.102H177.189V144.412ZM183.998 153.107H182.959V140.953H183.998V153.107ZM181.482 152.492H180.471V141.213H181.482V152.492ZM189.494 150.865H188.441V147.229H189.494V150.865ZM194.047 150.865H192.967V147.229H194.047V150.865ZM196.809 151.549H185.68V150.646H196.809V151.549ZM191.217 141.719C192.083 141.719 192.851 141.849 193.521 142.108C194.19 142.368 194.715 142.735 195.093 143.209C195.471 143.683 195.66 144.23 195.66 144.85C195.66 145.469 195.471 146.014 195.093 146.483C194.715 146.953 194.19 147.317 193.521 147.577C192.851 147.837 192.083 147.967 191.217 147.967C190.36 147.967 189.594 147.837 188.92 147.577C188.245 147.317 187.719 146.953 187.341 146.483C186.963 146.014 186.773 145.469 186.773 144.85C186.773 144.23 186.963 143.683 187.341 143.209C187.719 142.735 188.245 142.368 188.92 142.108C189.594 141.849 190.36 141.719 191.217 141.719ZM191.217 142.607C190.561 142.598 189.975 142.687 189.46 142.874C188.945 143.061 188.542 143.325 188.25 143.667C187.958 144.009 187.812 144.403 187.812 144.85C187.812 145.296 187.958 145.69 188.25 146.032C188.542 146.374 188.945 146.641 189.46 146.832C189.975 147.023 190.561 147.119 191.217 147.119C191.873 147.119 192.459 147.023 192.974 146.832C193.489 146.641 193.892 146.374 194.184 146.032C194.475 145.69 194.621 145.296 194.621 144.85C194.621 144.403 194.475 144.009 194.184 143.667C193.892 143.325 193.489 143.061 192.974 142.874C192.459 142.687 191.873 142.598 191.217 142.607ZM199.064 152.082C198.91 152.082 198.764 152.041 198.627 151.959C198.49 151.877 198.383 151.768 198.306 151.631C198.228 151.494 198.189 151.348 198.189 151.193C198.189 151.038 198.228 150.893 198.306 150.756C198.383 150.619 198.49 150.512 198.627 150.435C198.764 150.357 198.91 150.318 199.064 150.318C199.219 150.318 199.365 150.357 199.502 150.435C199.639 150.512 199.746 150.619 199.823 150.756C199.901 150.893 199.939 151.038 199.939 151.193C199.939 151.348 199.901 151.494 199.823 151.631C199.746 151.768 199.639 151.877 199.502 151.959C199.365 152.041 199.219 152.082 199.064 152.082Z" fill="white"/>
<path d="M85.5547 145.141H83.8984L84.6719 140.695H86.9062L85.5547 145.141ZM101.164 146.234H98.6406V144.602H101.164V146.234ZM99.1562 153.414H97.1562V139.203H99.1562V153.414ZM90.3828 149.406H88.3906V140.57H90.3828V149.406ZM89.625 148.297C90.7188 148.297 91.8099 148.247 92.8984 148.148C93.9922 148.049 95.0911 147.891 96.1953 147.672L96.4141 149.328C95.3047 149.552 94.1901 149.711 93.0703 149.805C91.9557 149.893 90.8073 149.938 89.625 149.938H88.3906V148.297H89.625ZM103.602 145.141H101.945L102.719 140.695H104.953L103.602 145.141Z" fill="#A259FF"/>
<defs>
<linearGradient id="paint0_linear_807_144" x1="100.115" y1="43.1318" x2="100.115" y2="65.9515" gradientUnits="userSpaceOnUse">
<stop stop-color="#A259FF"/>
<stop offset="1" stop-color="#613599"/>
</linearGradient>
<linearGradient id="paint1_linear_807_144" x1="99.505" y1="98.9996" x2="99.505" y2="99.9996" gradientUnits="userSpaceOnUse">
<stop stop-color="#A259FF"/>
<stop offset="1" stop-color="#613599"/>
</linearGradient>
<linearGradient id="paint2_linear_807_144" x1="99.682" y1="27.3936" x2="99.682" y2="83.1046" gradientUnits="userSpaceOnUse">
<stop stop-color="#A259FF"/>
<stop offset="1" stop-color="#613599"/>
</linearGradient>
<linearGradient id="paint3_linear_807_144" x1="99.5049" y1="83.2627" x2="99.5049" y2="97.1905" gradientUnits="userSpaceOnUse">
<stop stop-color="#A259FF"/>
<stop offset="1" stop-color="#613599"/>
</linearGradient>
</defs>
</svg>
