<svg width="19" height="18" viewBox="0 0 19 18" fill="none" xmlns="http://www.w3.org/2000/svg">
<path d="M3.57563 10.6064H14.6038V9.59624H3.57563V10.6064ZM3.57563 7.57598H14.6038V6.56585H3.57563V7.57598ZM3.57563 4.54559H14.6038V3.53546H3.57563V4.54559ZM18.1128 17.25L15.0279 14.1418H1.6868C1.22495 14.1418 0.839295 13.9863 0.529837 13.6751C0.220379 13.364 0.0659842 12.9758 0.0666526 12.5105V1.63136C0.0666526 1.1667 0.221382 0.778476 0.53084 0.466682C0.840298 0.154889 1.22528 -0.000671243 1.68579 2.17701e-06H16.4937C16.9548 2.17701e-06 17.3398 0.155562 17.6486 0.466682C17.9574 0.777803 18.1121 1.16603 18.1128 1.63136V17.25ZM1.6868 13.1317H15.456L17.1102 14.7924V1.63237C17.1102 1.47681 17.0461 1.33405 16.9177 1.20408C16.7894 1.07411 16.6481 1.00946 16.4937 1.01013H1.68579C1.53207 1.01013 1.39071 1.07478 1.26171 1.20408C1.13271 1.33337 1.06855 1.4758 1.06922 1.63136V12.5105C1.06922 12.6654 1.13338 12.8078 1.26171 12.9378C1.39004 13.0677 1.5314 13.1324 1.68579 13.1317" fill="white"/>
</svg>
