<svg width="236" height="214" viewBox="0 0 236 214" fill="none" xmlns="http://www.w3.org/2000/svg">
<rect width="236" height="214" rx="10" fill="#281D36"/>
<path d="M108.106 108.003V85.7873C108.106 82.7327 110.837 80.2335 114.173 80.2335H141.476C144.813 80.2335 147.543 82.7327 147.543 85.7873V102.449H137.138L133.255 97.617C133.217 97.5595 133.164 97.5119 133.1 97.4789C133.036 97.4459 132.964 97.4285 132.891 97.4285C132.817 97.4285 132.745 97.4459 132.682 97.4789C132.618 97.5119 132.564 97.5595 132.527 97.617L126.49 105.226C126.308 105.392 125.944 105.42 125.762 105.226L121.424 100.366C121.38 100.32 121.327 100.284 121.267 100.258C121.207 100.233 121.141 100.22 121.075 100.22C121.009 100.22 120.943 100.233 120.883 100.258C120.823 100.284 120.769 100.32 120.726 100.366L114.325 107.753C114.082 108.003 114.295 108.419 114.659 108.419H133.892V113.557H114.173C110.806 113.557 108.106 111.085 108.106 108.003ZM99.0055 132.995V130.218H92.9383V132.995H86.8711V77.4565H92.9383V80.2335H99.0055V77.4565H106.256C103.677 79.5115 102.039 82.455 102.039 85.7873V108.003C102.039 114.14 107.469 119.11 114.173 119.11H128.431C125.307 121.415 123.274 124.886 123.274 128.83C123.274 130.301 123.608 131.69 124.124 132.995H99.0055ZM92.9383 91.3412H99.0055V85.7873H92.9383V91.3412ZM92.9383 102.449H99.0055V96.895H92.9383V102.449ZM92.9383 113.557H99.0055V108.003H92.9383V113.557ZM99.0055 124.664V119.11H92.9383V124.664H99.0055ZM150.577 108.003V113.557H144.509V128.83C144.509 130.671 143.71 132.437 142.288 133.739C140.866 135.041 138.937 135.772 136.925 135.772C134.914 135.772 132.985 135.041 131.563 133.739C130.14 132.437 129.341 130.671 129.341 128.83C129.342 127.677 129.656 126.543 130.255 125.53C130.854 124.516 131.72 123.655 132.773 123.024C133.827 122.393 135.035 122.012 136.29 121.915C137.544 121.819 138.805 122.01 139.959 122.471V108.003H150.577Z" fill="#A259FF"/>
</svg>
