<svg width="16" height="17" viewBox="0 0 16 17" fill="none" xmlns="http://www.w3.org/2000/svg">
<path d="M7.99992 7.70345C7.55789 7.70345 7.13397 7.52786 6.82141 7.21529C6.50885 6.90273 6.33325 6.47881 6.33325 6.03678C6.33325 5.59476 6.50885 5.17083 6.82141 4.85827C7.13397 4.54571 7.55789 4.37012 7.99992 4.37012C8.44195 4.37012 8.86587 4.54571 9.17843 4.85827C9.49099 5.17083 9.66658 5.59476 9.66658 6.03678C9.66658 6.25565 9.62348 6.47238 9.53972 6.67459C9.45596 6.8768 9.33319 7.06053 9.17843 7.21529C9.02367 7.37006 8.83993 7.49283 8.63772 7.57658C8.43551 7.66034 8.21879 7.70345 7.99992 7.70345ZM7.99992 1.37012C6.76224 1.37012 5.57526 1.86178 4.70009 2.73695C3.82492 3.61212 3.33325 4.79911 3.33325 6.03678C3.33325 9.53678 7.99992 14.7034 7.99992 14.7034C7.99992 14.7034 12.6666 9.53678 12.6666 6.03678C12.6666 4.79911 12.1749 3.61212 11.2997 2.73695C10.4246 1.86178 9.2376 1.37012 7.99992 1.37012Z" fill="#3D3A3A"/>
</svg>
