<svg width="278" height="41" viewBox="0 0 278 41" fill="none" xmlns="http://www.w3.org/2000/svg">
<rect x="0.5" y="0.5" width="277" height="40" rx="9.5" stroke="#A259FF"/>
<path d="M86.1411 27.2671H84.7715V22.4624H86.1411V27.2671ZM91.4512 23.1802H79.4834V22.0303H91.4512V23.1802ZM85.9873 16.7349C85.9873 17.4722 85.7529 18.1484 85.2842 18.7637C84.8203 19.374 84.188 19.8843 83.3872 20.2944C82.5864 20.6997 81.6904 20.9756 80.6992 21.1221L80.1865 20.0161C81.0264 19.9087 81.7954 19.689 82.4937 19.3569C83.1919 19.0249 83.7461 18.6294 84.1562 18.1704C84.5664 17.7114 84.7715 17.2329 84.7715 16.7349V16.3906H85.9873V16.7349ZM86.1558 16.7349C86.1558 17.2231 86.3584 17.6992 86.7637 18.1631C87.1689 18.627 87.7207 19.0249 88.4189 19.3569C89.1172 19.689 89.8838 19.9087 90.7188 20.0161L90.2134 21.1221C89.2319 20.9854 88.3384 20.707 87.5327 20.2871C86.7319 19.8672 86.0996 19.3521 85.6357 18.7417C85.1719 18.1265 84.9399 17.4575 84.9399 16.7349V16.3906H86.1558V16.7349ZM90.3159 16.8228H80.626V15.7095H90.3159V16.8228ZM86.1411 16.0903H84.7715V14.1201H86.1411V16.0903ZM96.8125 17.2402C96.8125 18.0312 96.6636 18.7686 96.3657 19.4521C96.0679 20.1309 95.6431 20.7217 95.0913 21.2246C94.5396 21.7275 93.8853 22.106 93.1284 22.3599L92.4473 21.2759C93.1016 21.061 93.6729 20.7485 94.1611 20.3384C94.6543 19.9282 95.0278 19.457 95.2817 18.9248C95.5405 18.3877 95.6699 17.8262 95.6699 17.2402V16.6104H96.8125V17.2402ZM97.0396 17.2402C97.0396 17.792 97.1714 18.3193 97.4351 18.8223C97.7036 19.3203 98.082 19.7622 98.5703 20.1479C99.0635 20.5337 99.6396 20.8315 100.299 21.0415L99.6177 22.1401C98.8657 21.9058 98.2114 21.5469 97.6548 21.0635C97.0981 20.5801 96.6685 20.0112 96.3657 19.3569C96.063 18.6978 95.9116 17.9922 95.9116 17.2402V16.6104H97.0396V17.2402ZM99.9033 16.9253H92.8135V15.812H99.9033V16.9253ZM97.0688 16.2441H95.6699V14.2007H97.0688V16.2441ZM102.716 19.2324H99.4565V18.1045H102.716V19.2324ZM103.39 23.9053H101.998V14.1274H103.39V23.9053ZM103.741 26.9814H94.8643V25.8315H103.741V26.9814ZM96.2632 26.4907H94.8643V23.041H96.2632V26.4907ZM115.057 14.3911C116.014 14.3911 116.844 14.4912 117.547 14.6914C118.25 14.8916 118.79 15.1821 119.166 15.563C119.547 15.939 119.737 16.3882 119.737 16.9106C119.737 17.4282 119.547 17.8726 119.166 18.2437C118.79 18.6099 118.25 18.8931 117.547 19.0933C116.844 19.2935 116.014 19.3936 115.057 19.3936C114.105 19.3936 113.275 19.2935 112.567 19.0933C111.864 18.8931 111.319 18.6099 110.934 18.2437C110.548 17.8726 110.355 17.4282 110.355 16.9106C110.355 16.3882 110.548 15.939 110.934 15.563C111.319 15.1821 111.864 14.8916 112.567 14.6914C113.275 14.4912 114.105 14.3911 115.057 14.3911ZM115.057 15.4897C114.388 15.4897 113.807 15.5459 113.314 15.6582C112.826 15.7656 112.45 15.9268 112.186 16.1416C111.927 16.3564 111.798 16.6128 111.798 16.9106C111.798 17.2036 111.925 17.4526 112.179 17.6577C112.438 17.8628 112.811 18.0215 113.299 18.1338C113.792 18.2412 114.378 18.2998 115.057 18.3096C115.721 18.2998 116.297 18.2412 116.786 18.1338C117.279 18.0215 117.655 17.8628 117.914 17.6577C118.177 17.4526 118.309 17.2036 118.309 16.9106C118.309 16.6128 118.177 16.3564 117.914 16.1416C117.655 15.9268 117.279 15.7656 116.786 15.6582C116.297 15.5459 115.721 15.4897 115.057 15.4897ZM119.583 27.0767H110.509V22.7041H119.583V27.0767ZM111.886 25.9487H118.221V23.8174H111.886V25.9487ZM121.041 21.5396H109.073V20.4043H121.041V21.5396ZM125.729 14.8892C126.393 14.8794 126.988 15.0088 127.516 15.2773C128.048 15.541 128.465 15.9121 128.768 16.3906C129.076 16.8643 129.229 17.4038 129.229 18.0093C129.229 18.6147 129.076 19.1567 128.768 19.6353C128.465 20.1138 128.048 20.4873 127.516 20.7559C126.988 21.0244 126.393 21.1587 125.729 21.1587C125.06 21.1587 124.461 21.0244 123.934 20.7559C123.407 20.4873 122.992 20.1138 122.689 19.6353C122.386 19.1567 122.235 18.6147 122.235 18.0093C122.235 17.4038 122.386 16.8643 122.689 16.3906C122.992 15.917 123.407 15.5459 123.934 15.2773C124.466 15.0088 125.064 14.8794 125.729 14.8892ZM125.729 16.0684C125.323 16.0684 124.957 16.1489 124.63 16.3101C124.308 16.4712 124.054 16.6982 123.868 16.9912C123.688 17.2793 123.597 17.6187 123.597 18.0093C123.597 18.3999 123.688 18.7441 123.868 19.042C124.054 19.335 124.308 19.562 124.63 19.7231C124.957 19.8843 125.323 19.9648 125.729 19.9648C126.134 19.9648 126.5 19.8843 126.827 19.7231C127.154 19.562 127.408 19.335 127.589 19.042C127.774 18.7441 127.867 18.3999 127.867 18.0093C127.867 17.6187 127.774 17.2793 127.589 16.9912C127.408 16.6982 127.154 16.4712 126.827 16.3101C126.505 16.1489 126.139 16.0684 125.729 16.0684ZM132.35 21.8325H130.965V14.1128H132.35V21.8325ZM134.261 18.5586H131.961V17.4087H134.261V18.5586ZM132.35 27.2671H130.965V23.5977H123.678V22.4697H132.35V27.2671ZM136.092 27.5967H134.715L138.128 14.8965H139.52L136.092 27.5967ZM150.836 21.2979H141.695V20.1772H150.836V21.2979ZM152.213 25.6411H140.201V24.4912H152.213V25.6411ZM146.859 24.916H145.497V20.6753H146.859V24.916ZM150.711 16.2588H143.094V20.6899H141.695V15.1455H150.711V16.2588ZM163.426 19.606H159.801V18.4854H163.426V19.606ZM157.633 17.4526C157.633 18.4585 157.481 19.4302 157.179 20.3677C156.876 21.3003 156.449 22.1279 155.897 22.8506C155.345 23.5732 154.706 24.1274 153.978 24.5132L153.092 23.3853C153.761 23.0679 154.352 22.5991 154.864 21.979C155.382 21.354 155.782 20.646 156.065 19.855C156.349 19.064 156.49 18.2632 156.49 17.4526V15.2041H157.633V17.4526ZM157.904 17.4526C157.904 18.2583 158.043 19.042 158.321 19.8037C158.604 20.5605 158.998 21.2344 159.5 21.8252C160.008 22.4111 160.589 22.853 161.244 23.1509L160.409 24.2788C159.676 23.9028 159.037 23.3706 158.49 22.6821C157.948 21.9888 157.525 21.1929 157.223 20.2944C156.925 19.3911 156.776 18.4438 156.776 17.4526V15.2041H157.904V17.4526ZM164.115 27.2744H162.73V14.1128H164.115V27.2744ZM181.803 25.6118H169.791V24.4692H181.803V25.6118ZM176.449 24.7915H175.086V21.4077H176.449V24.7915ZM172.56 17.2769H179.005V15.0137H180.375V21.7739H171.161V15.0137H172.56V17.2769ZM179.005 20.646V18.3975H172.56V20.646H179.005ZM193.683 27.2744H192.306V14.1128H193.683V27.2744ZM192.628 20.2065H189.903V19.0566H192.628V20.2065ZM184.271 22.9751C185.555 22.9751 186.634 22.9482 187.508 22.8945C188.387 22.8408 189.276 22.731 190.174 22.5649L190.284 23.7222C189.366 23.8833 188.453 23.9932 187.545 24.0518C186.637 24.1055 185.545 24.1372 184.271 24.147H183.246V22.9751H184.271ZM189.127 20.0015H184.63V23.3413H183.246V18.8735H187.772V16.4346H183.202V15.2993H189.127V20.0015ZM205.943 27.2305H204.559V14.1128H205.943V27.2305ZM207.979 20.5142H205.584V19.3569H207.979V20.5142ZM202.508 15.5044C202.508 16.8179 202.303 18.0459 201.893 19.1885C201.488 20.3262 200.838 21.376 199.945 22.3379C199.056 23.2949 197.911 24.1201 196.51 24.8135L195.733 23.7295C196.939 23.124 197.943 22.4258 198.744 21.6348C199.544 20.8389 200.145 19.9526 200.545 18.9761C200.946 17.9946 201.146 16.918 201.146 15.7461V15.5044H202.508ZM201.849 16.6616H196.378V15.5044H201.849V16.6616ZM219.596 27.2378H218.189V14.1128H219.596V27.2378ZM215.699 15.5264C215.699 16.8643 215.492 18.1021 215.077 19.2397C214.667 20.3726 214.007 21.4175 213.099 22.3745C212.191 23.3267 211.009 24.1519 209.554 24.8501L208.807 23.7222C210.072 23.1265 211.109 22.4331 211.92 21.6421C212.735 20.8511 213.338 19.9673 213.729 18.9907C214.12 18.0142 214.315 16.9351 214.315 15.7534V15.5264H215.699ZM214.916 16.6396H209.444V15.5264H214.916V16.6396Z" fill="#A259FF"/>
<g filter="url(#filter0_d_516_932)">
<path d="M69.2105 28.8947H59.3684V16.3684H69.2105M69.2105 14.5789H59.3684C58.8938 14.5789 58.4387 14.7675 58.1031 15.1031C57.7675 15.4387 57.5789 15.8938 57.5789 16.3684V28.8947C57.5789 29.3693 57.7675 29.8245 58.1031 30.1601C58.4387 30.4957 58.8938 30.6842 59.3684 30.6842H69.2105C69.6851 30.6842 70.1403 30.4957 70.4759 30.1601C70.8115 29.8245 71 29.3693 71 28.8947V16.3684C71 15.8938 70.8115 15.4387 70.4759 15.1031C70.1403 14.7675 69.6851 14.5789 69.2105 14.5789ZM66.5263 11H55.7895C55.3149 11 54.8597 11.1885 54.5241 11.5241C54.1885 11.8597 54 12.3149 54 12.7895V25.3158H55.7895V12.7895H66.5263V11Z" fill="#A259FF"/>
</g>
<defs>
<filter id="filter0_d_516_932" x="50" y="11" width="25" height="27.6846" filterUnits="userSpaceOnUse" color-interpolation-filters="sRGB">
<feFlood flood-opacity="0" result="BackgroundImageFix"/>
<feColorMatrix in="SourceAlpha" type="matrix" values="0 0 0 0 0 0 0 0 0 0 0 0 0 0 0 0 0 0 127 0" result="hardAlpha"/>
<feOffset dy="4"/>
<feGaussianBlur stdDeviation="2"/>
<feComposite in2="hardAlpha" operator="out"/>
<feColorMatrix type="matrix" values="0 0 0 0 0 0 0 0 0 0 0 0 0 0 0 0 0 0 0.25 0"/>
<feBlend mode="normal" in2="BackgroundImageFix" result="effect1_dropShadow_516_932"/>
<feBlend mode="normal" in="SourceGraphic" in2="effect1_dropShadow_516_932" result="shape"/>
</filter>
</defs>
</svg>
