<svg width="351" height="124" viewBox="0 0 351 124" fill="none" xmlns="http://www.w3.org/2000/svg">
<g filter="url(#filter0_d_646_577)">
<path fill-rule="evenodd" clip-rule="evenodd" d="M24 0H89.3269C90.7375 7.14459 96.5473 12.4981 103.5 12.4981C110.453 12.4981 116.263 7.14459 117.673 0H327C338.046 0 347 8.95431 347 20V95.3668C347 106.412 338.046 115.367 327 115.367H117.673C116.263 108.222 110.453 102.869 103.5 102.869C96.5473 102.869 90.7374 108.222 89.3269 115.367H24C12.9543 115.367 4 106.412 4 95.3668V20C4 8.95432 12.9543 0 24 0Z" fill="url(#paint0_linear_646_577)"/>
<line x1="104.5" y1="22.3672" x2="104.5" y2="95.3672" stroke="#3D3A3A" stroke-dasharray="2 2"/>
</g>
<defs>
<filter id="filter0_d_646_577" x="0" y="0" width="351" height="123.367" filterUnits="userSpaceOnUse" color-interpolation-filters="sRGB">
<feFlood flood-opacity="0" result="BackgroundImageFix"/>
<feColorMatrix in="SourceAlpha" type="matrix" values="0 0 0 0 0 0 0 0 0 0 0 0 0 0 0 0 0 0 127 0" result="hardAlpha"/>
<feOffset dy="4"/>
<feGaussianBlur stdDeviation="2"/>
<feComposite in2="hardAlpha" operator="out"/>
<feColorMatrix type="matrix" values="0 0 0 0 0 0 0 0 0 0 0 0 0 0 0 0 0 0 0.25 0"/>
<feBlend mode="normal" in2="BackgroundImageFix" result="effect1_dropShadow_646_577"/>
<feBlend mode="normal" in="SourceGraphic" in2="effect1_dropShadow_646_577" result="shape"/>
</filter>
<linearGradient id="paint0_linear_646_577" x1="175.5" y1="0" x2="175.5" y2="115.367" gradientUnits="userSpaceOnUse">
<stop stop-color="white"/>
<stop offset="1" stop-color="#F5F1F9"/>
</linearGradient>
</defs>
</svg>
