<svg width="19" height="18" viewBox="0 0 19 18" fill="none" xmlns="http://www.w3.org/2000/svg">
<path d="M3.50898 10.6064H14.5372V9.59624H3.50898V10.6064ZM3.50898 7.57598H14.5372V6.56585H3.50898V7.57598ZM3.50898 4.54559H14.5372V3.53546H3.50898V4.54559ZM18.0462 17.25L14.9613 14.1418H1.62015C1.1583 14.1418 0.772645 13.9863 0.463187 13.6751C0.153729 13.364 -0.000666215 12.9758 2.1607e-06 12.5105V1.63136C2.1607e-06 1.1667 0.154731 0.778476 0.464189 0.466682C0.773647 0.154889 1.15863 -0.000671243 1.61914 2.17701e-06H16.427C16.8882 2.17701e-06 17.2732 0.155562 17.582 0.466682C17.8908 0.777803 18.0455 1.16603 18.0462 1.63136V17.25ZM1.62015 13.1317H15.3894L17.0436 14.7924V1.63237C17.0436 1.47681 16.9794 1.33405 16.8511 1.20408C16.7228 1.07411 16.5814 1.00946 16.427 1.01013H1.61914C1.46542 1.01013 1.32405 1.07478 1.19506 1.20408C1.06606 1.33337 1.0019 1.4758 1.00257 1.63136V12.5105C1.00257 12.6654 1.06673 12.8078 1.19506 12.9378C1.32339 13.0677 1.46475 13.1324 1.61914 13.1317" fill="#3D3A3A"/>
</svg>
