<svg width="390" height="1096" viewBox="0 0 390 1096" fill="none" xmlns="http://www.w3.org/2000/svg">
<rect width="390" height="1096" fill="url(#paint0_linear_711_236)"/>
<rect width="390" height="1096" fill="white" fill-opacity="0.45"/>
<path opacity="0.4" d="M190.5 386C200.165 386 208 393.835 208 403.5C208 413.165 200.165 421 190.5 421C180.835 421 173 413.165 173 403.5C172.997 401.172 173.46 398.867 174.362 396.721C175.263 394.575 176.585 392.631 178.25 391.003" stroke="url(#paint1_linear_711_236)" stroke-width="1.5" stroke-linecap="round"/>
<path opacity="0.7" d="M178.25 403.5C178.25 405.923 178.968 408.291 180.314 410.306C181.661 412.32 183.574 413.89 185.812 414.818C188.051 415.745 190.514 415.987 192.89 415.515C195.266 415.042 197.449 413.875 199.162 412.162C200.875 410.449 202.042 408.266 202.515 405.89C202.987 403.514 202.745 401.051 201.818 398.812C200.89 396.574 199.32 394.661 197.306 393.314C195.291 391.968 192.923 391.25 190.5 391.25" stroke="url(#paint2_linear_711_236)" stroke-width="1.5" stroke-linecap="round"/>
<path d="M190.5 410.5C192.357 410.5 194.137 409.762 195.45 408.45C196.762 407.137 197.5 405.357 197.5 403.5C197.5 401.643 196.762 399.863 195.45 398.55C194.137 397.237 192.357 396.5 190.5 396.5" stroke="url(#paint3_linear_711_236)" stroke-width="1.5" stroke-linecap="round"/>
<path d="M237.938 362.587L237.766 361L236.05 361.504C233.109 362.404 229.968 362.68 226.882 362.31C223.64 361.867 220.322 362.26 217.328 363.443C215.742 364.038 214.349 364.973 213.277 366.163C212.206 367.354 211.489 368.761 211.193 370.257C210.809 372.19 211.001 374.177 211.751 376.025C212.233 375.066 212.797 374.139 213.438 373.254C214.892 371.371 216.905 369.877 219.259 368.935C221.527 368.023 224.005 367.591 226.496 367.675C224.125 367.994 221.855 368.745 219.831 369.879C218.855 370.419 217.961 371.067 217.171 371.806C216.415 372.545 215.749 373.351 215.183 374.212C214.12 376.01 213.363 377.937 212.938 379.929C212.479 381.929 212.23 383.961 212.194 386H215.054C215.189 384.171 215.471 382.353 215.898 380.559C217.883 381.503 220.108 381.984 222.363 381.957C224.466 381.956 226.547 381.583 228.484 380.861C239.368 376.768 237.938 363.154 237.938 362.587Z" fill="url(#paint4_linear_711_236)"/>
<path d="M144.696 448.466H133.403V447.263H144.696V448.466ZM139.925 450.599H138.421V447.892H139.925V450.599ZM143.445 452.984H134.764V451.74H143.445V452.984ZM136.274 452.253H134.764V449.573H136.274V452.253ZM136.37 442.648H141.702V441.254H143.213V446.285H134.873V441.254H136.37V442.648ZM141.702 445.075V443.783H136.37V445.075H141.702ZM154.581 444.508H151.881V443.257H154.581V444.508ZM149.714 442.724C149.714 443.535 149.582 444.289 149.317 444.986C149.053 445.679 148.663 446.285 148.148 446.805C147.638 447.324 147.016 447.718 146.282 447.987L145.455 446.757C146.111 446.538 146.665 446.228 147.116 445.827C147.567 445.422 147.905 444.952 148.128 444.419C148.356 443.886 148.47 443.321 148.47 442.724V441.5H149.714V442.724ZM149.994 442.806C149.994 443.343 150.104 443.861 150.322 444.357C150.546 444.85 150.874 445.285 151.307 445.663C151.744 446.041 152.271 446.333 152.886 446.538L152.079 447.748C151.377 447.493 150.778 447.124 150.281 446.641C149.785 446.153 149.409 445.581 149.153 444.925C148.903 444.264 148.777 443.558 148.777 442.806V441.5H149.994V442.806ZM155.859 453.203H154.342V450.004H147.438V448.794H155.859V453.203ZM155.859 448.199H154.342V440.857H155.859V448.199ZM167.891 453.237H166.353V440.857H167.891V453.237ZM161.232 441.76C161.852 441.76 162.406 441.94 162.894 442.3C163.381 442.655 163.762 443.163 164.035 443.824C164.309 444.48 164.445 445.246 164.445 446.121C164.445 447.001 164.309 447.771 164.035 448.432C163.762 449.088 163.381 449.596 162.894 449.956C162.406 450.316 161.852 450.496 161.232 450.496C160.608 450.496 160.052 450.316 159.564 449.956C159.077 449.596 158.694 449.088 158.416 448.432C158.143 447.771 158.006 447.001 158.006 446.121C158.006 445.246 158.143 444.48 158.416 443.824C158.694 443.163 159.077 442.655 159.564 442.3C160.052 441.94 160.608 441.76 161.232 441.76ZM161.232 443.127C160.886 443.122 160.578 443.241 160.31 443.482C160.045 443.719 159.84 444.063 159.694 444.515C159.549 444.966 159.476 445.501 159.476 446.121C159.476 446.741 159.549 447.279 159.694 447.734C159.84 448.186 160.045 448.53 160.31 448.767C160.578 448.999 160.886 449.115 161.232 449.115C161.579 449.115 161.884 448.999 162.148 448.767C162.413 448.53 162.618 448.186 162.764 447.734C162.91 447.279 162.982 446.741 162.982 446.121C162.982 445.501 162.91 444.966 162.764 444.515C162.618 444.063 162.413 443.719 162.148 443.482C161.889 443.241 161.583 443.122 161.232 443.127ZM177.461 443.373C177.461 444.143 177.322 444.868 177.044 445.547C176.766 446.221 176.36 446.812 175.827 447.317C175.299 447.819 174.665 448.197 173.927 448.452L173.141 447.249C173.783 447.035 174.335 446.727 174.795 446.326C175.26 445.925 175.608 445.472 175.841 444.966C176.078 444.455 176.196 443.924 176.196 443.373V442.225H177.461V443.373ZM177.734 443.373C177.734 443.893 177.851 444.394 178.083 444.877C178.315 445.355 178.66 445.784 179.115 446.162C179.571 446.536 180.118 446.821 180.756 447.017L179.977 448.213C179.247 447.976 178.621 447.618 178.097 447.14C177.573 446.657 177.174 446.094 176.9 445.451C176.627 444.809 176.49 444.116 176.49 443.373V442.225H177.734V443.373ZM180.339 443.018H173.537V441.801H180.339V443.018ZM183.333 449.84H181.809V440.871H183.333V449.84ZM183.682 452.984H175.157V451.74H183.682V452.984ZM176.688 452.342H175.157V449.013H176.688V452.342ZM195.713 448.623H194.264V440.857H195.713V448.623ZM194.66 445.267H192.521V444.022H194.66V445.267ZM193.061 448.206H191.639V441.097H193.061V448.206ZM191.229 443.394H185.083V442.197H191.229V443.394ZM188.173 443.893C188.692 443.893 189.155 443.981 189.561 444.159C189.966 444.332 190.283 444.583 190.511 444.911C190.739 445.235 190.853 445.608 190.853 446.032C190.853 446.451 190.739 446.821 190.511 447.14C190.283 447.459 189.966 447.707 189.561 447.885C189.155 448.062 188.692 448.151 188.173 448.151C187.662 448.151 187.204 448.062 186.799 447.885C186.393 447.707 186.076 447.459 185.849 447.14C185.625 446.821 185.514 446.451 185.514 446.032C185.514 445.608 185.625 445.235 185.849 444.911C186.076 444.583 186.391 444.332 186.792 444.159C187.198 443.981 187.658 443.893 188.173 443.893ZM188.173 444.986C187.918 444.986 187.692 445.03 187.496 445.116C187.3 445.198 187.145 445.319 187.031 445.479C186.922 445.633 186.867 445.818 186.867 446.032C186.867 446.237 186.922 446.42 187.031 446.579C187.145 446.734 187.3 446.855 187.496 446.941C187.692 447.023 187.918 447.064 188.173 447.064C188.428 447.064 188.654 447.023 188.85 446.941C189.05 446.855 189.205 446.734 189.314 446.579C189.424 446.42 189.479 446.237 189.479 446.032C189.479 445.818 189.424 445.633 189.314 445.479C189.205 445.319 189.05 445.198 188.85 445.116C188.654 445.03 188.428 444.986 188.173 444.986ZM188.918 442.99H187.407V440.967H188.918V442.99ZM191.543 448.78C192.427 448.78 193.186 448.867 193.819 449.04C194.453 449.209 194.936 449.459 195.269 449.792C195.606 450.125 195.774 450.528 195.774 451.002C195.774 451.462 195.606 451.856 195.269 452.185C194.936 452.517 194.451 452.768 193.812 452.937C193.174 453.11 192.418 453.196 191.543 453.196C190.663 453.196 189.907 453.11 189.273 452.937C188.64 452.768 188.155 452.517 187.817 452.185C187.48 451.856 187.312 451.462 187.312 451.002C187.312 450.528 187.48 450.125 187.817 449.792C188.155 449.459 188.64 449.209 189.273 449.04C189.907 448.867 190.663 448.78 191.543 448.78ZM191.543 449.929C190.955 449.924 190.458 449.963 190.053 450.045C189.652 450.122 189.346 450.243 189.137 450.407C188.932 450.567 188.829 450.765 188.829 451.002C188.829 451.225 188.932 451.417 189.137 451.576C189.346 451.731 189.654 451.85 190.06 451.932C190.465 452.009 190.96 452.048 191.543 452.048C192.131 452.048 192.625 452.009 193.026 451.932C193.427 451.85 193.733 451.731 193.942 451.576C194.152 451.417 194.257 451.225 194.257 451.002C194.257 450.76 194.152 450.56 193.942 450.4C193.733 450.241 193.427 450.122 193.026 450.045C192.625 449.963 192.131 449.924 191.543 449.929ZM203.615 449.218H202.118V447.037H203.615V449.218ZM208.503 447.748H197.251V446.524H208.503V447.748ZM202.863 448.78C203.757 448.78 204.522 448.867 205.16 449.04C205.803 449.209 206.293 449.459 206.63 449.792C206.972 450.125 207.143 450.526 207.143 450.995C207.143 451.46 206.972 451.856 206.63 452.185C206.293 452.513 205.803 452.763 205.16 452.937C204.522 453.11 203.757 453.196 202.863 453.196C201.965 453.196 201.195 453.11 200.553 452.937C199.91 452.763 199.416 452.513 199.069 452.185C198.728 451.856 198.557 451.46 198.557 450.995C198.557 450.526 198.728 450.125 199.069 449.792C199.411 449.459 199.903 449.209 200.546 449.04C201.193 448.867 201.965 448.78 202.863 448.78ZM202.863 449.936C202.262 449.936 201.756 449.977 201.346 450.059C200.94 450.141 200.632 450.259 200.423 450.414C200.213 450.569 200.108 450.763 200.108 450.995C200.108 451.214 200.213 451.403 200.423 451.562C200.632 451.717 200.942 451.838 201.353 451.925C201.763 452.007 202.266 452.048 202.863 452.048C203.451 452.048 203.952 452.007 204.367 451.925C204.782 451.838 205.094 451.717 205.304 451.562C205.513 451.403 205.618 451.214 205.618 450.995C205.618 450.763 205.513 450.569 205.304 450.414C205.094 450.259 204.784 450.141 204.374 450.059C203.964 449.977 203.46 449.936 202.863 449.936ZM203.185 442.307C203.185 442.936 202.984 443.51 202.583 444.029C202.187 444.544 201.619 444.97 200.881 445.308C200.147 445.645 199.288 445.864 198.304 445.964L197.791 444.768C198.607 444.686 199.32 444.524 199.931 444.282C200.546 444.041 201.018 443.747 201.346 443.4C201.674 443.049 201.838 442.685 201.838 442.307V441.965H203.185V442.307ZM203.896 442.307C203.896 442.685 204.057 443.049 204.381 443.4C204.709 443.747 205.183 444.041 205.803 444.282C206.423 444.524 207.147 444.686 207.977 444.768L207.437 445.964C206.466 445.864 205.609 445.645 204.866 445.308C204.123 444.97 203.549 444.544 203.144 444.029C202.738 443.51 202.535 442.936 202.535 442.307V441.965H203.896V442.307ZM207.491 442.614H198.27V441.404H207.491V442.614ZM222.968 447.495H221.443V440.857H222.968V447.495ZM216.296 449.327H221.45V448.062H222.968V453.06H214.799V448.062H216.296V449.327ZM221.45 451.829V450.517H216.296V451.829H221.45ZM216.234 441.404C216.868 441.4 217.435 441.518 217.937 441.76C218.442 442.001 218.839 442.345 219.126 442.792C219.418 443.234 219.563 443.738 219.563 444.303C219.563 444.85 219.418 445.342 219.126 445.779C218.839 446.217 218.442 446.559 217.937 446.805C217.435 447.051 216.868 447.176 216.234 447.181C215.601 447.176 215.031 447.051 214.525 446.805C214.024 446.559 213.628 446.217 213.336 445.779C213.049 445.342 212.905 444.85 212.905 444.303C212.905 443.738 213.049 443.234 213.336 442.792C213.628 442.345 214.024 442.001 214.525 441.76C215.031 441.518 215.601 441.4 216.234 441.404ZM216.234 442.676C215.874 442.667 215.555 442.73 215.277 442.867C214.999 443.004 214.781 443.195 214.621 443.441C214.466 443.688 214.389 443.975 214.389 444.303C214.389 444.626 214.466 444.911 214.621 445.157C214.781 445.399 214.999 445.588 215.277 445.725C215.555 445.857 215.874 445.925 216.234 445.93C216.59 445.925 216.907 445.857 217.185 445.725C217.463 445.588 217.677 445.399 217.827 445.157C217.982 444.911 218.06 444.626 218.06 444.303C218.06 443.975 217.982 443.688 217.827 443.441C217.672 443.195 217.456 443.004 217.178 442.867C216.904 442.73 216.59 442.667 216.234 442.676ZM235.095 453.203H233.584V440.857H235.095V453.203ZM226.994 449.71H225.49V442.054H226.994V449.71ZM226.55 448.821C227.534 448.821 228.521 448.778 229.51 448.691C230.499 448.6 231.485 448.457 232.47 448.261L232.668 449.525C231.643 449.735 230.626 449.885 229.619 449.977C228.612 450.068 227.589 450.113 226.55 450.113H225.49V448.821H226.55ZM246.559 453.237H245.041V440.857H246.559V453.237ZM248.466 446.798H246.217V445.547H248.466V446.798ZM238.403 448.944C239.547 448.949 240.552 448.922 241.418 448.862C242.288 448.803 243.166 448.694 244.05 448.534L244.221 449.819C243.327 449.979 242.441 450.084 241.562 450.134C240.687 450.184 239.634 450.207 238.403 450.202H237.385V448.944H238.403ZM243.168 443.264H238.902V449.56H237.385V442.026H243.168V443.264ZM250.482 452.109C250.291 452.109 250.113 452.062 249.949 451.966C249.785 451.866 249.655 451.736 249.56 451.576C249.468 451.412 249.423 451.234 249.423 451.043C249.423 450.856 249.468 450.683 249.56 450.523C249.655 450.359 249.785 450.232 249.949 450.141C250.113 450.045 250.291 449.997 250.482 449.997C250.665 449.997 250.838 450.045 251.002 450.141C251.166 450.232 251.296 450.359 251.392 450.523C251.487 450.683 251.535 450.856 251.535 451.043C251.535 451.234 251.487 451.412 251.392 451.576C251.296 451.736 251.166 451.866 251.002 451.966C250.838 452.062 250.665 452.109 250.482 452.109Z" fill="url(#paint5_linear_711_236)"/>
<defs>
<linearGradient id="paint0_linear_711_236" x1="195" y1="0" x2="195" y2="1096" gradientUnits="userSpaceOnUse">
<stop offset="0.085" stop-color="#E2D5F3"/>
<stop offset="0.17" stop-color="#DCD3E8"/>
<stop offset="0.2125" stop-color="#D9D2E2"/>
<stop offset="0.67" stop-color="#E8E8E8"/>
<stop offset="1" stop-color="white"/>
</linearGradient>
<linearGradient id="paint1_linear_711_236" x1="190.5" y1="386" x2="190.5" y2="421" gradientUnits="userSpaceOnUse">
<stop stop-color="#A259FF"/>
<stop offset="1" stop-color="#613599"/>
</linearGradient>
<linearGradient id="paint2_linear_711_236" x1="190.5" y1="391.25" x2="190.5" y2="415.75" gradientUnits="userSpaceOnUse">
<stop stop-color="#A259FF"/>
<stop offset="1" stop-color="#613599"/>
</linearGradient>
<linearGradient id="paint3_linear_711_236" x1="194" y1="396.5" x2="194" y2="410.5" gradientUnits="userSpaceOnUse">
<stop stop-color="#A259FF"/>
<stop offset="1" stop-color="#613599"/>
</linearGradient>
<linearGradient id="paint4_linear_711_236" x1="224.5" y1="361" x2="224.5" y2="386" gradientUnits="userSpaceOnUse">
<stop stop-color="#A259FF"/>
<stop offset="1" stop-color="#613599"/>
</linearGradient>
<linearGradient id="paint5_linear_711_236" x1="193" y1="436" x2="193" y2="458" gradientUnits="userSpaceOnUse">
<stop stop-color="#A259FF"/>
<stop offset="1" stop-color="#613599"/>
</linearGradient>
</defs>
</svg>
