<svg width="18" height="18" viewBox="0 0 18 18" fill="none" xmlns="http://www.w3.org/2000/svg">
<path d="M17.5465 0.223359C17.8312 0.434275 18 0.771739 18 1.12678V12.938C18 14.4918 16.4883 15.7502 14.625 15.7502C12.7617 15.7502 11.25 14.4918 11.25 12.938C11.25 11.3843 12.7617 10.1258 14.625 10.1258C15.0188 10.1258 15.3984 10.1821 15.75 10.2875V5.16932L6.75 7.86904V15.1878C6.75 16.7415 5.23828 18 3.375 18C1.51172 18 0 16.7415 0 15.1878C0 13.6341 1.51172 12.3756 3.375 12.3756C3.76875 12.3756 4.14844 12.4318 4.5 12.5373V4.50142C4.5 4.00577 4.82695 3.56637 5.30156 3.42224L16.5516 0.0475967C16.8926 -0.0543457 17.2617 0.00892891 17.5465 0.223359Z" fill="#A259FF"/>
</svg>
