<svg width="25" height="25" viewBox="0 0 25 25" fill="none" xmlns="http://www.w3.org/2000/svg">
<circle cx="12.5" cy="12.5" r="12.5" fill="#3D3A3A"/>
<path fill-rule="evenodd" clip-rule="evenodd" d="M9.16667 7.50008C9.16667 6.61603 9.51786 5.76818 10.143 5.14306C10.7681 4.51794 11.6159 4.16675 12.5 4.16675C13.3841 4.16675 14.2319 4.51794 14.857 5.14306C15.4821 5.76818 15.8333 6.61603 15.8333 7.50008C15.8333 8.38414 15.4821 9.23198 14.857 9.8571C14.2319 10.4822 13.3841 10.8334 12.5 10.8334C11.6159 10.8334 10.7681 10.4822 10.143 9.8571C9.51786 9.23198 9.16667 8.38414 9.16667 7.50008ZM9.16667 12.5001C8.0616 12.5001 7.00179 12.9391 6.22039 13.7205C5.43899 14.5019 5 15.5617 5 16.6667C5 17.3298 5.26339 17.9657 5.73223 18.4345C6.20107 18.9034 6.83696 19.1667 7.5 19.1667H17.5C18.163 19.1667 18.7989 18.9034 19.2678 18.4345C19.7366 17.9657 20 17.3298 20 16.6667C20 15.5617 19.561 14.5019 18.7796 13.7205C17.9982 12.9391 16.9384 12.5001 15.8333 12.5001H9.16667Z" fill="#CCCCCC"/>
</svg>
