<svg width="50" height="50" viewBox="0 0 50 50" fill="none" xmlns="http://www.w3.org/2000/svg">
<circle cx="25" cy="25" r="25" fill="#121212"/>
<path fill-rule="evenodd" clip-rule="evenodd" d="M18.7778 15.2222C18.7778 13.572 19.4333 11.9893 20.6002 10.8224C21.7671 9.65555 23.3498 9 25 9C26.6502 9 28.2329 9.65555 29.3998 10.8224C30.5667 11.9893 31.2222 13.572 31.2222 15.2222C31.2222 16.8725 30.5667 18.4551 29.3998 19.622C28.2329 20.7889 26.6502 21.4444 25 21.4444C23.3498 21.4444 21.7671 20.7889 20.6002 19.622C19.4333 18.4551 18.7778 16.8725 18.7778 15.2222ZM18.7778 24.5556C16.715 24.5556 14.7367 25.375 13.2781 26.8336C11.8194 28.2922 11 30.2705 11 32.3333C11 33.571 11.4917 34.758 12.3668 35.6332C13.242 36.5083 14.429 37 15.6667 37H34.3333C35.571 37 36.758 36.5083 37.6332 35.6332C38.5083 34.758 39 33.571 39 32.3333C39 30.2705 38.1806 28.2922 36.7219 26.8336C35.2633 25.375 33.285 24.5556 31.2222 24.5556H18.7778Z" fill="#CCCCCC"/>
</svg>
