<svg width="37" height="37" viewBox="0 0 37 37" fill="none" xmlns="http://www.w3.org/2000/svg">
<ellipse cx="18.5" cy="18.4527" rx="18.5" ry="18.4527" fill="#3D3A3A"/>
<path fill-rule="evenodd" clip-rule="evenodd" d="M13.5667 11.0716C13.5667 9.76654 14.0864 8.51494 15.0116 7.59212C15.9368 6.66931 17.1916 6.15088 18.5 6.15088C19.8084 6.15088 21.0632 6.66931 21.9884 7.59212C22.9136 8.51494 23.4333 9.76654 23.4333 11.0716C23.4333 12.3767 22.9136 13.6283 21.9884 14.5511C21.0632 15.4739 19.8084 15.9923 18.5 15.9923C17.1916 15.9923 15.9368 15.4739 15.0116 14.5511C14.0864 13.6283 13.5667 12.3767 13.5667 11.0716ZM13.5667 18.4527C11.9312 18.4527 10.3626 19.1007 9.20617 20.2542C8.04969 21.4077 7.39999 22.9722 7.39999 24.6036C7.39999 25.5824 7.78981 26.5211 8.4837 27.2132C9.17758 27.9053 10.1187 28.2941 11.1 28.2941H25.9C26.8813 28.2941 27.8224 27.9053 28.5163 27.2132C29.2102 26.5211 29.6 25.5824 29.6 24.6036C29.6 22.9722 28.9503 21.4077 27.7938 20.2542C26.6373 19.1007 25.0688 18.4527 23.4333 18.4527H13.5667Z" fill="#CCCCCC"/>
</svg>
