<svg width="22" height="20" viewBox="0 0 22 20" fill="none" xmlns="http://www.w3.org/2000/svg">
<path d="M20.1666 4.99997H11.5665L9.99163 2.12747C9.91514 1.98831 9.79732 1.87139 9.65152 1.78995C9.50572 1.7085 9.33775 1.66579 9.16663 1.66664H1.83329C1.59018 1.66664 1.35702 1.75444 1.18511 1.91072C1.0132 2.067 0.916626 2.27896 0.916626 2.49997V17.5C0.916626 17.721 1.0132 17.9329 1.18511 18.0892C1.35702 18.2455 1.59018 18.3333 1.83329 18.3333H20.1666C20.4097 18.3333 20.6429 18.2455 20.8148 18.0892C20.9867 17.9329 21.0833 17.721 21.0833 17.5V5.8333C21.0833 5.61229 20.9867 5.40033 20.8148 5.24405C20.6429 5.08777 20.4097 4.99997 20.1666 4.99997ZM2.74996 3.33331H8.60013L9.51679 4.99997H2.74996V3.33331ZM19.25 16.6666H2.74996V6.66664H19.25V16.6666Z" fill="white"/>
</svg>
