<svg width="30" height="30" viewBox="0 0 30 30" fill="none" xmlns="http://www.w3.org/2000/svg">
<path d="M30 27.4038L21.0519 18.4543C22.4939 16.4727 23.2697 14.0844 23.2673 11.6337C23.2673 5.21899 18.0483 0 11.6337 0C5.21899 0 0 5.21899 0 11.6337C0 18.0483 5.21899 23.2673 11.6337 23.2673C14.0844 23.2697 16.4727 22.4939 18.4543 21.0519L27.4038 30L30 27.4038ZM11.6337 19.593C10.0592 19.5932 8.52013 19.1264 7.21099 18.2518C5.90185 17.3772 4.88147 16.134 4.2789 14.6795C3.67633 13.2249 3.51863 11.6243 3.82575 10.0802C4.13287 8.536 4.89101 7.11758 6.00429 6.00429C7.11758 4.89101 8.536 4.13287 10.0802 3.82575C11.6243 3.51863 13.2249 3.67633 14.6795 4.2789C16.134 4.88147 17.3772 5.90185 18.2518 7.21099C19.1264 8.52013 19.5932 10.0592 19.593 11.6337C19.5905 13.7438 18.7512 15.7669 17.259 17.259C15.7669 18.7512 13.7438 19.5905 11.6337 19.593Z" fill="#A259FF"/>
</svg>
