<svg width="15" height="17" viewBox="0 0 15 17" fill="none" xmlns="http://www.w3.org/2000/svg">
<path id="Vector" d="M1 4.33333H14M5.875 7.66667V12.6667M9.125 7.66667V12.6667M1.8125 4.33333L2.625 14.3333C2.625 14.7754 2.7962 15.1993 3.10095 15.5118C3.4057 15.8244 3.81902 16 4.25 16H10.75C11.181 16 11.5943 15.8244 11.899 15.5118C12.2038 15.1993 12.375 14.7754 12.375 14.3333L13.1875 4.33333M5.0625 4.33333V1.83333C5.0625 1.61232 5.1481 1.40036 5.30048 1.24408C5.45285 1.0878 5.65951 1 5.875 1H9.125C9.34049 1 9.54715 1.0878 9.69952 1.24408C9.8519 1.40036 9.9375 1.61232 9.9375 1.83333V4.33333" stroke="#F5F5F5" stroke-width="2" stroke-linecap="round" stroke-linejoin="round"/>
</svg>