<svg width="17" height="14" viewBox="0 0 17 14" fill="none" xmlns="http://www.w3.org/2000/svg">
<path d="M8.5748 0.886206C9.82767 0.260211 11.213 -0.0425062 12.6083 0.00480422C14.0036 0.0521147 15.366 0.447996 16.575 1.15747C16.6895 1.22464 16.787 1.31803 16.8597 1.4302C16.9325 1.54237 16.9785 1.67025 16.9941 1.80365L17 1.90559V13.1361C17 13.2878 16.9607 13.4367 16.8861 13.568C16.8115 13.6994 16.7042 13.8084 16.575 13.8842C16.4458 13.9601 16.2992 14 16.15 14C16.0008 14 15.8542 13.9601 15.725 13.8842C14.6913 13.2777 13.5187 12.9583 12.325 12.9583C11.1314 12.9583 9.95873 13.2777 8.925 13.8842C8.79578 13.9601 8.64921 14 8.5 14C8.35079 14 8.20422 13.9601 8.075 13.8842C7.07936 13.2999 5.9542 12.9817 4.80469 12.9593C3.65518 12.937 2.51886 13.2112 1.50195 13.7564L1.224 13.9119L1.13645 13.9499L1.0948 13.9637L1.0013 13.9862L0.94945 13.9948L0.85 14H0.8143L0.7208 13.9896L0.65535 13.9775L0.56355 13.9499L0.45645 13.9015L0.3757 13.8531L0.30005 13.7953L0.24905 13.7469L0.187 13.676L0.1326 13.5992L0.1139 13.5681L0.0867 13.5162L0.0493001 13.4272L0.0357 13.3849L0.0136 13.2899L0.00510004 13.2372L0.00170008 13.1949L0 13.1361V1.90559C3.79034e-06 1.75395 0.039281 1.60498 0.113884 1.47366C0.188487 1.34234 0.295787 1.23329 0.425 1.15747C1.63404 0.447996 2.9964 0.0521147 4.39172 0.00480422C5.78703 -0.0425062 7.17233 0.260211 8.4252 0.886206L8.5 0.924217L8.5748 0.886206Z" fill="#A259FF"/>
</svg>
