<svg width="20" height="17" viewBox="0 0 20 17" fill="none" xmlns="http://www.w3.org/2000/svg">
<path id="Vector" d="M1.3938 5.93806H18.323M16.8115 15.5455H2.90534C2.50445 15.5455 2.11999 15.3768 1.83652 15.0765C1.55305 14.7762 1.3938 14.3689 1.3938 13.9443V3.05583C1.3938 2.63116 1.55305 2.22387 1.83652 1.92358C2.11999 1.62329 2.50445 1.45459 2.90534 1.45459H5.7731C6.07155 1.4546 6.36332 1.5482 6.61163 1.7236L7.66366 2.46657C7.91197 2.64197 8.20373 2.73557 8.50218 2.73558H16.8115C17.2124 2.73558 17.5968 2.90428 17.8803 3.20457C18.1638 3.50486 18.323 3.91215 18.323 4.33682V13.9443C18.323 14.3689 18.1638 14.7762 17.8803 15.0765C17.5968 15.3768 17.2124 15.5455 16.8115 15.5455Z" stroke="white" stroke-width="2" stroke-linecap="round" stroke-linejoin="round"/>
</svg>
