<svg width="15" height="15" viewBox="0 0 15 15" fill="none" xmlns="http://www.w3.org/2000/svg">
<g id="maki:arrow">
<path id="Vector" d="M7.12316 4.21318C7.27051 4.07668 7.47033 4 7.67867 4C7.88702 4 8.08684 4.07668 8.23418 4.21318L11.7699 7.48963C11.9173 7.62617 12 7.81133 12 8.0044C12 8.19746 11.9173 8.38262 11.7699 8.51916L8.23418 11.7956C8.08599 11.9282 7.88752 12.0016 7.6815 12C7.47549 11.9983 7.27842 11.9217 7.13274 11.7867C6.98706 11.6517 6.90442 11.4691 6.90263 11.2782C6.90084 11.0873 6.98004 10.9034 7.12316 10.7661L9.25013 8.7325H1.78573C1.57734 8.7325 1.37749 8.65579 1.23013 8.51924C1.08278 8.3827 1 8.1975 1 8.0044C1 7.81129 1.08278 7.6261 1.23013 7.48955C1.37749 7.35301 1.57734 7.2763 1.78573 7.2763H9.25013L7.12316 5.24271C6.97586 5.10617 6.89311 4.92101 6.89311 4.72794C6.89311 4.53488 6.97586 4.34972 7.12316 4.21318Z" fill="white"/>
</g>
</svg>
