<svg width="87" height="25" viewBox="0 0 87 25" fill="none" xmlns="http://www.w3.org/2000/svg">
<rect x="0.5" y="0.5" width="86" height="24" rx="7.5" fill="#EFE7F8" stroke="#A259FF"/>
<path d="M35.6367 16.8838H34.5381V8.04102H35.6367V16.8838ZM30.8809 8.68555C31.3236 8.68555 31.7191 8.81413 32.0674 9.07129C32.4157 9.3252 32.6875 9.68815 32.8828 10.1602C33.0781 10.6289 33.1758 11.1758 33.1758 11.8008C33.1758 12.429 33.0781 12.9792 32.8828 13.4512C32.6875 13.9199 32.4157 14.2829 32.0674 14.54C31.7191 14.7972 31.3236 14.9258 30.8809 14.9258C30.4349 14.9258 30.0378 14.7972 29.6895 14.54C29.3411 14.2829 29.0677 13.9199 28.8691 13.4512C28.6738 12.9792 28.5762 12.429 28.5762 11.8008C28.5762 11.1758 28.6738 10.6289 28.8691 10.1602C29.0677 9.68815 29.3411 9.3252 29.6895 9.07129C30.0378 8.81413 30.4349 8.68555 30.8809 8.68555ZM30.8809 9.66211C30.6335 9.65885 30.4137 9.74349 30.2217 9.91602C30.0329 10.0853 29.8864 10.3311 29.7822 10.6533C29.6781 10.9756 29.626 11.3581 29.626 11.8008C29.626 12.2435 29.6781 12.6276 29.7822 12.9531C29.8864 13.2754 30.0329 13.5212 30.2217 13.6904C30.4137 13.8564 30.6335 13.9395 30.8809 13.9395C31.1283 13.9395 31.3464 13.8564 31.5352 13.6904C31.724 13.5212 31.8704 13.2754 31.9746 12.9531C32.0788 12.6276 32.1309 12.2435 32.1309 11.8008C32.1309 11.3581 32.0788 10.9756 31.9746 10.6533C31.8704 10.3311 31.724 10.0853 31.5352 9.91602C31.3496 9.74349 31.1315 9.65885 30.8809 9.66211ZM41.6035 14.7256H37.4043V8.87109H41.6035V14.7256ZM38.4785 13.8613H40.5439V9.7207H38.4785V13.8613ZM44.2793 16.8838H43.1807V8.04102H44.2793V16.8838ZM48.6885 10.541C48.6885 11.2051 48.5843 11.8464 48.376 12.4648C48.1709 13.0801 47.8779 13.6286 47.4971 14.1104C47.1162 14.5889 46.6719 14.9486 46.1641 15.1895L45.5342 14.335C45.9867 14.1234 46.3854 13.8158 46.7305 13.4121C47.0755 13.0085 47.3408 12.5576 47.5264 12.0596C47.7119 11.5583 47.8047 11.0521 47.8047 10.541V9.37891H48.6885V10.541ZM48.9082 10.541C48.9082 11.0326 48.9993 11.5143 49.1816 11.9863C49.3672 12.4583 49.6309 12.8831 49.9727 13.2607C50.3177 13.6351 50.7197 13.9199 51.1787 14.1152L50.5879 14.9697C50.0671 14.7386 49.6146 14.3984 49.2305 13.9492C48.8464 13.5 48.5534 12.9824 48.3516 12.3965C48.1497 11.8073 48.0488 11.1888 48.0488 10.541V9.37891H48.9082V10.541ZM50.8418 9.80371H45.8662V8.91504H50.8418V9.80371ZM52.9219 16.8594H51.8232V8.04102H52.9219V16.8594ZM63.2881 10.8779H61.1543V9.98926H63.2881V10.8779ZM59.5967 9.59375C59.5967 10.1862 59.5023 10.738 59.3135 11.249C59.1247 11.7568 58.848 12.2012 58.4834 12.582C58.1188 12.9596 57.6745 13.2477 57.1504 13.4463L56.5693 12.582C57.0316 12.4225 57.4238 12.1914 57.7461 11.8887C58.0684 11.5827 58.3109 11.2327 58.4736 10.8389C58.6396 10.445 58.7227 10.0299 58.7227 9.59375V8.58789H59.5967V9.59375ZM59.8115 9.6084C59.8115 10.0055 59.8896 10.3864 60.0459 10.751C60.2054 11.1156 60.4414 11.4411 60.7539 11.7275C61.0664 12.014 61.4424 12.2354 61.8818 12.3916L61.2861 13.2314C60.7913 13.0426 60.3682 12.7692 60.0166 12.4111C59.6683 12.0498 59.403 11.6299 59.2207 11.1514C59.0384 10.6729 58.9473 10.1585 58.9473 9.6084V8.58789H59.8115V9.6084ZM63.9961 14.5986H62.9121V8.05078H63.9961V14.5986ZM64.1865 16.7031H58.1758V15.8145H64.1865V16.7031ZM59.2793 16.2734H58.1758V13.8906H59.2793V16.2734ZM66.1689 12.1475C66.8949 12.1442 67.4857 12.1279 67.9414 12.0986C68.3971 12.0693 68.8545 12.014 69.3135 11.9326L69.4209 12.8115C68.9294 12.8994 68.4476 12.9596 67.9756 12.9922C67.5068 13.0215 66.9046 13.0361 66.1689 13.0361H65.583V12.1475H66.1689ZM69.0498 9.53027H66.623V12.6309H65.583V8.64648H69.0498V9.53027ZM68.957 11.2148H66.3057V10.3848H68.957V11.2148ZM72.7949 13.4219H71.7598V8.05078H72.7949V13.4219ZM72.0625 11.127H70.5488V10.2578H72.0625V11.127ZM70.8369 13.3633H69.8311V8.21191H70.8369V13.3633ZM72.7949 16.8594H71.7207V14.6914H66.75V13.8174H72.7949V16.8594Z" fill="#A259FF"/>
<path d="M24.1875 7H12.8125C12.597 7 12.3903 7.0856 12.238 7.23798C12.0856 7.39035 12 7.59701 12 7.8125V17.5625C12 17.778 12.0856 17.9847 12.238 18.137C12.3903 18.2894 12.597 18.375 12.8125 18.375H24.1875C24.403 18.375 24.6097 18.2894 24.762 18.137C24.9144 17.9847 25 17.778 25 17.5625V7.8125C25 7.59701 24.9144 7.39035 24.762 7.23798C24.6097 7.0856 24.403 7 24.1875 7ZM12.8125 17.5625V7.8125H24.1875V17.5625H12.8125Z" fill="#A259FF"/>
<path d="M14.8113 11.0625C15.0523 11.0625 15.288 10.991 15.4884 10.8571C15.6888 10.7232 15.845 10.5328 15.9373 10.3101C16.0295 10.0874 16.0536 9.8424 16.0066 9.60598C15.9596 9.36957 15.8435 9.15241 15.6731 8.98196C15.5026 8.81152 15.2855 8.69544 15.049 8.64842C14.8126 8.60139 14.5676 8.62553 14.3449 8.71777C14.1222 8.81002 13.9318 8.96623 13.7979 9.16665C13.664 9.36707 13.5925 9.6027 13.5925 9.84375C13.5925 10.167 13.7209 10.477 13.9495 10.7055C14.1781 10.9341 14.488 11.0625 14.8113 11.0625ZM14.8113 9.19375C14.94 9.19295 15.0661 9.23038 15.1735 9.30132C15.2809 9.37225 15.3649 9.47348 15.4147 9.59218C15.4645 9.71088 15.478 9.8417 15.4533 9.96805C15.4287 10.0944 15.3671 10.2106 15.2764 10.3019C15.1857 10.3932 15.0698 10.4555 14.9437 10.4809C14.8175 10.5064 14.6866 10.4937 14.5675 10.4447C14.4485 10.3956 14.3468 10.3123 14.2752 10.2053C14.2036 10.0983 14.1653 9.97248 14.1653 9.84375C14.1664 9.67277 14.2348 9.50909 14.3557 9.38818C14.4766 9.26727 14.6403 9.19888 14.8113 9.19781V9.19375Z" fill="#A259FF"/>
<path d="M20.4419 11.6191L18.2482 13.8129L16.6232 12.1879C16.547 12.1122 16.4441 12.0697 16.3367 12.0697C16.2294 12.0697 16.1265 12.1122 16.0503 12.1879L13.5925 14.6782V15.8279L16.351 13.0694L17.6875 14.3857L16.1641 15.9091H17.2813L20.7141 12.4763L23.375 15.125V13.9794L21.0147 11.6191C20.9386 11.5434 20.8356 11.501 20.7283 11.501C20.621 11.501 20.518 11.5434 20.4419 11.6191Z" fill="#A259FF"/>
</svg>
