<svg width="9" height="10" viewBox="0 0 9 10" fill="none" xmlns="http://www.w3.org/2000/svg">
<path d="M8.55 9.99907C8.43994 9.99933 8.33358 9.96756 8.25103 9.90979L4.5 7.26294L0.74897 9.90979C0.684058 9.95558 0.603834 9.98549 0.51798 9.9959C0.432125 10.0063 0.344308 9.99679 0.265125 9.96847C0.185941 9.94016 0.118775 9.89426 0.0717313 9.83632C0.0246873 9.77839 -0.000224602 9.71088 1.52586e-06 9.64196V1.42844C0.000522641 1.04972 0.190332 0.686631 0.527785 0.418837C0.865237 0.151042 1.32277 0.000413545 1.8 0H7.2C7.67723 0.000413545 8.13476 0.151042 8.47222 0.418837C8.80967 0.686631 8.99948 1.04972 9 1.42844V9.64196C9 9.73667 8.95259 9.8275 8.8682 9.89448C8.78381 9.96145 8.66935 9.99907 8.55 9.99907Z" fill="white"/>
<path d="M8.55 9.99907C8.43994 9.99933 8.33358 9.96756 8.25103 9.90979L4.5 7.26294L0.74897 9.90979C0.684058 9.95558 0.603834 9.98549 0.51798 9.9959C0.432125 10.0063 0.344308 9.99679 0.265125 9.96847C0.185941 9.94016 0.118775 9.89426 0.0717313 9.83632C0.0246873 9.77839 -0.000224602 9.71088 1.52586e-06 9.64196V1.42844C0.000522641 1.04972 0.190332 0.686631 0.527785 0.418837C0.865237 0.151042 1.32277 0.000413545 1.8 0H7.2C7.67723 0.000413545 8.13476 0.151042 8.47222 0.418837C8.80967 0.686631 8.99948 1.04972 9 1.42844V9.64196C9 9.73667 8.95259 9.8275 8.8682 9.89448C8.78381 9.96145 8.66935 9.99907 8.55 9.99907Z" fill="#3D3A3A"/>
</svg>
