<svg width="16" height="16" viewBox="0 0 16 16" fill="none" xmlns="http://www.w3.org/2000/svg">
<path d="M7.99998 7.66658C7.55795 7.66658 7.13403 7.49099 6.82147 7.17843C6.50891 6.86587 6.33331 6.44195 6.33331 5.99992C6.33331 5.55789 6.50891 5.13397 6.82147 4.82141C7.13403 4.50885 7.55795 4.33325 7.99998 4.33325C8.44201 4.33325 8.86593 4.50885 9.17849 4.82141C9.49105 5.13397 9.66665 5.55789 9.66665 5.99992C9.66665 6.21879 9.62354 6.43551 9.53978 6.63772C9.45602 6.83993 9.33325 7.02367 9.17849 7.17843C9.02373 7.33319 8.83999 7.45596 8.63779 7.53972C8.43558 7.62348 8.21885 7.66658 7.99998 7.66658ZM7.99998 1.33325C6.7623 1.33325 5.57532 1.82492 4.70015 2.70009C3.82498 3.57526 3.33331 4.76224 3.33331 5.99992C3.33331 9.49992 7.99998 14.6666 7.99998 14.6666C7.99998 14.6666 12.6666 9.49992 12.6666 5.99992C12.6666 4.76224 12.175 3.57526 11.2998 2.70009C10.4246 1.82492 9.23766 1.33325 7.99998 1.33325Z" fill="white"/>
</svg>
