<svg width="20" height="19" viewBox="0 0 20 19" fill="none" xmlns="http://www.w3.org/2000/svg">
<path d="M10 9.5C8.625 9.5 7.44792 9.0349 6.46875 8.10469C5.48958 7.17448 5 6.05625 5 4.75C5 3.44375 5.48958 2.32552 6.46875 1.39531C7.44792 0.465104 8.625 0 10 0C11.375 0 12.5521 0.465104 13.5312 1.39531C14.5104 2.32552 15 3.44375 15 4.75C15 6.05625 14.5104 7.17448 13.5312 8.10469C12.5521 9.0349 11.375 9.5 10 9.5ZM0 19V15.675C0 15.0021 0.1825 14.3838 0.5475 13.8201C0.9125 13.2565 1.39667 12.8258 2 12.5281C3.29167 11.9146 4.60417 11.4546 5.9375 11.1482C7.27083 10.8419 8.625 10.6883 10 10.6875C11.375 10.6867 12.7292 10.8403 14.0625 11.1482C15.3958 11.4562 16.7083 11.9162 18 12.5281C18.6042 12.825 19.0887 13.2557 19.4537 13.8201C19.8187 14.3846 20.0008 15.0029 20 15.675V19H0ZM2.5 16.625H17.5V15.675C17.5 15.4573 17.4429 15.2594 17.3287 15.0813C17.2146 14.9031 17.0633 14.7646 16.875 14.6656C15.75 14.1313 14.6146 13.7307 13.4687 13.4639C12.3229 13.1971 11.1667 13.0633 10 13.0625C8.83333 13.0617 7.67708 13.1955 6.53125 13.4639C5.38542 13.7323 4.25 14.1328 3.125 14.6656C2.9375 14.7646 2.78625 14.9031 2.67125 15.0813C2.55625 15.2594 2.49917 15.4573 2.5 15.675V16.625ZM10 7.125C10.6875 7.125 11.2762 6.89265 11.7662 6.42794C12.2562 5.96323 12.5008 5.40392 12.5 4.75C12.4992 4.09608 12.2546 3.53717 11.7662 3.07325C11.2779 2.60933 10.6892 2.37658 10 2.375C9.31083 2.37342 8.7225 2.60617 8.235 3.07325C7.7475 3.54033 7.5025 4.09925 7.5 4.75C7.4975 5.40075 7.7425 5.96006 8.235 6.42794C8.7275 6.89581 9.31583 7.12817 10 7.125Z" fill="white"/>
</svg>
