<svg width="28" height="27" viewBox="0 0 28 27" fill="none" xmlns="http://www.w3.org/2000/svg">
<ellipse cx="13.5346" cy="13.5" rx="13.5346" ry="13.5" fill="#3D3A3A"/>
<path fill-rule="evenodd" clip-rule="evenodd" d="M9.92536 8.1C9.92536 7.14522 10.3056 6.22955 10.9825 5.55442C11.6593 4.87928 12.5774 4.5 13.5346 4.5C14.4918 4.5 15.4098 4.87928 16.0867 5.55442C16.7636 6.22955 17.1438 7.14522 17.1438 8.1C17.1438 9.05478 16.7636 9.97045 16.0867 10.6456C15.4098 11.3207 14.4918 11.7 13.5346 11.7C12.5774 11.7 11.6593 11.3207 10.9825 10.6456C10.3056 9.97045 9.92536 9.05478 9.92536 8.1ZM9.92536 13.5C8.72882 13.5 7.5813 13.9741 6.73522 14.818C5.88914 15.6619 5.41382 16.8065 5.41382 18C5.41382 18.7161 5.69901 19.4028 6.20666 19.9092C6.7143 20.4155 7.40282 20.7 8.12074 20.7H18.9484C19.6664 20.7 20.3549 20.4155 20.8625 19.9092C21.3702 19.4028 21.6554 18.7161 21.6554 18C21.6554 16.8065 21.18 15.6619 20.334 14.818C19.4879 13.9741 18.3404 13.5 17.1438 13.5H9.92536Z" fill="#CCCCCC"/>
</svg>
