<svg width="343" height="116" viewBox="0 0 343 116" fill="none" xmlns="http://www.w3.org/2000/svg">
<path fill-rule="evenodd" clip-rule="evenodd" d="M20 0H85.3269C86.7375 7.14459 92.5473 12.4981 99.5 12.4981C106.453 12.4981 112.263 7.14459 113.673 0H323C334.046 0 343 8.95431 343 20V95.3668C343 106.412 334.046 115.367 323 115.367H113.673C112.263 108.222 106.453 102.869 99.5 102.869C92.5473 102.869 86.7374 108.222 85.3269 115.367H20C8.9543 115.367 0 106.412 0 95.3668V20C0 8.95432 8.9543 0 20 0Z" fill="url(#paint0_linear_868_759)"/>
<line x1="100.5" y1="22.3672" x2="100.5" y2="95.3672" stroke="white" stroke-dasharray="2 2"/>
<defs>
<linearGradient id="paint0_linear_868_759" x1="171.5" y1="0" x2="171.5" y2="115.367" gradientUnits="userSpaceOnUse">
<stop stop-color="#281D36"/>
<stop offset="1" stop-color="#74549C"/>
</linearGradient>
</defs>
</svg>
